solid OpenSCAD_Model
  facet normal 1 -0 0
    outer loop
      vertex 12 23 53.4
      vertex 12 33 48.6
      vertex 12 33 53.4
    endloop
  endfacet
  facet normal 1 0 0
    outer loop
      vertex 12 33 48.6
      vertex 12 23 53.4
      vertex 12 23 48.6
    endloop
  endfacet
  facet normal 0 0 -1
    outer loop
      vertex 12 23 53.4
      vertex 18 33 53.4
      vertex 18 23 53.4
    endloop
  endfacet
  facet normal -0 0 -1
    outer loop
      vertex 18 33 53.4
      vertex 12 23 53.4
      vertex 12 33 53.4
    endloop
  endfacet
  facet normal -1 0 0
    outer loop
      vertex 18 23 48.6
      vertex 18 33 53.4
      vertex 18 33 48.6
    endloop
  endfacet
  facet normal -1 -0 0
    outer loop
      vertex 18 33 53.4
      vertex 18 23 48.6
      vertex 18 23 53.4
    endloop
  endfacet
  facet normal 0 1 -0
    outer loop
      vertex 12 33 48.6
      vertex -12 33 53.4
      vertex 12 33 53.4
    endloop
  endfacet
  facet normal 0 1 0
    outer loop
      vertex -12 33 53.4
      vertex 12 33 48.6
      vertex -12 33 48.6
    endloop
  endfacet
  facet normal 0 1 0
    outer loop
      vertex 12 33 53.4
      vertex 20 33 55
      vertex 18 33 53.4
    endloop
  endfacet
  facet normal 0 1 0
    outer loop
      vertex 20 33 55
      vertex 18 33 48.6
      vertex 18 33 53.4
    endloop
  endfacet
  facet normal 0 1 0
    outer loop
      vertex 20 33 46.95
      vertex 12 33 48.6
      vertex 18 33 48.6
    endloop
  endfacet
  facet normal 0 1 0
    outer loop
      vertex 12 33 48.6
      vertex 10 33 36.95
      vertex -12 33 48.6
    endloop
  endfacet
  facet normal 0 1 0
    outer loop
      vertex 12 33 48.6
      vertex 20 33 46.95
      vertex 10 33 36.95
    endloop
  endfacet
  facet normal 0 1 -0
    outer loop
      vertex 20 33 46.95
      vertex 18 33 48.6
      vertex 20 33 55
    endloop
  endfacet
  facet normal 0 1 0
    outer loop
      vertex 20 33 55
      vertex 12 33 53.4
      vertex -20 33 55
    endloop
  endfacet
  facet normal 0 1 -0
    outer loop
      vertex -12 33 53.4
      vertex -20 33 55
      vertex 12 33 53.4
    endloop
  endfacet
  facet normal 0 1 -0
    outer loop
      vertex -18 33 53.4
      vertex -20 33 55
      vertex -12 33 53.4
    endloop
  endfacet
  facet normal 0 1 -0
    outer loop
      vertex -18 33 48.6
      vertex -20 33 55
      vertex -18 33 53.4
    endloop
  endfacet
  facet normal 0 1 0
    outer loop
      vertex -18 33 48.6
      vertex -20 33 46.95
      vertex -20 33 55
    endloop
  endfacet
  facet normal 0 1 -0
    outer loop
      vertex -10 33 36.95
      vertex -12 33 48.6
      vertex 10 33 36.95
    endloop
  endfacet
  facet normal -0 1 0
    outer loop
      vertex -20 33 46.95
      vertex -12 33 48.6
      vertex -10 33 36.95
    endloop
  endfacet
  facet normal 0 1 0
    outer loop
      vertex -12 33 48.6
      vertex -20 33 46.95
      vertex -18 33 48.6
    endloop
  endfacet
  facet normal 0 1 -0
    outer loop
      vertex 10 33 -3
      vertex -10 33 36.95
      vertex 10 33 36.95
    endloop
  endfacet
  facet normal 0 1 0
    outer loop
      vertex -10 33 36.95
      vertex 10 33 -3
      vertex -10 33 -3
    endloop
  endfacet
  facet normal -0 0 1
    outer loop
      vertex 12 33 48.6
      vertex 18 23 48.6
      vertex 18 33 48.6
    endloop
  endfacet
  facet normal 0 0 1
    outer loop
      vertex 18 23 48.6
      vertex 12 33 48.6
      vertex 12 23 48.6
    endloop
  endfacet
  facet normal 0 -1 0
    outer loop
      vertex -12 23 48.6
      vertex 12 23 53.4
      vertex -12 23 53.4
    endloop
  endfacet
  facet normal 0 -1 -0
    outer loop
      vertex 12 23 53.4
      vertex -12 23 48.6
      vertex 12 23 48.6
    endloop
  endfacet
  facet normal 0 -1 0
    outer loop
      vertex -12 23 53.4
      vertex -20 23 55
      vertex -18 23 53.4
    endloop
  endfacet
  facet normal 0 -1 0
    outer loop
      vertex -20 23 55
      vertex -18 23 48.6
      vertex -18 23 53.4
    endloop
  endfacet
  facet normal 0 -1 0
    outer loop
      vertex -20 23 46.95
      vertex -12 23 48.6
      vertex -18 23 48.6
    endloop
  endfacet
  facet normal 0 -1 0
    outer loop
      vertex -12 23 48.6
      vertex -10 23 36.95
      vertex 12 23 48.6
    endloop
  endfacet
  facet normal 0 -1 -0
    outer loop
      vertex -12 23 48.6
      vertex -20 23 46.95
      vertex -10 23 36.95
    endloop
  endfacet
  facet normal 0 -1 0
    outer loop
      vertex -20 23 46.95
      vertex -18 23 48.6
      vertex -20 23 55
    endloop
  endfacet
  facet normal 0 -1 0
    outer loop
      vertex -20 23 55
      vertex -12 23 53.4
      vertex 20 23 55
    endloop
  endfacet
  facet normal 0 -1 0
    outer loop
      vertex 12 23 53.4
      vertex 20 23 55
      vertex -12 23 53.4
    endloop
  endfacet
  facet normal 0 -1 0
    outer loop
      vertex 18 23 53.4
      vertex 20 23 55
      vertex 12 23 53.4
    endloop
  endfacet
  facet normal 0 -1 0
    outer loop
      vertex 18 23 48.6
      vertex 20 23 55
      vertex 18 23 53.4
    endloop
  endfacet
  facet normal 0 -1 0
    outer loop
      vertex 18 23 48.6
      vertex 20 23 46.95
      vertex 20 23 55
    endloop
  endfacet
  facet normal 0 -1 0
    outer loop
      vertex 10 23 36.95
      vertex 12 23 48.6
      vertex -10 23 36.95
    endloop
  endfacet
  facet normal -0 -1 0
    outer loop
      vertex 20 23 46.95
      vertex 12 23 48.6
      vertex 10 23 36.95
    endloop
  endfacet
  facet normal 0 -1 0
    outer loop
      vertex 12 23 48.6
      vertex 20 23 46.95
      vertex 18 23 48.6
    endloop
  endfacet
  facet normal 0 -1 0
    outer loop
      vertex -10 23 3
      vertex 10 23 36.95
      vertex -10 23 36.95
    endloop
  endfacet
  facet normal 0 -1 -0
    outer loop
      vertex 10 23 36.95
      vertex -10 23 3
      vertex 10 23 3
    endloop
  endfacet
  facet normal 0 0 -1
    outer loop
      vertex -18 23 53.4
      vertex -12 33 53.4
      vertex -12 23 53.4
    endloop
  endfacet
  facet normal -0 0 -1
    outer loop
      vertex -12 33 53.4
      vertex -18 23 53.4
      vertex -18 33 53.4
    endloop
  endfacet
  facet normal 1 -0 0
    outer loop
      vertex -18 23 53.4
      vertex -18 33 48.6
      vertex -18 33 53.4
    endloop
  endfacet
  facet normal 1 0 0
    outer loop
      vertex -18 33 48.6
      vertex -18 23 53.4
      vertex -18 23 48.6
    endloop
  endfacet
  facet normal -1 0 0
    outer loop
      vertex -12 23 48.6
      vertex -12 33 53.4
      vertex -12 33 48.6
    endloop
  endfacet
  facet normal -1 -0 0
    outer loop
      vertex -12 33 53.4
      vertex -12 23 48.6
      vertex -12 23 53.4
    endloop
  endfacet
  facet normal -0 0 1
    outer loop
      vertex -18 33 48.6
      vertex -12 23 48.6
      vertex -12 33 48.6
    endloop
  endfacet
  facet normal 0 0 1
    outer loop
      vertex -12 23 48.6
      vertex -18 33 48.6
      vertex -18 23 48.6
    endloop
  endfacet
  facet normal -1 0 0
    outer loop
      vertex -20 23 46.95
      vertex -20 33 55
      vertex -20 33 46.95
    endloop
  endfacet
  facet normal -1 -0 0
    outer loop
      vertex -20 33 55
      vertex -20 23 46.95
      vertex -20 23 55
    endloop
  endfacet
  facet normal -0 0 1
    outer loop
      vertex -20 33 55
      vertex 20 23 55
      vertex 20 33 55
    endloop
  endfacet
  facet normal 0 0 1
    outer loop
      vertex 20 23 55
      vertex -20 33 55
      vertex -20 23 55
    endloop
  endfacet
  facet normal 1 -0 0
    outer loop
      vertex 20 23 55
      vertex 20 33 46.95
      vertex 20 33 55
    endloop
  endfacet
  facet normal 1 0 0
    outer loop
      vertex 20 33 46.95
      vertex 20 23 55
      vertex 20 23 46.95
    endloop
  endfacet
  facet normal -1 0 0
    outer loop
      vertex -10 33 -3
      vertex -10 23 3
      vertex -10 33 36.95
    endloop
  endfacet
  facet normal -1 0 0
    outer loop
      vertex -10 -23 -3
      vertex -10 23 3
      vertex -10 33 -3
    endloop
  endfacet
  facet normal -1 -0 0
    outer loop
      vertex -10 23 3
      vertex -10 -23 -3
      vertex -10 -23 3
    endloop
  endfacet
  facet normal -1 -0 0
    outer loop
      vertex -10 33 36.95
      vertex -10 23 3
      vertex -10 23 36.95
    endloop
  endfacet
  facet normal 1 0 0
    outer loop
      vertex 10 23 3
      vertex 10 33 36.95
      vertex 10 23 36.95
    endloop
  endfacet
  facet normal 1 0 0
    outer loop
      vertex 10 33 36.95
      vertex 10 23 3
      vertex 10 33 -3
    endloop
  endfacet
  facet normal 1 0 0
    outer loop
      vertex 10 -23 -3
      vertex 10 23 3
      vertex 10 -23 3
    endloop
  endfacet
  facet normal 1 0 0
    outer loop
      vertex 10 23 3
      vertex 10 -23 -3
      vertex 10 33 -3
    endloop
  endfacet
  facet normal 0 0 -1
    outer loop
      vertex -6 -23 -3
      vertex -10 -23 -3
      vertex -6 5.5 -3
    endloop
  endfacet
  facet normal 0 0 -1
    outer loop
      vertex 6 5.5 -3
      vertex 10 -23 -3
      vertex 6 -23 -3
    endloop
  endfacet
  facet normal 0 0 -1
    outer loop
      vertex 10 -23 -3
      vertex 6 5.5 -3
      vertex 10 33 -3
    endloop
  endfacet
  facet normal 0 0 -1
    outer loop
      vertex -6 5.5 -3
      vertex 10 33 -3
      vertex 6 5.5 -3
    endloop
  endfacet
  facet normal 0 0 -1
    outer loop
      vertex -6 5.5 -3
      vertex -10 33 -3
      vertex 10 33 -3
    endloop
  endfacet
  facet normal 0 0 -1
    outer loop
      vertex -10 33 -3
      vertex -6 5.5 -3
      vertex -10 -23 -3
    endloop
  endfacet
  facet normal 0.707107 0 -0.707107
    outer loop
      vertex 20 23 46.95
      vertex 10 33 36.95
      vertex 20 33 46.95
    endloop
  endfacet
  facet normal 0.707107 0 -0.707107
    outer loop
      vertex 10 33 36.95
      vertex 20 23 46.95
      vertex 10 23 36.95
    endloop
  endfacet
  facet normal -0.707107 0 -0.707107
    outer loop
      vertex -10 23 36.95
      vertex -20 33 46.95
      vertex -10 33 36.95
    endloop
  endfacet
  facet normal -0.707107 -0 -0.707107
    outer loop
      vertex -20 33 46.95
      vertex -10 23 36.95
      vertex -20 23 46.95
    endloop
  endfacet
  facet normal 0 0 1
    outer loop
      vertex 10 23 3
      vertex 6 5.5 3
      vertex 10 -23 3
    endloop
  endfacet
  facet normal 0 0 1
    outer loop
      vertex 10 23 3
      vertex -6 5.5 3
      vertex 6 5.5 3
    endloop
  endfacet
  facet normal 0 0 1
    outer loop
      vertex -10 -23 3
      vertex -6 5.5 3
      vertex -10 23 3
    endloop
  endfacet
  facet normal -0 0 1
    outer loop
      vertex -10 23 3
      vertex -6 5.5 3
      vertex 10 23 3
    endloop
  endfacet
  facet normal -0 0 1
    outer loop
      vertex 6 -19.5 3
      vertex 10 -23 3
      vertex 6 5.5 3
    endloop
  endfacet
  facet normal -0 0 1
    outer loop
      vertex -6 -19.5 3
      vertex 10 -23 3
      vertex 6 -19.5 3
    endloop
  endfacet
  facet normal 0 0 1
    outer loop
      vertex -6 -19.5 3
      vertex -10 -23 3
      vertex 10 -23 3
    endloop
  endfacet
  facet normal 0 0 1
    outer loop
      vertex -6 5.5 3
      vertex -10 -23 3
      vertex -6 -19.5 3
    endloop
  endfacet
  facet normal 0 -1 0
    outer loop
      vertex -10 -23 3
      vertex -6 -23 0
      vertex 10 -23 3
    endloop
  endfacet
  facet normal 0 -1 0
    outer loop
      vertex -10 -23 -3
      vertex -6 -23 0
      vertex -10 -23 3
    endloop
  endfacet
  facet normal 0 -1 -0
    outer loop
      vertex -6 -23 0
      vertex -10 -23 -3
      vertex -6 -23 -3
    endloop
  endfacet
  facet normal 0 -1 0
    outer loop
      vertex 6 -23 0
      vertex 10 -23 3
      vertex -6 -23 0
    endloop
  endfacet
  facet normal 0 -1 0
    outer loop
      vertex 10 -23 -3
      vertex 6 -23 0
      vertex 6 -23 -3
    endloop
  endfacet
  facet normal 0 -1 0
    outer loop
      vertex 6 -23 0
      vertex 10 -23 -3
      vertex 10 -23 3
    endloop
  endfacet
  facet normal 1 0 0
    outer loop
      vertex -6 -19.5 0
      vertex -6 5.5 3
      vertex -6 -19.5 3
    endloop
  endfacet
  facet normal 1 0 0
    outer loop
      vertex -6 5.5 3
      vertex -6 -19.5 0
      vertex -6 5.5 -3
    endloop
  endfacet
  facet normal 1 0 0
    outer loop
      vertex -6 -23 -3
      vertex -6 -19.5 0
      vertex -6 -23 0
    endloop
  endfacet
  facet normal 1 0 0
    outer loop
      vertex -6 -19.5 0
      vertex -6 -23 -3
      vertex -6 5.5 -3
    endloop
  endfacet
  facet normal -1 0 0
    outer loop
      vertex 6 5.5 -3
      vertex 6 -19.5 0
      vertex 6 5.5 3
    endloop
  endfacet
  facet normal -1 0 0
    outer loop
      vertex 6 -23 -3
      vertex 6 -19.5 0
      vertex 6 5.5 -3
    endloop
  endfacet
  facet normal -1 -0 0
    outer loop
      vertex 6 -19.5 0
      vertex 6 -23 -3
      vertex 6 -23 0
    endloop
  endfacet
  facet normal -1 -0 0
    outer loop
      vertex 6 5.5 3
      vertex 6 -19.5 0
      vertex 6 -19.5 3
    endloop
  endfacet
  facet normal 0 -1 0
    outer loop
      vertex -6 5.5 -3
      vertex 6 5.5 3
      vertex -6 5.5 3
    endloop
  endfacet
  facet normal 0 -1 -0
    outer loop
      vertex 6 5.5 3
      vertex -6 5.5 -3
      vertex 6 5.5 -3
    endloop
  endfacet
  facet normal 0 1 -0
    outer loop
      vertex 6 -19.5 0
      vertex -6 -19.5 3
      vertex 6 -19.5 3
    endloop
  endfacet
  facet normal 0 1 0
    outer loop
      vertex -6 -19.5 3
      vertex 6 -19.5 0
      vertex -6 -19.5 0
    endloop
  endfacet
  facet normal 0 0 -1
    outer loop
      vertex -6 -23 0
      vertex 6 -19.5 0
      vertex 6 -23 0
    endloop
  endfacet
  facet normal -0 0 -1
    outer loop
      vertex 6 -19.5 0
      vertex -6 -23 0
      vertex -6 -19.5 0
    endloop
  endfacet
endsolid OpenSCAD_Model
