solid OpenSCAD_Model
  facet normal 0 0 1
    outer loop
      vertex -20 -6 18
      vertex -6.05757 -2 18
      vertex -20 -2 18
    endloop
  endfacet
  facet normal 0 0 1
    outer loop
      vertex -6.05757 -2 18
      vertex -20 -6 18
      vertex -5.81125 -2.79855 18
    endloop
  endfacet
  facet normal 0 0 1
    outer loop
      vertex -5.81125 -2.79855 18
      vertex -20 -6 18
      vertex -4.72818 -4.38711 18
    endloop
  endfacet
  facet normal 0 0 1
    outer loop
      vertex -4.72818 -4.38711 18
      vertex -20 -6 18
      vertex -3.225 -5.58586 18
    endloop
  endfacet
  facet normal 0 0 1
    outer loop
      vertex -3.225 -5.58586 18
      vertex -20 -6 18
      vertex -2.1698 -6 18
    endloop
  endfacet
  facet normal 0 0 1
    outer loop
      vertex 20 6 18
      vertex 6.11585 2 18
      vertex 20 2 18
    endloop
  endfacet
  facet normal 0 0 1
    outer loop
      vertex 20 6 18
      vertex 5.32924 3.63341 18
      vertex 6.11585 2 18
    endloop
  endfacet
  facet normal 0 0 1
    outer loop
      vertex 20 6 18
      vertex 4.02151 5.04281 18
      vertex 5.32924 3.63341 18
    endloop
  endfacet
  facet normal 0 -0 1
    outer loop
      vertex 4.02151 5.04281 18
      vertex 20 6 18
      vertex 2.36361 6 18
    endloop
  endfacet
  facet normal 1 -0 0
    outer loop
      vertex 20 2 18
      vertex 20 6 16
      vertex 20 6 18
    endloop
  endfacet
  facet normal 1 0 0
    outer loop
      vertex 20 6 16
      vertex 20 2 18
      vertex 20 2 16
    endloop
  endfacet
  facet normal 0 1 -0
    outer loop
      vertex 20 6 16
      vertex 2.36361 6 18
      vertex 20 6 18
    endloop
  endfacet
  facet normal 0 1 0
    outer loop
      vertex 2.36361 6 18
      vertex 20 6 16
      vertex 2.36361 6 16
    endloop
  endfacet
  facet normal 0 -1 0
    outer loop
      vertex 6.11585 2 16
      vertex 20 2 18
      vertex 6.11585 2 18
    endloop
  endfacet
  facet normal 0 -1 -0
    outer loop
      vertex 20 2 18
      vertex 6.11585 2 16
      vertex 20 2 16
    endloop
  endfacet
  facet normal 0 -0.242536 0.970143
    outer loop
      vertex 6.11585 -2 17
      vertex 20 -6 16
      vertex 20 -2 17
    endloop
  endfacet
  facet normal -3.58257e-008 -0.242536 0.970142
    outer loop
      vertex 5.32924 -3.63341 16.5916
      vertex 20 -6 16
      vertex 6.11585 -2 17
    endloop
  endfacet
  facet normal -8.27942e-008 -0.242536 0.970142
    outer loop
      vertex 4.02151 -5.04281 16.2393
      vertex 20 -6 16
      vertex 5.32924 -3.63341 16.5916
    endloop
  endfacet
  facet normal 0 -0.242535 0.970143
    outer loop
      vertex 20 -6 16
      vertex 4.02151 -5.04281 16.2393
      vertex 2.36361 -6 16
    endloop
  endfacet
  facet normal -0 0 1
    outer loop
      vertex 6.16362 -1.9 17
      vertex 20 -2 17
      vertex 20 -1.9 17
    endloop
  endfacet
  facet normal -0 0 1
    outer loop
      vertex 6.16344 -1.90117 17
      vertex 20 -2 17
      vertex 6.16362 -1.9 17
    endloop
  endfacet
  facet normal 0 0 1
    outer loop
      vertex 20 -2 17
      vertex 6.16344 -1.90117 17
      vertex 6.11585 -2 17
    endloop
  endfacet
  facet normal 0 1 -0
    outer loop
      vertex 20 -1.9 16
      vertex 6.16362 -1.9 17
      vertex 20 -1.9 17
    endloop
  endfacet
  facet normal 0 1 0
    outer loop
      vertex 6.16362 -1.9 17
      vertex 20 -1.9 16
      vertex 6.16362 -1.9 16
    endloop
  endfacet
  facet normal 1 -0 0
    outer loop
      vertex 20 -2 17
      vertex 20 -1.9 16
      vertex 20 -1.9 17
    endloop
  endfacet
  facet normal 1 0 0
    outer loop
      vertex 20 -1.9 16
      vertex 20 -2 17
      vertex 20 -6 16
    endloop
  endfacet
  facet normal -1 0 0
    outer loop
      vertex -20 -6 16
      vertex -20 -2 18
      vertex -20 -2 16
    endloop
  endfacet
  facet normal -1 -0 0
    outer loop
      vertex -20 -2 18
      vertex -20 -6 16
      vertex -20 -6 18
    endloop
  endfacet
  facet normal 5.13006e-008 1 -0
    outer loop
      vertex -6.05757 -2 16
      vertex -20 -2 18
      vertex -6.05757 -2 18
    endloop
  endfacet
  facet normal 5.13006e-008 1 0
    outer loop
      vertex -20 -2 18
      vertex -6.05757 -2 16
      vertex -20 -2 16
    endloop
  endfacet
  facet normal -5.34865e-008 -1 0
    outer loop
      vertex -20 -6 16
      vertex -2.1698 -6 18
      vertex -20 -6 18
    endloop
  endfacet
  facet normal -5.34865e-008 -1 -0
    outer loop
      vertex -2.1698 -6 18
      vertex -20 -6 16
      vertex -2.1698 -6 16
    endloop
  endfacet
  facet normal 0 -1 0
    outer loop
      vertex -20 1.9 16
      vertex -6.08841 1.9 17
      vertex -20 1.9 17
    endloop
  endfacet
  facet normal 0 -1 -0
    outer loop
      vertex -6.08841 1.9 17
      vertex -20 1.9 16
      vertex -6.08841 1.9 16
    endloop
  endfacet
  facet normal -0 0 1
    outer loop
      vertex -20 2 17
      vertex -6.08841 1.9 17
      vertex -6.05757 2 17
    endloop
  endfacet
  facet normal 0 0 1
    outer loop
      vertex -6.08841 1.9 17
      vertex -20 2 17
      vertex -20 1.9 17
    endloop
  endfacet
  facet normal -0 0.242537 0.970142
    outer loop
      vertex -20 6 16
      vertex -3.225 5.58586 16.1035
      vertex -2.1698 6 16
    endloop
  endfacet
  facet normal -4.52306e-008 0.242535 0.970143
    outer loop
      vertex -20 6 16
      vertex -4.72818 4.38711 16.4032
      vertex -3.225 5.58586 16.1035
    endloop
  endfacet
  facet normal -4.32635e-010 0.242535 0.970143
    outer loop
      vertex -20 6 16
      vertex -5.81125 2.79855 16.8004
      vertex -4.72818 4.38711 16.4032
    endloop
  endfacet
  facet normal 3.05372e-007 0.242537 0.970142
    outer loop
      vertex -20 6 16
      vertex -6.05757 2 17
      vertex -5.81125 2.79855 16.8004
    endloop
  endfacet
  facet normal 0 0.242536 0.970143
    outer loop
      vertex -6.05757 2 17
      vertex -20 6 16
      vertex -20 2 17
    endloop
  endfacet
  facet normal -1 0 0
    outer loop
      vertex -20 1.9 16
      vertex -20 2 17
      vertex -20 6 16
    endloop
  endfacet
  facet normal -1 -0 0
    outer loop
      vertex -20 2 17
      vertex -20 1.9 16
      vertex -20 1.9 17
    endloop
  endfacet
  facet normal 0.994522 0.104529 0
    outer loop
      vertex 21.75 0 16
      vertex 21.2747 4.52208 14
      vertex 21.2747 4.52208 16
    endloop
  endfacet
  facet normal 0.994522 0.104529 0
    outer loop
      vertex 21.2747 4.52208 14
      vertex 21.75 0 16
      vertex 21.75 0 14
    endloop
  endfacet
  facet normal -0.994522 0.104529 0
    outer loop
      vertex -21.75 0 14
      vertex -21.2747 4.52208 16
      vertex -21.2747 4.52208 14
    endloop
  endfacet
  facet normal -0.994522 0.104529 0
    outer loop
      vertex -21.2747 4.52208 16
      vertex -21.75 0 14
      vertex -21.75 0 16
    endloop
  endfacet
  facet normal 0 1 -0
    outer loop
      vertex 2.27349 21.6309 14
      vertex -2.27349 21.6309 16
      vertex 2.27349 21.6309 16
    endloop
  endfacet
  facet normal 0 1 0
    outer loop
      vertex -2.27349 21.6309 16
      vertex 2.27349 21.6309 14
      vertex -2.27349 21.6309 14
    endloop
  endfacet
  facet normal 0.587785 0.809017 -0
    outer loop
      vertex 14.5536 16.1634 14
      vertex 10.875 18.8361 16
      vertex 14.5536 16.1634 16
    endloop
  endfacet
  facet normal 0.587785 0.809017 0
    outer loop
      vertex 10.875 18.8361 16
      vertex 14.5536 16.1634 14
      vertex 10.875 18.8361 14
    endloop
  endfacet
  facet normal 0.406737 0.913546 -0
    outer loop
      vertex 10.875 18.8361 14
      vertex 6.72112 20.6855 16
      vertex 10.875 18.8361 16
    endloop
  endfacet
  facet normal 0.406737 0.913546 0
    outer loop
      vertex 6.72112 20.6855 16
      vertex 10.875 18.8361 14
      vertex 6.72112 20.6855 14
    endloop
  endfacet
  facet normal -0.587785 0.809017 0
    outer loop
      vertex -10.875 18.8361 14
      vertex -14.5536 16.1634 16
      vertex -10.875 18.8361 16
    endloop
  endfacet
  facet normal -0.587785 0.809017 0
    outer loop
      vertex -14.5536 16.1634 16
      vertex -10.875 18.8361 14
      vertex -14.5536 16.1634 14
    endloop
  endfacet
  facet normal -0.207912 0.978148 0
    outer loop
      vertex -2.27349 21.6309 14
      vertex -6.72112 20.6855 16
      vertex -2.27349 21.6309 16
    endloop
  endfacet
  facet normal -0.207912 0.978148 0
    outer loop
      vertex -6.72112 20.6855 16
      vertex -2.27349 21.6309 14
      vertex -6.72112 20.6855 14
    endloop
  endfacet
  facet normal 0.866025 -0.5 0
    outer loop
      vertex 17.5961 -12.7843 16
      vertex 19.8696 -8.84652 14
      vertex 19.8696 -8.84652 16
    endloop
  endfacet
  facet normal 0.866025 -0.5 0
    outer loop
      vertex 19.8696 -8.84652 14
      vertex 17.5961 -12.7843 16
      vertex 17.5961 -12.7843 14
    endloop
  endfacet
  facet normal 0.866025 0.5 0
    outer loop
      vertex 19.8696 8.84652 16
      vertex 17.5961 12.7843 14
      vertex 17.5961 12.7843 16
    endloop
  endfacet
  facet normal 0.866025 0.5 0
    outer loop
      vertex 17.5961 12.7843 14
      vertex 19.8696 8.84652 16
      vertex 19.8696 8.84652 14
    endloop
  endfacet
  facet normal 0.951057 0.309017 0
    outer loop
      vertex 21.2747 4.52208 16
      vertex 19.8696 8.84652 14
      vertex 19.8696 8.84652 16
    endloop
  endfacet
  facet normal 0.951057 0.309017 0
    outer loop
      vertex 19.8696 8.84652 14
      vertex 21.2747 4.52208 16
      vertex 21.2747 4.52208 14
    endloop
  endfacet
  facet normal 0.743145 0.669131 0
    outer loop
      vertex 17.5961 12.7843 16
      vertex 14.5536 16.1634 14
      vertex 14.5536 16.1634 16
    endloop
  endfacet
  facet normal 0.743145 0.669131 0
    outer loop
      vertex 14.5536 16.1634 14
      vertex 17.5961 12.7843 16
      vertex 17.5961 12.7843 14
    endloop
  endfacet
  facet normal 0.207912 0.978148 -0
    outer loop
      vertex 6.72112 20.6855 14
      vertex 2.27349 21.6309 16
      vertex 6.72112 20.6855 16
    endloop
  endfacet
  facet normal 0.207912 0.978148 0
    outer loop
      vertex 2.27349 21.6309 16
      vertex 6.72112 20.6855 14
      vertex 2.27349 21.6309 14
    endloop
  endfacet
  facet normal -0.866025 0.5 0
    outer loop
      vertex -19.8696 8.84652 14
      vertex -17.5961 12.7843 16
      vertex -17.5961 12.7843 14
    endloop
  endfacet
  facet normal -0.866025 0.5 0
    outer loop
      vertex -17.5961 12.7843 16
      vertex -19.8696 8.84652 14
      vertex -19.8696 8.84652 16
    endloop
  endfacet
  facet normal -0.743145 0.669131 0
    outer loop
      vertex -17.5961 12.7843 14
      vertex -14.5536 16.1634 16
      vertex -14.5536 16.1634 14
    endloop
  endfacet
  facet normal -0.743145 0.669131 0
    outer loop
      vertex -14.5536 16.1634 16
      vertex -17.5961 12.7843 14
      vertex -17.5961 12.7843 16
    endloop
  endfacet
  facet normal -0.951057 0.309017 0
    outer loop
      vertex -21.2747 4.52208 14
      vertex -19.8696 8.84652 16
      vertex -19.8696 8.84652 14
    endloop
  endfacet
  facet normal -0.951057 0.309017 0
    outer loop
      vertex -19.8696 8.84652 16
      vertex -21.2747 4.52208 14
      vertex -21.2747 4.52208 16
    endloop
  endfacet
  facet normal 0 0 1
    outer loop
      vertex -6.37796 0.961322 16
      vertex -20 1.9 16
      vertex -6.37796 -0.961322 16
    endloop
  endfacet
  facet normal -0 0 1
    outer loop
      vertex -20 1.9 16
      vertex -6.37796 0.961322 16
      vertex -6.08841 1.9 16
    endloop
  endfacet
  facet normal 0 0 1
    outer loop
      vertex -2 -6.06664 16
      vertex -2.1698 -6 16
      vertex -2 -10.75 16
    endloop
  endfacet
  facet normal 0 0 1
    outer loop
      vertex 2.27349 21.6309 16
      vertex -2 10.75 16
      vertex 2 10.75 16
    endloop
  endfacet
  facet normal 0 0 1
    outer loop
      vertex -2 10.75 16
      vertex -2.1698 6 16
      vertex -2 6.06664 16
    endloop
  endfacet
  facet normal -0 0 1
    outer loop
      vertex -2.27349 21.6309 16
      vertex -2 10.75 16
      vertex 2.27349 21.6309 16
    endloop
  endfacet
  facet normal -0 0 1
    outer loop
      vertex -6.72112 20.6855 16
      vertex -2 10.75 16
      vertex -2.27349 21.6309 16
    endloop
  endfacet
  facet normal -0 0 1
    outer loop
      vertex -10.875 18.8361 16
      vertex -2 10.75 16
      vertex -6.72112 20.6855 16
    endloop
  endfacet
  facet normal -0 0 1
    outer loop
      vertex -14.5536 16.1634 16
      vertex -2 10.75 16
      vertex -10.875 18.8361 16
    endloop
  endfacet
  facet normal -0 0 1
    outer loop
      vertex -17.5961 12.7843 16
      vertex -2 10.75 16
      vertex -14.5536 16.1634 16
    endloop
  endfacet
  facet normal 0 0 1
    outer loop
      vertex -2 10.75 16
      vertex -17.5961 12.7843 16
      vertex -2.1698 6 16
    endloop
  endfacet
  facet normal 0 0 1
    outer loop
      vertex -20 6 16
      vertex -17.5961 12.7843 16
      vertex -19.8696 8.84652 16
    endloop
  endfacet
  facet normal 0 0 1
    outer loop
      vertex -17.5961 12.7843 16
      vertex -20 6 16
      vertex -2.1698 6 16
    endloop
  endfacet
  facet normal -0 0 1
    outer loop
      vertex -21.2747 4.52208 16
      vertex -20 1.9 16
      vertex -20 6 16
    endloop
  endfacet
  facet normal 0 0 1
    outer loop
      vertex -21.75 0 16
      vertex -20 1.9 16
      vertex -21.2747 4.52208 16
    endloop
  endfacet
  facet normal 0 0 1
    outer loop
      vertex -20 1.9 16
      vertex -21.75 0 16
      vertex -20 -2 16
    endloop
  endfacet
  facet normal 0 0 1
    outer loop
      vertex -21.2747 4.52208 16
      vertex -20 6 16
      vertex -19.8696 8.84652 16
    endloop
  endfacet
  facet normal 0 0 1
    outer loop
      vertex 20 2 16
      vertex 6.45 0 16
      vertex 20 -1.9 16
    endloop
  endfacet
  facet normal 0 0 1
    outer loop
      vertex 20 2 16
      vertex 6.16344 1.90117 16
      vertex 6.45 0 16
    endloop
  endfacet
  facet normal 0 -0 1
    outer loop
      vertex 6.16344 1.90117 16
      vertex 20 2 16
      vertex 6.11585 2 16
    endloop
  endfacet
  facet normal -0 0 1
    outer loop
      vertex 20 2 16
      vertex 21.75 0 16
      vertex 21.2747 4.52208 16
    endloop
  endfacet
  facet normal 0 0 1
    outer loop
      vertex 20 2 16
      vertex 21.2747 4.52208 16
      vertex 20 6 16
    endloop
  endfacet
  facet normal 0 0 1
    outer loop
      vertex 19.8696 8.84652 16
      vertex 20 6 16
      vertex 21.2747 4.52208 16
    endloop
  endfacet
  facet normal 0 0 1
    outer loop
      vertex 17.5961 12.7843 16
      vertex 20 6 16
      vertex 19.8696 8.84652 16
    endloop
  endfacet
  facet normal 0 0 1
    outer loop
      vertex 2 10.75 16
      vertex 17.5961 12.7843 16
      vertex 14.5536 16.1634 16
    endloop
  endfacet
  facet normal 0 0 1
    outer loop
      vertex 2 10.75 16
      vertex 14.5536 16.1634 16
      vertex 10.875 18.8361 16
    endloop
  endfacet
  facet normal 0 0 1
    outer loop
      vertex 2 10.75 16
      vertex 10.875 18.8361 16
      vertex 6.72112 20.6855 16
    endloop
  endfacet
  facet normal 0 0 1
    outer loop
      vertex 17.5961 12.7843 16
      vertex 2 10.75 16
      vertex 2.36361 6 16
    endloop
  endfacet
  facet normal 0 0 1
    outer loop
      vertex 17.5961 12.7843 16
      vertex 2.36361 6 16
      vertex 20 6 16
    endloop
  endfacet
  facet normal 0 0 1
    outer loop
      vertex 2 10.75 16
      vertex 6.72112 20.6855 16
      vertex 2.27349 21.6309 16
    endloop
  endfacet
  facet normal 0 0 1
    outer loop
      vertex 2.36361 6 16
      vertex 2 10.75 16
      vertex 2.35645 6.00414 16
    endloop
  endfacet
  facet normal 0 0 1
    outer loop
      vertex 2.35645 6.00414 16
      vertex 2 10.75 16
      vertex 2 6.08549 16
    endloop
  endfacet
  facet normal 0 0 1
    outer loop
      vertex 21.75 0 16
      vertex 20 2 16
      vertex 20 -1.9 16
    endloop
  endfacet
  facet normal 0 0 1
    outer loop
      vertex 21.75 0 16
      vertex 20 -1.9 16
      vertex 21.2747 -4.52208 16
    endloop
  endfacet
  facet normal 0 0 1
    outer loop
      vertex 20 -6 16
      vertex 21.2747 -4.52208 16
      vertex 20 -1.9 16
    endloop
  endfacet
  facet normal -0 0 1
    outer loop
      vertex 20 -6 16
      vertex 19.8696 -8.84652 16
      vertex 21.2747 -4.52208 16
    endloop
  endfacet
  facet normal 0 0 1
    outer loop
      vertex 20 -6 16
      vertex 17.5961 -12.7843 16
      vertex 19.8696 -8.84652 16
    endloop
  endfacet
  facet normal -0 0 1
    outer loop
      vertex 2.36361 -6 16
      vertex 17.5961 -12.7843 16
      vertex 20 -6 16
    endloop
  endfacet
  facet normal -0 0 1
    outer loop
      vertex 2 -10.75 16
      vertex 17.5961 -12.7843 16
      vertex 2.36361 -6 16
    endloop
  endfacet
  facet normal 0 0 1
    outer loop
      vertex 14.5536 -16.1634 16
      vertex 2 -10.75 16
      vertex 10.875 -18.8361 16
    endloop
  endfacet
  facet normal 0 0 1
    outer loop
      vertex 17.5961 -12.7843 16
      vertex 2 -10.75 16
      vertex 14.5536 -16.1634 16
    endloop
  endfacet
  facet normal 0 0 1
    outer loop
      vertex 2 -10.75 16
      vertex 2.36361 -6 16
      vertex 2.35645 -6.00414 16
    endloop
  endfacet
  facet normal 0 0 1
    outer loop
      vertex 10.875 -18.8361 16
      vertex 2 -10.75 16
      vertex 6.72112 -20.6855 16
    endloop
  endfacet
  facet normal 0 0 1
    outer loop
      vertex 2 -10.75 16
      vertex 2.35645 -6.00414 16
      vertex 2 -6.08549 16
    endloop
  endfacet
  facet normal 0 0 1
    outer loop
      vertex 6.72112 -20.6855 16
      vertex 2 -10.75 16
      vertex 2.27349 -21.6309 16
    endloop
  endfacet
  facet normal -0 0 1
    outer loop
      vertex -2 -10.75 16
      vertex 2.27349 -21.6309 16
      vertex 2 -10.75 16
    endloop
  endfacet
  facet normal 0 0 1
    outer loop
      vertex -2 -10.75 16
      vertex -2.27349 -21.6309 16
      vertex 2.27349 -21.6309 16
    endloop
  endfacet
  facet normal 0 0 1
    outer loop
      vertex -17.5961 -12.7843 16
      vertex -2 -10.75 16
      vertex -2.1698 -6 16
    endloop
  endfacet
  facet normal 0 0 1
    outer loop
      vertex -2 -10.75 16
      vertex -6.72112 -20.6855 16
      vertex -2.27349 -21.6309 16
    endloop
  endfacet
  facet normal 0 0 1
    outer loop
      vertex -2 -10.75 16
      vertex -10.875 -18.8361 16
      vertex -6.72112 -20.6855 16
    endloop
  endfacet
  facet normal 0 0 1
    outer loop
      vertex -2 -10.75 16
      vertex -14.5536 -16.1634 16
      vertex -10.875 -18.8361 16
    endloop
  endfacet
  facet normal 0 0 1
    outer loop
      vertex -2 -10.75 16
      vertex -17.5961 -12.7843 16
      vertex -14.5536 -16.1634 16
    endloop
  endfacet
  facet normal 0 0 1
    outer loop
      vertex -20 -6 16
      vertex -17.5961 -12.7843 16
      vertex -2.1698 -6 16
    endloop
  endfacet
  facet normal 0 0 1
    outer loop
      vertex -17.5961 -12.7843 16
      vertex -20 -6 16
      vertex -19.8696 -8.84652 16
    endloop
  endfacet
  facet normal 0 -0 1
    outer loop
      vertex -21.2747 -4.52208 16
      vertex -20 -2 16
      vertex -21.75 0 16
    endloop
  endfacet
  facet normal 0 0 1
    outer loop
      vertex -20 -6 16
      vertex -21.2747 -4.52208 16
      vertex -19.8696 -8.84652 16
    endloop
  endfacet
  facet normal 0 0 1
    outer loop
      vertex -20 -2 16
      vertex -21.2747 -4.52208 16
      vertex -20 -6 16
    endloop
  endfacet
  facet normal 0 0 1
    outer loop
      vertex 20 -1.9 16
      vertex 6.45 0 16
      vertex 6.16362 -1.9 16
    endloop
  endfacet
  facet normal 0 0 1
    outer loop
      vertex -20 -2 16
      vertex -6.37796 -0.961322 16
      vertex -20 1.9 16
    endloop
  endfacet
  facet normal 0 0 1
    outer loop
      vertex -6.37796 -0.961322 16
      vertex -20 -2 16
      vertex -6.05757 -2 16
    endloop
  endfacet
  facet normal -0.406737 0.913545 0
    outer loop
      vertex -6.72112 20.6855 14
      vertex -10.875 18.8361 16
      vertex -6.72112 20.6855 16
    endloop
  endfacet
  facet normal -0.406737 0.913545 0
    outer loop
      vertex -10.875 18.8361 16
      vertex -6.72112 20.6855 14
      vertex -10.875 18.8361 14
    endloop
  endfacet
  facet normal 0.994522 -0.104529 0
    outer loop
      vertex 21.2747 -4.52208 16
      vertex 21.75 0 14
      vertex 21.75 0 16
    endloop
  endfacet
  facet normal 0.994522 -0.104529 0
    outer loop
      vertex 21.75 0 14
      vertex 21.2747 -4.52208 16
      vertex 21.2747 -4.52208 14
    endloop
  endfacet
  facet normal -0.207912 -0.978148 0
    outer loop
      vertex -6.72112 -20.6855 14
      vertex -2.27349 -21.6309 16
      vertex -6.72112 -20.6855 16
    endloop
  endfacet
  facet normal -0.207912 -0.978148 -0
    outer loop
      vertex -2.27349 -21.6309 16
      vertex -6.72112 -20.6855 14
      vertex -2.27349 -21.6309 14
    endloop
  endfacet
  facet normal 0.207912 -0.978148 0
    outer loop
      vertex 2.27349 -21.6309 14
      vertex 6.72112 -20.6855 16
      vertex 2.27349 -21.6309 16
    endloop
  endfacet
  facet normal 0.207912 -0.978148 0
    outer loop
      vertex 6.72112 -20.6855 16
      vertex 2.27349 -21.6309 14
      vertex 6.72112 -20.6855 14
    endloop
  endfacet
  facet normal 0.587785 -0.809017 0
    outer loop
      vertex 10.875 -18.8361 14
      vertex 14.5536 -16.1634 16
      vertex 10.875 -18.8361 16
    endloop
  endfacet
  facet normal 0.587785 -0.809017 0
    outer loop
      vertex 14.5536 -16.1634 16
      vertex 10.875 -18.8361 14
      vertex 14.5536 -16.1634 14
    endloop
  endfacet
  facet normal 0.743145 -0.669131 0
    outer loop
      vertex 14.5536 -16.1634 16
      vertex 17.5961 -12.7843 14
      vertex 17.5961 -12.7843 16
    endloop
  endfacet
  facet normal 0.743145 -0.669131 0
    outer loop
      vertex 17.5961 -12.7843 14
      vertex 14.5536 -16.1634 16
      vertex 14.5536 -16.1634 14
    endloop
  endfacet
  facet normal 0.951057 -0.309017 0
    outer loop
      vertex 19.8696 -8.84652 16
      vertex 21.2747 -4.52208 14
      vertex 21.2747 -4.52208 16
    endloop
  endfacet
  facet normal 0.951057 -0.309017 0
    outer loop
      vertex 21.2747 -4.52208 14
      vertex 19.8696 -8.84652 16
      vertex 19.8696 -8.84652 14
    endloop
  endfacet
  facet normal -0.406737 -0.913546 0
    outer loop
      vertex -10.875 -18.8361 14
      vertex -6.72112 -20.6855 16
      vertex -10.875 -18.8361 16
    endloop
  endfacet
  facet normal -0.406737 -0.913546 -0
    outer loop
      vertex -6.72112 -20.6855 16
      vertex -10.875 -18.8361 14
      vertex -6.72112 -20.6855 14
    endloop
  endfacet
  facet normal -0.866025 -0.5 0
    outer loop
      vertex -17.5961 -12.7843 14
      vertex -19.8696 -8.84652 16
      vertex -19.8696 -8.84652 14
    endloop
  endfacet
  facet normal -0.866025 -0.5 0
    outer loop
      vertex -19.8696 -8.84652 16
      vertex -17.5961 -12.7843 14
      vertex -17.5961 -12.7843 16
    endloop
  endfacet
  facet normal -0.994522 -0.104529 0
    outer loop
      vertex -21.2747 -4.52208 14
      vertex -21.75 0 16
      vertex -21.75 0 14
    endloop
  endfacet
  facet normal -0.994522 -0.104529 0
    outer loop
      vertex -21.75 0 16
      vertex -21.2747 -4.52208 14
      vertex -21.2747 -4.52208 16
    endloop
  endfacet
  facet normal -0.951057 -0.309017 0
    outer loop
      vertex -19.8696 -8.84652 14
      vertex -21.2747 -4.52208 16
      vertex -21.2747 -4.52208 14
    endloop
  endfacet
  facet normal -0.951057 -0.309017 0
    outer loop
      vertex -21.2747 -4.52208 16
      vertex -19.8696 -8.84652 14
      vertex -19.8696 -8.84652 16
    endloop
  endfacet
  facet normal 0.406737 -0.913546 0
    outer loop
      vertex 6.72112 -20.6855 14
      vertex 10.875 -18.8361 16
      vertex 6.72112 -20.6855 16
    endloop
  endfacet
  facet normal 0.406737 -0.913546 0
    outer loop
      vertex 10.875 -18.8361 16
      vertex 6.72112 -20.6855 14
      vertex 10.875 -18.8361 14
    endloop
  endfacet
  facet normal 0 -1 0
    outer loop
      vertex -2.27349 -21.6309 14
      vertex 2.27349 -21.6309 16
      vertex -2.27349 -21.6309 16
    endloop
  endfacet
  facet normal 0 -1 -0
    outer loop
      vertex 2.27349 -21.6309 16
      vertex -2.27349 -21.6309 14
      vertex 2.27349 -21.6309 14
    endloop
  endfacet
  facet normal -0.587785 -0.809017 0
    outer loop
      vertex -14.5536 -16.1634 14
      vertex -10.875 -18.8361 16
      vertex -14.5536 -16.1634 16
    endloop
  endfacet
  facet normal -0.587785 -0.809017 -0
    outer loop
      vertex -10.875 -18.8361 16
      vertex -14.5536 -16.1634 14
      vertex -10.875 -18.8361 14
    endloop
  endfacet
  facet normal -0.743145 -0.669131 0
    outer loop
      vertex -14.5536 -16.1634 14
      vertex -17.5961 -12.7843 16
      vertex -17.5961 -12.7843 14
    endloop
  endfacet
  facet normal -0.743145 -0.669131 0
    outer loop
      vertex -17.5961 -12.7843 16
      vertex -14.5536 -16.1634 14
      vertex -14.5536 -16.1634 16
    endloop
  endfacet
  facet normal 0 0 -1
    outer loop
      vertex -3.225 5.58586 14
      vertex -2 10.75 14
      vertex -2 6.06664 14
    endloop
  endfacet
  facet normal 0 0 -1
    outer loop
      vertex -4.72818 4.38711 14
      vertex -2 10.75 14
      vertex -3.225 5.58586 14
    endloop
  endfacet
  facet normal -0 0 -1
    outer loop
      vertex -2 10.75 14
      vertex -4.72818 4.38711 14
      vertex -14.5536 16.1634 14
    endloop
  endfacet
  facet normal 0 0 -1
    outer loop
      vertex -17.5961 12.7843 14
      vertex -4.72818 4.38711 14
      vertex -5.81125 2.79855 14
    endloop
  endfacet
  facet normal 0 0 -1
    outer loop
      vertex -21.2747 4.52208 14
      vertex -5.81125 2.79855 14
      vertex -6.37796 0.961322 14
    endloop
  endfacet
  facet normal 0 0 -1
    outer loop
      vertex -2 10.75 14
      vertex -6.72112 20.6855 14
      vertex -2.27349 21.6309 14
    endloop
  endfacet
  facet normal -0 0 -1
    outer loop
      vertex -4.72818 -4.38711 14
      vertex -17.5961 -12.7843 14
      vertex -5.81125 -2.79855 14
    endloop
  endfacet
  facet normal 0 0 -1
    outer loop
      vertex -2 10.75 14
      vertex -10.875 18.8361 14
      vertex -6.72112 20.6855 14
    endloop
  endfacet
  facet normal 0 0 -1
    outer loop
      vertex -19.8696 -8.84652 14
      vertex -5.81125 -2.79855 14
      vertex -17.5961 -12.7843 14
    endloop
  endfacet
  facet normal 0 0 -1
    outer loop
      vertex -21.2747 -4.52208 14
      vertex -5.81125 -2.79855 14
      vertex -19.8696 -8.84652 14
    endloop
  endfacet
  facet normal 0 0 -1
    outer loop
      vertex -2 10.75 14
      vertex -14.5536 16.1634 14
      vertex -10.875 18.8361 14
    endloop
  endfacet
  facet normal -0 0 -1
    outer loop
      vertex -5.81125 -2.79855 14
      vertex -21.2747 -4.52208 14
      vertex -6.37796 -0.961322 14
    endloop
  endfacet
  facet normal 0 0 -1
    outer loop
      vertex -4.72818 4.38711 14
      vertex -17.5961 12.7843 14
      vertex -14.5536 16.1634 14
    endloop
  endfacet
  facet normal 0 0 -1
    outer loop
      vertex -21.75 0 14
      vertex -6.37796 -0.961322 14
      vertex -21.2747 -4.52208 14
    endloop
  endfacet
  facet normal 0 0 -1
    outer loop
      vertex -5.81125 2.79855 14
      vertex -19.8696 8.84652 14
      vertex -17.5961 12.7843 14
    endloop
  endfacet
  facet normal 0 0 -1
    outer loop
      vertex -6.37796 -0.961322 14
      vertex -21.75 0 14
      vertex -6.37796 0.961322 14
    endloop
  endfacet
  facet normal 0 0 -1
    outer loop
      vertex -5.81125 2.79855 14
      vertex -21.2747 4.52208 14
      vertex -19.8696 8.84652 14
    endloop
  endfacet
  facet normal -0 0 -1
    outer loop
      vertex -6.37796 0.961322 14
      vertex -21.75 0 14
      vertex -21.2747 4.52208 14
    endloop
  endfacet
  facet normal 0 0 -1
    outer loop
      vertex 2.27349 -21.6309 14
      vertex -2 -10.75 14
      vertex 2 -10.75 14
    endloop
  endfacet
  facet normal 0 0 -1
    outer loop
      vertex -2.27349 -21.6309 14
      vertex -2 -10.75 14
      vertex 2.27349 -21.6309 14
    endloop
  endfacet
  facet normal 0 0 -1
    outer loop
      vertex -6.72112 -20.6855 14
      vertex -2 -10.75 14
      vertex -2.27349 -21.6309 14
    endloop
  endfacet
  facet normal 0 0 -1
    outer loop
      vertex -10.875 -18.8361 14
      vertex -2 -10.75 14
      vertex -6.72112 -20.6855 14
    endloop
  endfacet
  facet normal 0 0 -1
    outer loop
      vertex -2 -10.75 14
      vertex -3.225 -5.58586 14
      vertex -2 -6.06664 14
    endloop
  endfacet
  facet normal 0 0 -1
    outer loop
      vertex -2 -10.75 14
      vertex -4.72818 -4.38711 14
      vertex -3.225 -5.58586 14
    endloop
  endfacet
  facet normal 0 0 -1
    outer loop
      vertex -14.5536 -16.1634 14
      vertex -2 -10.75 14
      vertex -10.875 -18.8361 14
    endloop
  endfacet
  facet normal 0 0 -1
    outer loop
      vertex -17.5961 -12.7843 14
      vertex -4.72818 -4.38711 14
      vertex -14.5536 -16.1634 14
    endloop
  endfacet
  facet normal -0 0 -1
    outer loop
      vertex -2 -10.75 14
      vertex -14.5536 -16.1634 14
      vertex -4.72818 -4.38711 14
    endloop
  endfacet
  facet normal 0 0 -1
    outer loop
      vertex 6.45 0 14
      vertex 21.75 0 14
      vertex 21.2747 -4.52208 14
    endloop
  endfacet
  facet normal 0 0 -1
    outer loop
      vertex 6.16344 -1.90117 14
      vertex 21.2747 -4.52208 14
      vertex 19.8696 -8.84652 14
    endloop
  endfacet
  facet normal 0 0 -1
    outer loop
      vertex 21.75 0 14
      vertex 6.45 0 14
      vertex 21.2747 4.52208 14
    endloop
  endfacet
  facet normal 0 0 -1
    outer loop
      vertex 5.32924 -3.63341 14
      vertex 19.8696 -8.84652 14
      vertex 17.5961 -12.7843 14
    endloop
  endfacet
  facet normal 0 0 -1
    outer loop
      vertex 6.16344 1.90117 14
      vertex 21.2747 4.52208 14
      vertex 6.45 0 14
    endloop
  endfacet
  facet normal 0 0 -1
    outer loop
      vertex 5.32924 -3.63341 14
      vertex 17.5961 -12.7843 14
      vertex 14.5536 -16.1634 14
    endloop
  endfacet
  facet normal -0 0 -1
    outer loop
      vertex 21.2747 4.52208 14
      vertex 6.16344 1.90117 14
      vertex 19.8696 8.84652 14
    endloop
  endfacet
  facet normal 0 0 -1
    outer loop
      vertex 2 -10.75 14
      vertex 14.5536 -16.1634 14
      vertex 10.875 -18.8361 14
    endloop
  endfacet
  facet normal 0 0 -1
    outer loop
      vertex 5.32924 3.63341 14
      vertex 19.8696 8.84652 14
      vertex 6.16344 1.90117 14
    endloop
  endfacet
  facet normal 0 0 -1
    outer loop
      vertex 2 -10.75 14
      vertex 10.875 -18.8361 14
      vertex 6.72112 -20.6855 14
    endloop
  endfacet
  facet normal -0 0 -1
    outer loop
      vertex 19.8696 8.84652 14
      vertex 5.32924 3.63341 14
      vertex 17.5961 12.7843 14
    endloop
  endfacet
  facet normal -0 0 -1
    outer loop
      vertex 17.5961 12.7843 14
      vertex 5.32924 3.63341 14
      vertex 14.5536 16.1634 14
    endloop
  endfacet
  facet normal 0 0 -1
    outer loop
      vertex 21.2747 -4.52208 14
      vertex 6.16344 -1.90117 14
      vertex 6.45 0 14
    endloop
  endfacet
  facet normal 0 0 -1
    outer loop
      vertex 19.8696 -8.84652 14
      vertex 5.32924 -3.63341 14
      vertex 6.16344 -1.90117 14
    endloop
  endfacet
  facet normal 0 0 -1
    outer loop
      vertex 14.5536 -16.1634 14
      vertex 2 -10.75 14
      vertex 4.02151 -5.04281 14
    endloop
  endfacet
  facet normal 0 0 -1
    outer loop
      vertex 14.5536 -16.1634 14
      vertex 4.02151 -5.04281 14
      vertex 5.32924 -3.63341 14
    endloop
  endfacet
  facet normal 0 0 -1
    outer loop
      vertex 2 -10.75 14
      vertex 6.72112 -20.6855 14
      vertex 2.27349 -21.6309 14
    endloop
  endfacet
  facet normal 0 0 -1
    outer loop
      vertex 4.02151 -5.04281 14
      vertex 2 -10.75 14
      vertex 2.35645 -6.00414 14
    endloop
  endfacet
  facet normal 0 0 -1
    outer loop
      vertex 2.35645 -6.00414 14
      vertex 2 -10.75 14
      vertex 2 -6.08549 14
    endloop
  endfacet
  facet normal 0 0 -1
    outer loop
      vertex 4.02151 5.04281 14
      vertex 14.5536 16.1634 14
      vertex 5.32924 3.63341 14
    endloop
  endfacet
  facet normal 0 0 -1
    outer loop
      vertex 2 10.75 14
      vertex 14.5536 16.1634 14
      vertex 4.02151 5.04281 14
    endloop
  endfacet
  facet normal -0 0 -1
    outer loop
      vertex 14.5536 16.1634 14
      vertex 2 10.75 14
      vertex 10.875 18.8361 14
    endloop
  endfacet
  facet normal 0 0 -1
    outer loop
      vertex 2 10.75 14
      vertex 4.02151 5.04281 14
      vertex 2.35645 6.00414 14
    endloop
  endfacet
  facet normal -0 0 -1
    outer loop
      vertex 10.875 18.8361 14
      vertex 2 10.75 14
      vertex 6.72112 20.6855 14
    endloop
  endfacet
  facet normal 0 0 -1
    outer loop
      vertex 2 10.75 14
      vertex 2.35645 6.00414 14
      vertex 2 6.08549 14
    endloop
  endfacet
  facet normal -0 0 -1
    outer loop
      vertex 6.72112 20.6855 14
      vertex 2 10.75 14
      vertex 2.27349 21.6309 14
    endloop
  endfacet
  facet normal 0 0 -1
    outer loop
      vertex -2 10.75 14
      vertex 2.27349 21.6309 14
      vertex 2 10.75 14
    endloop
  endfacet
  facet normal -0 0 -1
    outer loop
      vertex 2.27349 21.6309 14
      vertex -2 10.75 14
      vertex -2.27349 21.6309 14
    endloop
  endfacet
  facet normal 1 -0 0
    outer loop
      vertex -2 -10.75 16
      vertex -2 -6.06664 14
      vertex -2 -6.06664 16
    endloop
  endfacet
  facet normal 1 0 0
    outer loop
      vertex -2 -6.06664 14
      vertex -2 -10.75 16
      vertex -2 -10.75 14
    endloop
  endfacet
  facet normal 1 -0 0
    outer loop
      vertex -2 6.06664 16
      vertex -2 10.75 14
      vertex -2 10.75 16
    endloop
  endfacet
  facet normal 1 0 0
    outer loop
      vertex -2 10.75 14
      vertex -2 6.06664 16
      vertex -2 6.06664 14
    endloop
  endfacet
  facet normal -1 0 0
    outer loop
      vertex 2 -10.75 14
      vertex 2 -6.08549 16
      vertex 2 -6.08549 14
    endloop
  endfacet
  facet normal -1 -0 0
    outer loop
      vertex 2 -6.08549 16
      vertex 2 -10.75 14
      vertex 2 -10.75 16
    endloop
  endfacet
  facet normal -1 0 0
    outer loop
      vertex 2 6.08549 14
      vertex 2 10.75 16
      vertex 2 10.75 14
    endloop
  endfacet
  facet normal -1 -0 0
    outer loop
      vertex 2 10.75 16
      vertex 2 6.08549 14
      vertex 2 6.08549 16
    endloop
  endfacet
  facet normal 0 1 -0
    outer loop
      vertex 2 -10.75 14
      vertex -2 -10.75 16
      vertex 2 -10.75 16
    endloop
  endfacet
  facet normal 0 1 0
    outer loop
      vertex -2 -10.75 16
      vertex 2 -10.75 14
      vertex -2 -10.75 14
    endloop
  endfacet
  facet normal 0 -1 0
    outer loop
      vertex -2 10.75 14
      vertex 2 10.75 16
      vertex -2 10.75 16
    endloop
  endfacet
  facet normal 0 -1 -0
    outer loop
      vertex 2 10.75 16
      vertex -2 10.75 14
      vertex 2 10.75 14
    endloop
  endfacet
  facet normal -0.988831 -0.149042 0
    outer loop
      vertex 6.45 0 14
      vertex 6.16344 1.90117 16
      vertex 6.16344 1.90117 14
    endloop
  endfacet
  facet normal -0.988831 -0.149042 0
    outer loop
      vertex 6.16344 1.90117 16
      vertex 6.45 0 14
      vertex 6.45 0 16
    endloop
  endfacet
  facet normal 1 -0 0
    outer loop
      vertex -6.37796 -0.961322 16
      vertex -6.37796 0.961322 14
      vertex -6.37796 0.961322 16
    endloop
  endfacet
  facet normal 1 0 0
    outer loop
      vertex -6.37796 0.961322 14
      vertex -6.37796 -0.961322 16
      vertex -6.37796 -0.961322 14
    endloop
  endfacet
  facet normal -0.499996 -0.866028 -0
    outer loop
      vertex 2.35645 6.00414 16
      vertex 2.35645 6.00414 14
      vertex 2.36361 6 16
    endloop
  endfacet
  facet normal -0.5 -0.866025 0
    outer loop
      vertex 2.36361 6 16
      vertex 4.02151 5.04281 18
      vertex 2.36361 6 18
    endloop
  endfacet
  facet normal -0.5 -0.866025 1.83761e-008
    outer loop
      vertex 4.02151 5.04281 14
      vertex 2.36361 6 16
      vertex 2.35645 6.00414 14
    endloop
  endfacet
  facet normal -0.5 -0.866025 0
    outer loop
      vertex 2.36361 6 16
      vertex 4.02151 5.04281 14
      vertex 4.02151 5.04281 18
    endloop
  endfacet
  facet normal -0.900969 -0.433884 0
    outer loop
      vertex 5.32924 3.63341 14
      vertex 6.11585 2 16
      vertex 5.32924 3.63341 18
    endloop
  endfacet
  facet normal -0.900969 -0.433884 3.73161e-008
    outer loop
      vertex 6.16344 1.90117 14
      vertex 6.11585 2 16
      vertex 5.32924 3.63341 14
    endloop
  endfacet
  facet normal -0.900969 -0.433883 0
    outer loop
      vertex 6.11585 2 16
      vertex 6.16344 1.90117 14
      vertex 6.16344 1.90117 16
    endloop
  endfacet
  facet normal -0.900969 -0.433884 0
    outer loop
      vertex 5.32924 3.63341 18
      vertex 6.11585 2 16
      vertex 6.11585 2 18
    endloop
  endfacet
  facet normal -0.22252 -0.974928 0
    outer loop
      vertex 2 6.08549 14
      vertex 2.35645 6.00414 16
      vertex 2 6.08549 16
    endloop
  endfacet
  facet normal -0.22252 -0.974928 -0
    outer loop
      vertex 2.35645 6.00414 16
      vertex 2 6.08549 14
      vertex 2.35645 6.00414 14
    endloop
  endfacet
  facet normal 0.826239 -0.56332 0
    outer loop
      vertex -5.81125 2.79855 14
      vertex -4.72818 4.38711 16.4032
      vertex -5.81125 2.79855 16.8004
    endloop
  endfacet
  facet normal 0.826239 -0.56332 0
    outer loop
      vertex -4.72818 4.38711 16.4032
      vertex -5.81125 2.79855 14
      vertex -4.72818 4.38711 14
    endloop
  endfacet
  facet normal 0.955573 -0.294755 -1.00976e-007
    outer loop
      vertex -6.08841 1.9 16
      vertex -5.81125 2.79855 16.8004
      vertex -6.05757 2 17
    endloop
  endfacet
  facet normal 0.955573 -0.294756 0
    outer loop
      vertex -6.08841 1.9 16
      vertex -6.05757 2 17
      vertex -6.08841 1.9 17
    endloop
  endfacet
  facet normal 0.955573 -0.294755 0
    outer loop
      vertex -5.81125 2.79855 16.8004
      vertex -6.08841 1.9 16
      vertex -5.81125 2.79855 14
    endloop
  endfacet
  facet normal 0.955573 -0.294755 0
    outer loop
      vertex -6.37796 0.961322 14
      vertex -6.08841 1.9 16
      vertex -6.37796 0.961322 16
    endloop
  endfacet
  facet normal 0.955573 -0.294755 7.00802e-009
    outer loop
      vertex -6.08841 1.9 16
      vertex -6.37796 0.961322 14
      vertex -5.81125 2.79855 14
    endloop
  endfacet
  facet normal 0.365341 -0.930874 0
    outer loop
      vertex -3.225 5.58586 14
      vertex -2.1698 6 16
      vertex -3.225 5.58586 16.1035
    endloop
  endfacet
  facet normal 0.365341 -0.930874 4.9719e-008
    outer loop
      vertex -2 6.06664 14
      vertex -2.1698 6 16
      vertex -3.225 5.58586 14
    endloop
  endfacet
  facet normal 0.36534 -0.930874 0
    outer loop
      vertex -2.1698 6 16
      vertex -2 6.06664 14
      vertex -2 6.06664 16
    endloop
  endfacet
  facet normal -0.900969 0.433883 0
    outer loop
      vertex 6.16344 -1.90117 14
      vertex 6.11585 -2 17
      vertex 6.16344 -1.90117 17
    endloop
  endfacet
  facet normal -0.900969 0.433884 0
    outer loop
      vertex 5.32924 -3.63341 16.5916
      vertex 6.16344 -1.90117 14
      vertex 5.32924 -3.63341 14
    endloop
  endfacet
  facet normal -0.900969 0.433884 2.61671e-008
    outer loop
      vertex 6.16344 -1.90117 14
      vertex 5.32924 -3.63341 16.5916
      vertex 6.11585 -2 17
    endloop
  endfacet
  facet normal 0.955573 0.294755 0
    outer loop
      vertex -6.05757 -2 18
      vertex -5.81125 -2.79855 18
      vertex -6.05757 -2 16
    endloop
  endfacet
  facet normal 0.955573 0.294755 0
    outer loop
      vertex -6.05757 -2 16
      vertex -6.37796 -0.961322 14
      vertex -6.37796 -0.961322 16
    endloop
  endfacet
  facet normal 0.955573 0.294755 -7.49004e-008
    outer loop
      vertex -6.05757 -2 16
      vertex -5.81125 -2.79855 14
      vertex -6.37796 -0.961322 14
    endloop
  endfacet
  facet normal 0.955573 0.294755 -0
    outer loop
      vertex -5.81125 -2.79855 14
      vertex -6.05757 -2 16
      vertex -5.81125 -2.79855 18
    endloop
  endfacet
  facet normal -0.733052 -0.680173 0
    outer loop
      vertex 5.32924 3.63341 14
      vertex 4.02151 5.04281 18
      vertex 4.02151 5.04281 14
    endloop
  endfacet
  facet normal -0.733052 -0.680173 0
    outer loop
      vertex 4.02151 5.04281 18
      vertex 5.32924 3.63341 14
      vertex 5.32924 3.63341 18
    endloop
  endfacet
  facet normal 0.62349 -0.781831 0
    outer loop
      vertex -4.72818 4.38711 14
      vertex -3.225 5.58586 16.1035
      vertex -4.72818 4.38711 16.4032
    endloop
  endfacet
  facet normal 0.62349 -0.781831 0
    outer loop
      vertex -3.225 5.58586 16.1035
      vertex -4.72818 4.38711 14
      vertex -3.225 5.58586 14
    endloop
  endfacet
  facet normal -0.988831 0.149042 0
    outer loop
      vertex 6.45 0 14
      vertex 6.16362 -1.9 16
      vertex 6.45 0 16
    endloop
  endfacet
  facet normal -0.988831 0.149042 -4.29831e-008
    outer loop
      vertex 6.16344 -1.90117 14
      vertex 6.16362 -1.9 16
      vertex 6.45 0 14
    endloop
  endfacet
  facet normal -0.988842 0.14897 0
    outer loop
      vertex 6.16344 -1.90117 17
      vertex 6.16362 -1.9 16
      vertex 6.16344 -1.90117 14
    endloop
  endfacet
  facet normal -0.988842 0.14897 0
    outer loop
      vertex 6.16362 -1.9 16
      vertex 6.16344 -1.90117 17
      vertex 6.16362 -1.9 17
    endloop
  endfacet
  facet normal -0.22252 0.974928 0
    outer loop
      vertex 2.35645 -6.00414 14
      vertex 2 -6.08549 16
      vertex 2.35645 -6.00414 16
    endloop
  endfacet
  facet normal -0.22252 0.974928 0
    outer loop
      vertex 2 -6.08549 16
      vertex 2.35645 -6.00414 14
      vertex 2 -6.08549 14
    endloop
  endfacet
  facet normal 0.62349 0.781831 -0
    outer loop
      vertex -3.225 -5.58586 14
      vertex -4.72818 -4.38711 18
      vertex -3.225 -5.58586 18
    endloop
  endfacet
  facet normal 0.62349 0.781831 0
    outer loop
      vertex -4.72818 -4.38711 18
      vertex -3.225 -5.58586 14
      vertex -4.72818 -4.38711 14
    endloop
  endfacet
  facet normal 0.826239 0.56332 0
    outer loop
      vertex -4.72818 -4.38711 18
      vertex -5.81125 -2.79855 14
      vertex -5.81125 -2.79855 18
    endloop
  endfacet
  facet normal 0.826239 0.56332 0
    outer loop
      vertex -5.81125 -2.79855 14
      vertex -4.72818 -4.38711 18
      vertex -4.72818 -4.38711 14
    endloop
  endfacet
  facet normal -0.5 0.866025 0
    outer loop
      vertex 4.02151 -5.04281 14
      vertex 2.36361 -6 16
      vertex 4.02151 -5.04281 16.2393
    endloop
  endfacet
  facet normal -0.5 0.866025 1.83761e-008
    outer loop
      vertex 2.35645 -6.00414 14
      vertex 2.36361 -6 16
      vertex 4.02151 -5.04281 14
    endloop
  endfacet
  facet normal -0.499996 0.866028 0
    outer loop
      vertex 2.36361 -6 16
      vertex 2.35645 -6.00414 14
      vertex 2.35645 -6.00414 16
    endloop
  endfacet
  facet normal 0.36534 0.930874 0
    outer loop
      vertex -2 -6.06664 16
      vertex -2 -6.06664 14
      vertex -2.1698 -6 16
    endloop
  endfacet
  facet normal 0.365341 0.930874 -0
    outer loop
      vertex -2.1698 -6 16
      vertex -3.225 -5.58586 18
      vertex -2.1698 -6 18
    endloop
  endfacet
  facet normal 0.365341 0.930874 9.32711e-008
    outer loop
      vertex -3.225 -5.58586 14
      vertex -2.1698 -6 16
      vertex -2 -6.06664 14
    endloop
  endfacet
  facet normal 0.365341 0.930874 0
    outer loop
      vertex -2.1698 -6 16
      vertex -3.225 -5.58586 14
      vertex -3.225 -5.58586 18
    endloop
  endfacet
  facet normal -0.733052 0.680173 0
    outer loop
      vertex 4.02151 -5.04281 16.2393
      vertex 5.32924 -3.63341 14
      vertex 4.02151 -5.04281 14
    endloop
  endfacet
  facet normal -0.733052 0.680173 0
    outer loop
      vertex 5.32924 -3.63341 14
      vertex 4.02151 -5.04281 16.2393
      vertex 5.32924 -3.63341 16.5916
    endloop
  endfacet
endsolid OpenSCAD_Model
