solid OpenSCAD_Model
  facet normal -1 0 0
    outer loop
      vertex -22.75 -93.5 -2.5
      vertex -22.75 -48 2.5
      vertex -22.75 -48 -2.5
    endloop
  endfacet
  facet normal -1 -0 0
    outer loop
      vertex -22.75 -48 2.5
      vertex -22.75 -93.5 -2.5
      vertex -22.75 -93.5 2.5
    endloop
  endfacet
  facet normal 0 0 1
    outer loop
      vertex 22.75 -48 2.5
      vertex 17.75 -70.75 2.5
      vertex 22.75 -93.5 2.5
    endloop
  endfacet
  facet normal 0 0 1
    outer loop
      vertex 22.75 -48 2.5
      vertex 17.3621 -67.0596 2.5
      vertex 17.75 -70.75 2.5
    endloop
  endfacet
  facet normal 0 0 1
    outer loop
      vertex 22.75 -48 2.5
      vertex 16.2154 -63.5304 2.5
      vertex 17.3621 -67.0596 2.5
    endloop
  endfacet
  facet normal 0 0 1
    outer loop
      vertex 22.75 -48 2.5
      vertex 14.3601 -60.3168 2.5
      vertex 16.2154 -63.5304 2.5
    endloop
  endfacet
  facet normal 0 0 1
    outer loop
      vertex 22.75 -48 2.5
      vertex 11.8771 -57.5592 2.5
      vertex 14.3601 -60.3168 2.5
    endloop
  endfacet
  facet normal 0 0 1
    outer loop
      vertex 22.75 -48 2.5
      vertex 8.875 -55.3781 2.5
      vertex 11.8771 -57.5592 2.5
    endloop
  endfacet
  facet normal 0 0 1
    outer loop
      vertex 22.75 -48 2.5
      vertex 5.48505 -53.8687 2.5
      vertex 8.875 -55.3781 2.5
    endloop
  endfacet
  facet normal 0 0 1
    outer loop
      vertex 22.75 -48 2.5
      vertex 1.85538 -53.0972 2.5
      vertex 5.48505 -53.8687 2.5
    endloop
  endfacet
  facet normal 0 0 1
    outer loop
      vertex 22.75 -48 2.5
      vertex -1.85538 -53.0972 2.5
      vertex 1.85538 -53.0972 2.5
    endloop
  endfacet
  facet normal 0 0 1
    outer loop
      vertex -17.3621 -67.0596 2.5
      vertex -22.75 -48 2.5
      vertex -17.75 -70.75 2.5
    endloop
  endfacet
  facet normal 0 0 1
    outer loop
      vertex -16.2154 -63.5304 2.5
      vertex -22.75 -48 2.5
      vertex -17.3621 -67.0596 2.5
    endloop
  endfacet
  facet normal 0 0 1
    outer loop
      vertex -14.3601 -60.3168 2.5
      vertex -22.75 -48 2.5
      vertex -16.2154 -63.5304 2.5
    endloop
  endfacet
  facet normal 0 0 1
    outer loop
      vertex -11.8771 -57.5592 2.5
      vertex -22.75 -48 2.5
      vertex -14.3601 -60.3168 2.5
    endloop
  endfacet
  facet normal 0 0 1
    outer loop
      vertex -8.875 -55.3781 2.5
      vertex -22.75 -48 2.5
      vertex -11.8771 -57.5592 2.5
    endloop
  endfacet
  facet normal 0 0 1
    outer loop
      vertex -5.48505 -53.8687 2.5
      vertex -22.75 -48 2.5
      vertex -8.875 -55.3781 2.5
    endloop
  endfacet
  facet normal 0 0 1
    outer loop
      vertex -1.85538 -53.0972 2.5
      vertex -22.75 -48 2.5
      vertex -5.48505 -53.8687 2.5
    endloop
  endfacet
  facet normal -0 0 1
    outer loop
      vertex -22.75 -48 2.5
      vertex -1.85538 -53.0972 2.5
      vertex 22.75 -48 2.5
    endloop
  endfacet
  facet normal -0 0 1
    outer loop
      vertex 17.3621 -74.4404 2.5
      vertex 22.75 -93.5 2.5
      vertex 17.75 -70.75 2.5
    endloop
  endfacet
  facet normal -0 0 1
    outer loop
      vertex 16.2154 -77.9696 2.5
      vertex 22.75 -93.5 2.5
      vertex 17.3621 -74.4404 2.5
    endloop
  endfacet
  facet normal -0 0 1
    outer loop
      vertex 14.3601 -81.1832 2.5
      vertex 22.75 -93.5 2.5
      vertex 16.2154 -77.9696 2.5
    endloop
  endfacet
  facet normal -0 0 1
    outer loop
      vertex 11.8771 -83.9408 2.5
      vertex 22.75 -93.5 2.5
      vertex 14.3601 -81.1832 2.5
    endloop
  endfacet
  facet normal -0 0 1
    outer loop
      vertex 8.875 -86.1219 2.5
      vertex 22.75 -93.5 2.5
      vertex 11.8771 -83.9408 2.5
    endloop
  endfacet
  facet normal -0 0 1
    outer loop
      vertex 5.48505 -87.6313 2.5
      vertex 22.75 -93.5 2.5
      vertex 8.875 -86.1219 2.5
    endloop
  endfacet
  facet normal -0 0 1
    outer loop
      vertex 1.85538 -88.4028 2.5
      vertex 22.75 -93.5 2.5
      vertex 5.48505 -87.6313 2.5
    endloop
  endfacet
  facet normal -0 0 1
    outer loop
      vertex -1.85538 -88.4028 2.5
      vertex 22.75 -93.5 2.5
      vertex 1.85538 -88.4028 2.5
    endloop
  endfacet
  facet normal 0 0 1
    outer loop
      vertex -22.75 -93.5 2.5
      vertex -17.75 -70.75 2.5
      vertex -22.75 -48 2.5
    endloop
  endfacet
  facet normal 0 0 1
    outer loop
      vertex -1.85538 -88.4028 2.5
      vertex -22.75 -93.5 2.5
      vertex 22.75 -93.5 2.5
    endloop
  endfacet
  facet normal 0 0 1
    outer loop
      vertex -5.48505 -87.6313 2.5
      vertex -22.75 -93.5 2.5
      vertex -1.85538 -88.4028 2.5
    endloop
  endfacet
  facet normal 0 0 1
    outer loop
      vertex -8.875 -86.1219 2.5
      vertex -22.75 -93.5 2.5
      vertex -5.48505 -87.6313 2.5
    endloop
  endfacet
  facet normal 0 0 1
    outer loop
      vertex -11.8771 -83.9408 2.5
      vertex -22.75 -93.5 2.5
      vertex -8.875 -86.1219 2.5
    endloop
  endfacet
  facet normal 0 0 1
    outer loop
      vertex -14.3601 -81.1832 2.5
      vertex -22.75 -93.5 2.5
      vertex -11.8771 -83.9408 2.5
    endloop
  endfacet
  facet normal 0 0 1
    outer loop
      vertex -16.2154 -77.9696 2.5
      vertex -22.75 -93.5 2.5
      vertex -14.3601 -81.1832 2.5
    endloop
  endfacet
  facet normal 0 0 1
    outer loop
      vertex -17.3621 -74.4404 2.5
      vertex -22.75 -93.5 2.5
      vertex -16.2154 -77.9696 2.5
    endloop
  endfacet
  facet normal 0 0 1
    outer loop
      vertex -17.75 -70.75 2.5
      vertex -22.75 -93.5 2.5
      vertex -17.3621 -74.4404 2.5
    endloop
  endfacet
  facet normal 1 -0 0
    outer loop
      vertex 22.75 -93.5 2.5
      vertex 22.75 -48 -2.5
      vertex 22.75 -48 2.5
    endloop
  endfacet
  facet normal 1 0 0
    outer loop
      vertex 22.75 -48 -2.5
      vertex 22.75 -93.5 2.5
      vertex 22.75 -93.5 -2.5
    endloop
  endfacet
  facet normal 0 1 -0
    outer loop
      vertex 13.5 -48 -2.5
      vertex -13.5 -48 1.5
      vertex 13.5 -48 1.5
    endloop
  endfacet
  facet normal 0 1 0
    outer loop
      vertex -13.5 -48 1.5
      vertex 13.5 -48 -2.5
      vertex -13.5 -48 -2.5
    endloop
  endfacet
  facet normal 0 1 0
    outer loop
      vertex 13.5 -48 1.5
      vertex 22.75 -48 2.5
      vertex 17.5 -48 1.5
    endloop
  endfacet
  facet normal 0 1 -0
    outer loop
      vertex 22.75 -48 -2.5
      vertex 17.5 -48 1.5
      vertex 22.75 -48 2.5
    endloop
  endfacet
  facet normal 0 1 0
    outer loop
      vertex 17.5 -48 1.5
      vertex 22.75 -48 -2.5
      vertex 17.5 -48 -2.5
    endloop
  endfacet
  facet normal 0 1 0
    outer loop
      vertex 22.75 -48 2.5
      vertex 13.5 -48 1.5
      vertex -22.75 -48 2.5
    endloop
  endfacet
  facet normal 0 1 -0
    outer loop
      vertex -13.5 -48 1.5
      vertex -22.75 -48 2.5
      vertex 13.5 -48 1.5
    endloop
  endfacet
  facet normal 0 1 -0
    outer loop
      vertex -17.5 -48 1.5
      vertex -22.75 -48 2.5
      vertex -13.5 -48 1.5
    endloop
  endfacet
  facet normal 0 1 0
    outer loop
      vertex -22.75 -48 -2.5
      vertex -17.5 -48 1.5
      vertex -17.5 -48 -2.5
    endloop
  endfacet
  facet normal 0 1 0
    outer loop
      vertex -17.5 -48 1.5
      vertex -22.75 -48 -2.5
      vertex -22.75 -48 2.5
    endloop
  endfacet
  facet normal 0 0 -1
    outer loop
      vertex -22.75 -48 -2.5
      vertex -17.3621 -67.0596 -2.5
      vertex -17.75 -70.75 -2.5
    endloop
  endfacet
  facet normal 0 0 -1
    outer loop
      vertex -22.75 -48 -2.5
      vertex -17.75 -70.75 -2.5
      vertex -22.75 -93.5 -2.5
    endloop
  endfacet
  facet normal 0 0 -1
    outer loop
      vertex -17.3621 -67.0596 -2.5
      vertex -22.75 -48 -2.5
      vertex -17.5 -48 -2.5
    endloop
  endfacet
  facet normal -0 0 -1
    outer loop
      vertex 17.5 -48 -2.5
      vertex 11.8771 -57.5592 -2.5
      vertex 13.5 -48 -2.5
    endloop
  endfacet
  facet normal 0 0 -1
    outer loop
      vertex 8.875 -55.3781 -2.5
      vertex 13.5 -48 -2.5
      vertex 11.8771 -57.5592 -2.5
    endloop
  endfacet
  facet normal 0 0 -1
    outer loop
      vertex 5.48505 -53.8687 -2.5
      vertex 13.5 -48 -2.5
      vertex 8.875 -55.3781 -2.5
    endloop
  endfacet
  facet normal 0 0 -1
    outer loop
      vertex 1.85538 -53.0972 -2.5
      vertex 13.5 -48 -2.5
      vertex 5.48505 -53.8687 -2.5
    endloop
  endfacet
  facet normal 0 0 -1
    outer loop
      vertex -1.85538 -53.0972 -2.5
      vertex 13.5 -48 -2.5
      vertex 1.85538 -53.0972 -2.5
    endloop
  endfacet
  facet normal 0 0 -1
    outer loop
      vertex -13.5 -48 -2.5
      vertex -1.85538 -53.0972 -2.5
      vertex -5.48505 -53.8687 -2.5
    endloop
  endfacet
  facet normal 0 0 -1
    outer loop
      vertex -1.85538 -53.0972 -2.5
      vertex -13.5 -48 -2.5
      vertex 13.5 -48 -2.5
    endloop
  endfacet
  facet normal 0 0 -1
    outer loop
      vertex -8.875 -55.3781 -2.5
      vertex -13.5 -48 -2.5
      vertex -5.48505 -53.8687 -2.5
    endloop
  endfacet
  facet normal 0 0 -1
    outer loop
      vertex -11.8771 -57.5592 -2.5
      vertex -13.5 -48 -2.5
      vertex -8.875 -55.3781 -2.5
    endloop
  endfacet
  facet normal 0 0 -1
    outer loop
      vertex -17.5 -48 -2.5
      vertex -11.8771 -57.5592 -2.5
      vertex -14.3601 -60.3168 -2.5
    endloop
  endfacet
  facet normal 0 0 -1
    outer loop
      vertex -11.8771 -57.5592 -2.5
      vertex -17.5 -48 -2.5
      vertex -13.5 -48 -2.5
    endloop
  endfacet
  facet normal 0 0 -1
    outer loop
      vertex -17.5 -48 -2.5
      vertex -14.3601 -60.3168 -2.5
      vertex -16.2154 -63.5304 -2.5
    endloop
  endfacet
  facet normal 0 0 -1
    outer loop
      vertex -17.5 -48 -2.5
      vertex -16.2154 -63.5304 -2.5
      vertex -17.3621 -67.0596 -2.5
    endloop
  endfacet
  facet normal 0 0 -1
    outer loop
      vertex -13.5 -48 -2.5
      vertex -17.5 -48 -2.5
      vertex -13.5 5 -2.5
    endloop
  endfacet
  facet normal -0 0 -1
    outer loop
      vertex -13.5 5 -2.5
      vertex -17.5 -48 -2.5
      vertex -17.5 5 -2.5
    endloop
  endfacet
  facet normal 0 0 -1
    outer loop
      vertex 22.75 -93.5 -2.5
      vertex 17.75 -70.75 -2.5
      vertex 22.75 -48 -2.5
    endloop
  endfacet
  facet normal 0 0 -1
    outer loop
      vertex 22.75 -93.5 -2.5
      vertex 17.3621 -74.4404 -2.5
      vertex 17.75 -70.75 -2.5
    endloop
  endfacet
  facet normal 0 0 -1
    outer loop
      vertex 22.75 -93.5 -2.5
      vertex 16.2154 -77.9696 -2.5
      vertex 17.3621 -74.4404 -2.5
    endloop
  endfacet
  facet normal 0 0 -1
    outer loop
      vertex 22.75 -93.5 -2.5
      vertex 14.3601 -81.1832 -2.5
      vertex 16.2154 -77.9696 -2.5
    endloop
  endfacet
  facet normal 0 0 -1
    outer loop
      vertex 22.75 -93.5 -2.5
      vertex 11.8771 -83.9408 -2.5
      vertex 14.3601 -81.1832 -2.5
    endloop
  endfacet
  facet normal 0 0 -1
    outer loop
      vertex 22.75 -93.5 -2.5
      vertex 8.875 -86.1219 -2.5
      vertex 11.8771 -83.9408 -2.5
    endloop
  endfacet
  facet normal 0 0 -1
    outer loop
      vertex 22.75 -93.5 -2.5
      vertex 5.48505 -87.6313 -2.5
      vertex 8.875 -86.1219 -2.5
    endloop
  endfacet
  facet normal 0 0 -1
    outer loop
      vertex 22.75 -93.5 -2.5
      vertex 1.85538 -88.4028 -2.5
      vertex 5.48505 -87.6313 -2.5
    endloop
  endfacet
  facet normal 0 0 -1
    outer loop
      vertex 22.75 -93.5 -2.5
      vertex -1.85538 -88.4028 -2.5
      vertex 1.85538 -88.4028 -2.5
    endloop
  endfacet
  facet normal -0 0 -1
    outer loop
      vertex -17.3621 -74.4404 -2.5
      vertex -22.75 -93.5 -2.5
      vertex -17.75 -70.75 -2.5
    endloop
  endfacet
  facet normal -0 0 -1
    outer loop
      vertex -16.2154 -77.9696 -2.5
      vertex -22.75 -93.5 -2.5
      vertex -17.3621 -74.4404 -2.5
    endloop
  endfacet
  facet normal -0 0 -1
    outer loop
      vertex -14.3601 -81.1832 -2.5
      vertex -22.75 -93.5 -2.5
      vertex -16.2154 -77.9696 -2.5
    endloop
  endfacet
  facet normal -0 0 -1
    outer loop
      vertex -11.8771 -83.9408 -2.5
      vertex -22.75 -93.5 -2.5
      vertex -14.3601 -81.1832 -2.5
    endloop
  endfacet
  facet normal -0 0 -1
    outer loop
      vertex -8.875 -86.1219 -2.5
      vertex -22.75 -93.5 -2.5
      vertex -11.8771 -83.9408 -2.5
    endloop
  endfacet
  facet normal -0 0 -1
    outer loop
      vertex -5.48505 -87.6313 -2.5
      vertex -22.75 -93.5 -2.5
      vertex -8.875 -86.1219 -2.5
    endloop
  endfacet
  facet normal -0 0 -1
    outer loop
      vertex -1.85538 -88.4028 -2.5
      vertex -22.75 -93.5 -2.5
      vertex -5.48505 -87.6313 -2.5
    endloop
  endfacet
  facet normal 0 0 -1
    outer loop
      vertex -22.75 -93.5 -2.5
      vertex -1.85538 -88.4028 -2.5
      vertex 22.75 -93.5 -2.5
    endloop
  endfacet
  facet normal 0 0 -1
    outer loop
      vertex 17.3621 -67.0596 -2.5
      vertex 22.75 -48 -2.5
      vertex 17.75 -70.75 -2.5
    endloop
  endfacet
  facet normal 0 0 -1
    outer loop
      vertex 16.2154 -63.5304 -2.5
      vertex 22.75 -48 -2.5
      vertex 17.3621 -67.0596 -2.5
    endloop
  endfacet
  facet normal 0 0 -1
    outer loop
      vertex 14.3601 -60.3168 -2.5
      vertex 22.75 -48 -2.5
      vertex 16.2154 -63.5304 -2.5
    endloop
  endfacet
  facet normal -0 0 -1
    outer loop
      vertex 22.75 -48 -2.5
      vertex 14.3601 -60.3168 -2.5
      vertex 17.5 -48 -2.5
    endloop
  endfacet
  facet normal 0 0 -1
    outer loop
      vertex 11.8771 -57.5592 -2.5
      vertex 17.5 -48 -2.5
      vertex 14.3601 -60.3168 -2.5
    endloop
  endfacet
  facet normal 0 0 -1
    outer loop
      vertex 17.5 -48 -2.5
      vertex 13.5 -48 -2.5
      vertex 17.5 5 -2.5
    endloop
  endfacet
  facet normal -0 0 -1
    outer loop
      vertex 17.5 5 -2.5
      vertex 13.5 -48 -2.5
      vertex 13.5 5 -2.5
    endloop
  endfacet
  facet normal 0 -1 0
    outer loop
      vertex -22.75 -93.5 -2.5
      vertex 22.75 -93.5 2.5
      vertex -22.75 -93.5 2.5
    endloop
  endfacet
  facet normal 0 -1 -0
    outer loop
      vertex 22.75 -93.5 2.5
      vertex -22.75 -93.5 -2.5
      vertex 22.75 -93.5 -2.5
    endloop
  endfacet
  facet normal -0.994522 -0.104529 0
    outer loop
      vertex 17.75 -70.75 -2.5
      vertex 17.3621 -67.0596 2.5
      vertex 17.3621 -67.0596 -2.5
    endloop
  endfacet
  facet normal -0.994522 -0.104529 0
    outer loop
      vertex 17.3621 -67.0596 2.5
      vertex 17.75 -70.75 -2.5
      vertex 17.75 -70.75 2.5
    endloop
  endfacet
  facet normal 0.994522 -0.104529 0
    outer loop
      vertex -17.75 -70.75 2.5
      vertex -17.3621 -67.0596 -2.5
      vertex -17.3621 -67.0596 2.5
    endloop
  endfacet
  facet normal 0.994522 -0.104529 0
    outer loop
      vertex -17.3621 -67.0596 -2.5
      vertex -17.75 -70.75 2.5
      vertex -17.75 -70.75 -2.5
    endloop
  endfacet
  facet normal 0 -1 0
    outer loop
      vertex -1.85538 -53.0972 -2.5
      vertex 1.85538 -53.0972 2.5
      vertex -1.85538 -53.0972 2.5
    endloop
  endfacet
  facet normal 0 -1 -0
    outer loop
      vertex 1.85538 -53.0972 2.5
      vertex -1.85538 -53.0972 -2.5
      vertex 1.85538 -53.0972 -2.5
    endloop
  endfacet
  facet normal 0 1 -0
    outer loop
      vertex 1.85538 -88.4028 -2.5
      vertex -1.85538 -88.4028 2.5
      vertex 1.85538 -88.4028 2.5
    endloop
  endfacet
  facet normal 0 1 0
    outer loop
      vertex -1.85538 -88.4028 2.5
      vertex 1.85538 -88.4028 -2.5
      vertex -1.85538 -88.4028 -2.5
    endloop
  endfacet
  facet normal -0.587785 -0.809017 0
    outer loop
      vertex 8.875 -55.3781 -2.5
      vertex 11.8771 -57.5592 2.5
      vertex 8.875 -55.3781 2.5
    endloop
  endfacet
  facet normal -0.587785 -0.809017 -0
    outer loop
      vertex 11.8771 -57.5592 2.5
      vertex 8.875 -55.3781 -2.5
      vertex 11.8771 -57.5592 -2.5
    endloop
  endfacet
  facet normal 0.743144 -0.669131 0
    outer loop
      vertex -14.3601 -60.3168 2.5
      vertex -11.8771 -57.5592 -2.5
      vertex -11.8771 -57.5592 2.5
    endloop
  endfacet
  facet normal 0.743144 -0.669131 0
    outer loop
      vertex -11.8771 -57.5592 -2.5
      vertex -14.3601 -60.3168 2.5
      vertex -14.3601 -60.3168 -2.5
    endloop
  endfacet
  facet normal 0.406737 -0.913545 0
    outer loop
      vertex -8.875 -55.3781 -2.5
      vertex -5.48505 -53.8687 2.5
      vertex -8.875 -55.3781 2.5
    endloop
  endfacet
  facet normal 0.406737 -0.913545 0
    outer loop
      vertex -5.48505 -53.8687 2.5
      vertex -8.875 -55.3781 -2.5
      vertex -5.48505 -53.8687 -2.5
    endloop
  endfacet
  facet normal 0.866026 0.5 0
    outer loop
      vertex -14.3601 -81.1832 2.5
      vertex -16.2154 -77.9696 -2.5
      vertex -16.2154 -77.9696 2.5
    endloop
  endfacet
  facet normal 0.866026 0.5 0
    outer loop
      vertex -16.2154 -77.9696 -2.5
      vertex -14.3601 -81.1832 2.5
      vertex -14.3601 -81.1832 -2.5
    endloop
  endfacet
  facet normal -0.866026 -0.5 0
    outer loop
      vertex 16.2154 -63.5304 -2.5
      vertex 14.3601 -60.3168 2.5
      vertex 14.3601 -60.3168 -2.5
    endloop
  endfacet
  facet normal -0.866026 -0.5 0
    outer loop
      vertex 14.3601 -60.3168 2.5
      vertex 16.2154 -63.5304 -2.5
      vertex 16.2154 -63.5304 2.5
    endloop
  endfacet
  facet normal -0.951057 -0.309017 0
    outer loop
      vertex 17.3621 -67.0596 -2.5
      vertex 16.2154 -63.5304 2.5
      vertex 16.2154 -63.5304 -2.5
    endloop
  endfacet
  facet normal -0.951057 -0.309017 0
    outer loop
      vertex 16.2154 -63.5304 2.5
      vertex 17.3621 -67.0596 -2.5
      vertex 17.3621 -67.0596 2.5
    endloop
  endfacet
  facet normal -0.743144 -0.669131 0
    outer loop
      vertex 14.3601 -60.3168 -2.5
      vertex 11.8771 -57.5592 2.5
      vertex 11.8771 -57.5592 -2.5
    endloop
  endfacet
  facet normal -0.743144 -0.669131 0
    outer loop
      vertex 11.8771 -57.5592 2.5
      vertex 14.3601 -60.3168 -2.5
      vertex 14.3601 -60.3168 2.5
    endloop
  endfacet
  facet normal -0.207912 -0.978148 0
    outer loop
      vertex 1.85538 -53.0972 -2.5
      vertex 5.48505 -53.8687 2.5
      vertex 1.85538 -53.0972 2.5
    endloop
  endfacet
  facet normal -0.207912 -0.978148 -0
    outer loop
      vertex 5.48505 -53.8687 2.5
      vertex 1.85538 -53.0972 -2.5
      vertex 5.48505 -53.8687 -2.5
    endloop
  endfacet
  facet normal -0.406737 -0.913545 0
    outer loop
      vertex 5.48505 -53.8687 -2.5
      vertex 8.875 -55.3781 2.5
      vertex 5.48505 -53.8687 2.5
    endloop
  endfacet
  facet normal -0.406737 -0.913545 -0
    outer loop
      vertex 8.875 -55.3781 2.5
      vertex 5.48505 -53.8687 -2.5
      vertex 8.875 -55.3781 -2.5
    endloop
  endfacet
  facet normal 0.866026 -0.5 0
    outer loop
      vertex -16.2154 -63.5304 2.5
      vertex -14.3601 -60.3168 -2.5
      vertex -14.3601 -60.3168 2.5
    endloop
  endfacet
  facet normal 0.866026 -0.5 0
    outer loop
      vertex -14.3601 -60.3168 -2.5
      vertex -16.2154 -63.5304 2.5
      vertex -16.2154 -63.5304 -2.5
    endloop
  endfacet
  facet normal 0.951057 -0.309017 0
    outer loop
      vertex -17.3621 -67.0596 2.5
      vertex -16.2154 -63.5304 -2.5
      vertex -16.2154 -63.5304 2.5
    endloop
  endfacet
  facet normal 0.951057 -0.309017 0
    outer loop
      vertex -16.2154 -63.5304 -2.5
      vertex -17.3621 -67.0596 2.5
      vertex -17.3621 -67.0596 -2.5
    endloop
  endfacet
  facet normal 0.587785 -0.809017 0
    outer loop
      vertex -11.8771 -57.5592 -2.5
      vertex -8.875 -55.3781 2.5
      vertex -11.8771 -57.5592 2.5
    endloop
  endfacet
  facet normal 0.587785 -0.809017 0
    outer loop
      vertex -8.875 -55.3781 2.5
      vertex -11.8771 -57.5592 -2.5
      vertex -8.875 -55.3781 -2.5
    endloop
  endfacet
  facet normal 0.207912 -0.978148 0
    outer loop
      vertex -5.48505 -53.8687 -2.5
      vertex -1.85538 -53.0972 2.5
      vertex -5.48505 -53.8687 2.5
    endloop
  endfacet
  facet normal 0.207912 -0.978148 0
    outer loop
      vertex -1.85538 -53.0972 2.5
      vertex -5.48505 -53.8687 -2.5
      vertex -1.85538 -53.0972 -2.5
    endloop
  endfacet
  facet normal -0.994522 0.104529 0
    outer loop
      vertex 17.3621 -74.4404 -2.5
      vertex 17.75 -70.75 2.5
      vertex 17.75 -70.75 -2.5
    endloop
  endfacet
  facet normal -0.994522 0.104529 0
    outer loop
      vertex 17.75 -70.75 2.5
      vertex 17.3621 -74.4404 -2.5
      vertex 17.3621 -74.4404 2.5
    endloop
  endfacet
  facet normal -0.866026 0.5 0
    outer loop
      vertex 14.3601 -81.1832 -2.5
      vertex 16.2154 -77.9696 2.5
      vertex 16.2154 -77.9696 -2.5
    endloop
  endfacet
  facet normal -0.866026 0.5 0
    outer loop
      vertex 16.2154 -77.9696 2.5
      vertex 14.3601 -81.1832 -2.5
      vertex 14.3601 -81.1832 2.5
    endloop
  endfacet
  facet normal -0.587785 0.809017 0
    outer loop
      vertex 11.8771 -83.9408 -2.5
      vertex 8.875 -86.1219 2.5
      vertex 11.8771 -83.9408 2.5
    endloop
  endfacet
  facet normal -0.587785 0.809017 0
    outer loop
      vertex 8.875 -86.1219 2.5
      vertex 11.8771 -83.9408 -2.5
      vertex 8.875 -86.1219 -2.5
    endloop
  endfacet
  facet normal -0.951057 0.309017 0
    outer loop
      vertex 16.2154 -77.9696 -2.5
      vertex 17.3621 -74.4404 2.5
      vertex 17.3621 -74.4404 -2.5
    endloop
  endfacet
  facet normal -0.951057 0.309017 0
    outer loop
      vertex 17.3621 -74.4404 2.5
      vertex 16.2154 -77.9696 -2.5
      vertex 16.2154 -77.9696 2.5
    endloop
  endfacet
  facet normal 0.207911 0.978148 -0
    outer loop
      vertex -1.85538 -88.4028 -2.5
      vertex -5.48505 -87.6313 2.5
      vertex -1.85538 -88.4028 2.5
    endloop
  endfacet
  facet normal 0.207911 0.978148 0
    outer loop
      vertex -5.48505 -87.6313 2.5
      vertex -1.85538 -88.4028 -2.5
      vertex -5.48505 -87.6313 -2.5
    endloop
  endfacet
  facet normal 0.743144 0.669131 0
    outer loop
      vertex -11.8771 -83.9408 2.5
      vertex -14.3601 -81.1832 -2.5
      vertex -14.3601 -81.1832 2.5
    endloop
  endfacet
  facet normal 0.743144 0.669131 0
    outer loop
      vertex -14.3601 -81.1832 -2.5
      vertex -11.8771 -83.9408 2.5
      vertex -11.8771 -83.9408 -2.5
    endloop
  endfacet
  facet normal 0.951057 0.309017 0
    outer loop
      vertex -16.2154 -77.9696 2.5
      vertex -17.3621 -74.4404 -2.5
      vertex -17.3621 -74.4404 2.5
    endloop
  endfacet
  facet normal 0.951057 0.309017 0
    outer loop
      vertex -17.3621 -74.4404 -2.5
      vertex -16.2154 -77.9696 2.5
      vertex -16.2154 -77.9696 -2.5
    endloop
  endfacet
  facet normal 0.994522 0.104529 0
    outer loop
      vertex -17.3621 -74.4404 2.5
      vertex -17.75 -70.75 -2.5
      vertex -17.75 -70.75 2.5
    endloop
  endfacet
  facet normal 0.994522 0.104529 0
    outer loop
      vertex -17.75 -70.75 -2.5
      vertex -17.3621 -74.4404 2.5
      vertex -17.3621 -74.4404 -2.5
    endloop
  endfacet
  facet normal -0.406738 0.913545 0
    outer loop
      vertex 8.875 -86.1219 -2.5
      vertex 5.48505 -87.6313 2.5
      vertex 8.875 -86.1219 2.5
    endloop
  endfacet
  facet normal -0.406738 0.913545 0
    outer loop
      vertex 5.48505 -87.6313 2.5
      vertex 8.875 -86.1219 -2.5
      vertex 5.48505 -87.6313 -2.5
    endloop
  endfacet
  facet normal -0.207911 0.978148 0
    outer loop
      vertex 5.48505 -87.6313 -2.5
      vertex 1.85538 -88.4028 2.5
      vertex 5.48505 -87.6313 2.5
    endloop
  endfacet
  facet normal -0.207911 0.978148 0
    outer loop
      vertex 1.85538 -88.4028 2.5
      vertex 5.48505 -87.6313 -2.5
      vertex 1.85538 -88.4028 -2.5
    endloop
  endfacet
  facet normal -0.743144 0.669131 0
    outer loop
      vertex 11.8771 -83.9408 -2.5
      vertex 14.3601 -81.1832 2.5
      vertex 14.3601 -81.1832 -2.5
    endloop
  endfacet
  facet normal -0.743144 0.669131 0
    outer loop
      vertex 14.3601 -81.1832 2.5
      vertex 11.8771 -83.9408 -2.5
      vertex 11.8771 -83.9408 2.5
    endloop
  endfacet
  facet normal 0.406738 0.913545 -0
    outer loop
      vertex -5.48505 -87.6313 -2.5
      vertex -8.875 -86.1219 2.5
      vertex -5.48505 -87.6313 2.5
    endloop
  endfacet
  facet normal 0.406738 0.913545 0
    outer loop
      vertex -8.875 -86.1219 2.5
      vertex -5.48505 -87.6313 -2.5
      vertex -8.875 -86.1219 -2.5
    endloop
  endfacet
  facet normal 0.587785 0.809017 -0
    outer loop
      vertex -8.875 -86.1219 -2.5
      vertex -11.8771 -83.9408 2.5
      vertex -8.875 -86.1219 2.5
    endloop
  endfacet
  facet normal 0.587785 0.809017 0
    outer loop
      vertex -11.8771 -83.9408 2.5
      vertex -8.875 -86.1219 -2.5
      vertex -11.8771 -83.9408 -2.5
    endloop
  endfacet
  facet normal -1 0 0
    outer loop
      vertex 13.5 -48 -2.5
      vertex 13.5 5 1.5
      vertex 13.5 5 -2.5
    endloop
  endfacet
  facet normal -1 -0 0
    outer loop
      vertex 13.5 5 1.5
      vertex 13.5 -48 -2.5
      vertex 13.5 -48 1.5
    endloop
  endfacet
  facet normal -0 0 1
    outer loop
      vertex 13.5 5 1.5
      vertex 17.5 -48 1.5
      vertex 17.5 5 1.5
    endloop
  endfacet
  facet normal 0 0 1
    outer loop
      vertex 17.5 -48 1.5
      vertex 13.5 5 1.5
      vertex 13.5 -48 1.5
    endloop
  endfacet
  facet normal 1 -0 0
    outer loop
      vertex 17.5 -48 1.5
      vertex 17.5 5 -2.5
      vertex 17.5 5 1.5
    endloop
  endfacet
  facet normal 1 0 0
    outer loop
      vertex 17.5 5 -2.5
      vertex 17.5 -48 1.5
      vertex 17.5 -48 -2.5
    endloop
  endfacet
  facet normal 0 1 -0
    outer loop
      vertex 17.5 5 -2.5
      vertex 13.5 5 1.5
      vertex 17.5 5 1.5
    endloop
  endfacet
  facet normal 0 1 0
    outer loop
      vertex 13.5 5 1.5
      vertex 17.5 5 -2.5
      vertex 13.5 5 -2.5
    endloop
  endfacet
  facet normal -0 0 1
    outer loop
      vertex -17.5 5 1.5
      vertex -13.5 -48 1.5
      vertex -13.5 5 1.5
    endloop
  endfacet
  facet normal 0 0 1
    outer loop
      vertex -13.5 -48 1.5
      vertex -17.5 5 1.5
      vertex -17.5 -48 1.5
    endloop
  endfacet
  facet normal -1 0 0
    outer loop
      vertex -17.5 -48 -2.5
      vertex -17.5 5 1.5
      vertex -17.5 5 -2.5
    endloop
  endfacet
  facet normal -1 -0 0
    outer loop
      vertex -17.5 5 1.5
      vertex -17.5 -48 -2.5
      vertex -17.5 -48 1.5
    endloop
  endfacet
  facet normal 0 1 -0
    outer loop
      vertex -13.5 5 -2.5
      vertex -17.5 5 1.5
      vertex -13.5 5 1.5
    endloop
  endfacet
  facet normal 0 1 0
    outer loop
      vertex -17.5 5 1.5
      vertex -13.5 5 -2.5
      vertex -17.5 5 -2.5
    endloop
  endfacet
  facet normal 1 -0 0
    outer loop
      vertex -13.5 -48 1.5
      vertex -13.5 5 -2.5
      vertex -13.5 5 1.5
    endloop
  endfacet
  facet normal 1 0 0
    outer loop
      vertex -13.5 5 -2.5
      vertex -13.5 -48 1.5
      vertex -13.5 -48 -2.5
    endloop
  endfacet
endsolid OpenSCAD_Model
