solid OpenSCAD_Model
  facet normal -1 0 0
    outer loop
      vertex -23 -6.75 23.75
      vertex -23 6.75 47.75
      vertex -23 6.75 23.75
    endloop
  endfacet
  facet normal -1 -0 0
    outer loop
      vertex -23 6.75 47.75
      vertex -23 -6.75 23.75
      vertex -23 -6.75 47.75
    endloop
  endfacet
  facet normal -0 0 1
    outer loop
      vertex -23 6.75 47.75
      vertex 23 -6.75 47.75
      vertex 23 6.75 47.75
    endloop
  endfacet
  facet normal 0 0 1
    outer loop
      vertex 23 -6.75 47.75
      vertex -23 6.75 47.75
      vertex -23 -6.75 47.75
    endloop
  endfacet
  facet normal 1 -0 0
    outer loop
      vertex 23 -6.75 47.75
      vertex 23 6.75 43.75
      vertex 23 6.75 47.75
    endloop
  endfacet
  facet normal 1 0 0
    outer loop
      vertex 23 6.75 43.75
      vertex 23 -6.75 47.75
      vertex 23 -6.75 43.75
    endloop
  endfacet
  facet normal 1 -0 0
    outer loop
      vertex 23 -6.75 27.75
      vertex 23 6.75 23.75
      vertex 23 6.75 27.75
    endloop
  endfacet
  facet normal 1 0 0
    outer loop
      vertex 23 6.75 23.75
      vertex 23 -6.75 27.75
      vertex 23 -6.75 23.75
    endloop
  endfacet
  facet normal 0 0 -1
    outer loop
      vertex -23 -6.75 23.75
      vertex -3.375 6.75 23.75
      vertex -3.375 -6.75 23.75
    endloop
  endfacet
  facet normal -0 0 -1
    outer loop
      vertex -3.375 6.75 23.75
      vertex -23 -6.75 23.75
      vertex -23 6.75 23.75
    endloop
  endfacet
  facet normal 0 0 -1
    outer loop
      vertex 3.375 -6.75 23.75
      vertex 23 6.75 23.75
      vertex 23 -6.75 23.75
    endloop
  endfacet
  facet normal -0 0 -1
    outer loop
      vertex 23 6.75 23.75
      vertex 3.375 -6.75 23.75
      vertex 3.375 6.75 23.75
    endloop
  endfacet
  facet normal 0 -1 0
    outer loop
      vertex -23 -6.75 1.25
      vertex -3.375 -6.75 10.25
      vertex -23 -6.75 10.25
    endloop
  endfacet
  facet normal 0 -1 -0
    outer loop
      vertex -3.375 -6.75 10.25
      vertex -23 -6.75 1.25
      vertex 3.375 -6.75 10.25
    endloop
  endfacet
  facet normal 0 -1 0
    outer loop
      vertex 23 -6.75 1.25
      vertex 3.375 -6.75 10.25
      vertex -23 -6.75 1.25
    endloop
  endfacet
  facet normal 0 -1 0
    outer loop
      vertex 3.375 -6.75 10.25
      vertex 23 -6.75 1.25
      vertex 23 -6.75 10.25
    endloop
  endfacet
  facet normal 0 -1 0
    outer loop
      vertex -3.375 -6.75 10.25
      vertex 3.375 -6.75 23.75
      vertex -3.375 -6.75 23.75
    endloop
  endfacet
  facet normal 0 -1 -0
    outer loop
      vertex 3.375 -6.75 23.75
      vertex -3.375 -6.75 10.25
      vertex 3.375 -6.75 10.25
    endloop
  endfacet
  facet normal 0 -1 0
    outer loop
      vertex -23 -6.75 47.75
      vertex -18 -6.75 43.75
      vertex 23 -6.75 47.75
    endloop
  endfacet
  facet normal 0 -1 0
    outer loop
      vertex -23 -6.75 47.75
      vertex -18 -6.75 27.75
      vertex -18 -6.75 43.75
    endloop
  endfacet
  facet normal 0 -1 0
    outer loop
      vertex -23 -6.75 23.75
      vertex -18 -6.75 27.75
      vertex -23 -6.75 47.75
    endloop
  endfacet
  facet normal 0 -1 0
    outer loop
      vertex -3.375 -6.75 23.75
      vertex -18 -6.75 27.75
      vertex -23 -6.75 23.75
    endloop
  endfacet
  facet normal 0 -1 0
    outer loop
      vertex 3.375 -6.75 23.75
      vertex -18 -6.75 27.75
      vertex -3.375 -6.75 23.75
    endloop
  endfacet
  facet normal 0 -1 0
    outer loop
      vertex -18 -6.75 27.75
      vertex 3.375 -6.75 23.75
      vertex 23 -6.75 27.75
    endloop
  endfacet
  facet normal 0 -1 -0
    outer loop
      vertex 23 -6.75 27.75
      vertex 3.375 -6.75 23.75
      vertex 23 -6.75 23.75
    endloop
  endfacet
  facet normal 0 -1 -0
    outer loop
      vertex 23 -6.75 47.75
      vertex -18 -6.75 43.75
      vertex 23 -6.75 43.75
    endloop
  endfacet
  facet normal 0 1 0
    outer loop
      vertex 3.375 6.75 23.75
      vertex 23 6.75 27.75
      vertex 23 6.75 23.75
    endloop
  endfacet
  facet normal 0 1 0
    outer loop
      vertex -18 6.75 43.75
      vertex 23 6.75 47.75
      vertex 23 6.75 43.75
    endloop
  endfacet
  facet normal 0 1 0
    outer loop
      vertex 23 6.75 47.75
      vertex -18 6.75 43.75
      vertex -23 6.75 47.75
    endloop
  endfacet
  facet normal 0 1 -0
    outer loop
      vertex -18 6.75 27.75
      vertex -23 6.75 47.75
      vertex -18 6.75 43.75
    endloop
  endfacet
  facet normal 0 1 0
    outer loop
      vertex 23 6.75 27.75
      vertex 3.375 6.75 23.75
      vertex -18 6.75 27.75
    endloop
  endfacet
  facet normal 0 1 -0
    outer loop
      vertex -3.375 6.75 23.75
      vertex -18 6.75 27.75
      vertex 3.375 6.75 23.75
    endloop
  endfacet
  facet normal 0 1 0
    outer loop
      vertex -18 6.75 27.75
      vertex -23 6.75 23.75
      vertex -23 6.75 47.75
    endloop
  endfacet
  facet normal 0 1 0
    outer loop
      vertex -23 6.75 23.75
      vertex -18 6.75 27.75
      vertex -3.375 6.75 23.75
    endloop
  endfacet
  facet normal 0 1 -0
    outer loop
      vertex 23 6.75 1.25
      vertex 3.375 6.75 10.25
      vertex 23 6.75 10.25
    endloop
  endfacet
  facet normal 0 1 0
    outer loop
      vertex 3.375 6.75 10.25
      vertex 23 6.75 1.25
      vertex -3.375 6.75 10.25
    endloop
  endfacet
  facet normal 0 1 0
    outer loop
      vertex -23 6.75 1.25
      vertex -3.375 6.75 10.25
      vertex 23 6.75 1.25
    endloop
  endfacet
  facet normal 0 1 0
    outer loop
      vertex -3.375 6.75 10.25
      vertex -23 6.75 1.25
      vertex -23 6.75 10.25
    endloop
  endfacet
  facet normal 0 1 -0
    outer loop
      vertex 3.375 6.75 10.25
      vertex -3.375 6.75 23.75
      vertex 3.375 6.75 23.75
    endloop
  endfacet
  facet normal 0 1 0
    outer loop
      vertex -3.375 6.75 23.75
      vertex 3.375 6.75 10.25
      vertex -3.375 6.75 10.25
    endloop
  endfacet
  facet normal 1 -0 0
    outer loop
      vertex -18 -6.75 43.75
      vertex -18 6.75 27.75
      vertex -18 6.75 43.75
    endloop
  endfacet
  facet normal 1 0 0
    outer loop
      vertex -18 6.75 27.75
      vertex -18 -6.75 43.75
      vertex -18 -6.75 27.75
    endloop
  endfacet
  facet normal 0 0 -1
    outer loop
      vertex -18 -6.75 43.75
      vertex 23 6.75 43.75
      vertex 23 -6.75 43.75
    endloop
  endfacet
  facet normal -0 0 -1
    outer loop
      vertex 23 6.75 43.75
      vertex -18 -6.75 43.75
      vertex -18 6.75 43.75
    endloop
  endfacet
  facet normal -0 0 1
    outer loop
      vertex -18 6.75 27.75
      vertex 23 -6.75 27.75
      vertex 23 6.75 27.75
    endloop
  endfacet
  facet normal 0 0 1
    outer loop
      vertex 23 -6.75 27.75
      vertex -18 6.75 27.75
      vertex -18 -6.75 27.75
    endloop
  endfacet
  facet normal -1 0 0
    outer loop
      vertex -23 -6.75 1.25
      vertex -23 6.75 10.25
      vertex -23 6.75 1.25
    endloop
  endfacet
  facet normal -1 -0 0
    outer loop
      vertex -23 6.75 10.25
      vertex -23 -6.75 1.25
      vertex -23 -6.75 10.25
    endloop
  endfacet
  facet normal -0 0 1
    outer loop
      vertex -23 6.75 10.25
      vertex -3.375 -6.75 10.25
      vertex -3.375 6.75 10.25
    endloop
  endfacet
  facet normal 0 0 1
    outer loop
      vertex -3.375 -6.75 10.25
      vertex -23 6.75 10.25
      vertex -23 -6.75 10.25
    endloop
  endfacet
  facet normal -0 0 1
    outer loop
      vertex 3.375 6.75 10.25
      vertex 23 -6.75 10.25
      vertex 23 6.75 10.25
    endloop
  endfacet
  facet normal 0 0 1
    outer loop
      vertex 23 -6.75 10.25
      vertex 3.375 6.75 10.25
      vertex 3.375 -6.75 10.25
    endloop
  endfacet
  facet normal 1 -0 0
    outer loop
      vertex 23 -6.75 10.25
      vertex 23 6.75 1.25
      vertex 23 6.75 10.25
    endloop
  endfacet
  facet normal 1 0 0
    outer loop
      vertex 23 6.75 1.25
      vertex 23 -6.75 10.25
      vertex 23 -6.75 1.25
    endloop
  endfacet
  facet normal 0 0 -1
    outer loop
      vertex -23 -6.75 1.25
      vertex 23 6.75 1.25
      vertex 23 -6.75 1.25
    endloop
  endfacet
  facet normal -0 0 -1
    outer loop
      vertex 23 6.75 1.25
      vertex -23 -6.75 1.25
      vertex -23 6.75 1.25
    endloop
  endfacet
  facet normal -1 0 0
    outer loop
      vertex -3.375 -6.75 10.25
      vertex -3.375 6.75 23.75
      vertex -3.375 6.75 10.25
    endloop
  endfacet
  facet normal -1 -0 0
    outer loop
      vertex -3.375 6.75 23.75
      vertex -3.375 -6.75 10.25
      vertex -3.375 -6.75 23.75
    endloop
  endfacet
  facet normal 1 -0 0
    outer loop
      vertex 3.375 -6.75 23.75
      vertex 3.375 6.75 10.25
      vertex 3.375 6.75 23.75
    endloop
  endfacet
  facet normal 1 0 0
    outer loop
      vertex 3.375 6.75 10.25
      vertex 3.375 -6.75 23.75
      vertex 3.375 -6.75 10.25
    endloop
  endfacet
endsolid OpenSCAD_Model
