solid OpenSCAD_Model
  facet normal 0.994522 0.104529 0
    outer loop
      vertex 12 0 2.5
      vertex 11.7378 2.49494 -2.5
      vertex 11.7378 2.49494 2.5
    endloop
  endfacet
  facet normal 0.994522 0.104529 0
    outer loop
      vertex 11.7378 2.49494 -2.5
      vertex 12 0 2.5
      vertex 12 0 -2.5
    endloop
  endfacet
  facet normal -0.994522 0.104529 0
    outer loop
      vertex -12 0 -2.5
      vertex -11.7378 2.49494 2.5
      vertex -11.7378 2.49494 -2.5
    endloop
  endfacet
  facet normal -0.994522 0.104529 0
    outer loop
      vertex -11.7378 2.49494 2.5
      vertex -12 0 -2.5
      vertex -12 0 2.5
    endloop
  endfacet
  facet normal 0 1 -0
    outer loop
      vertex 1.25434 11.9343 -2.5
      vertex -1.25434 11.9343 2.5
      vertex 1.25434 11.9343 2.5
    endloop
  endfacet
  facet normal 0 1 0
    outer loop
      vertex -1.25434 11.9343 2.5
      vertex 1.25434 11.9343 -2.5
      vertex -1.25434 11.9343 -2.5
    endloop
  endfacet
  facet normal 0 -1 0
    outer loop
      vertex -1.25434 -11.9343 -2.5
      vertex 1.25434 -11.9343 2.5
      vertex -1.25434 -11.9343 2.5
    endloop
  endfacet
  facet normal 0 -1 -0
    outer loop
      vertex 1.25434 -11.9343 2.5
      vertex -1.25434 -11.9343 -2.5
      vertex 1.25434 -11.9343 -2.5
    endloop
  endfacet
  facet normal 0.587785 0.809017 -0
    outer loop
      vertex 8.02957 8.91774 -2.5
      vertex 6 10.3923 2.5
      vertex 8.02957 8.91774 2.5
    endloop
  endfacet
  facet normal 0.587785 0.809017 0
    outer loop
      vertex 6 10.3923 2.5
      vertex 8.02957 8.91774 -2.5
      vertex 6 10.3923 -2.5
    endloop
  endfacet
  facet normal 0.406737 0.913545 -0
    outer loop
      vertex 6 10.3923 -2.5
      vertex 3.7082 11.4127 2.5
      vertex 6 10.3923 2.5
    endloop
  endfacet
  facet normal 0.406737 0.913545 0
    outer loop
      vertex 3.7082 11.4127 2.5
      vertex 6 10.3923 -2.5
      vertex 3.7082 11.4127 -2.5
    endloop
  endfacet
  facet normal -0.743145 0.669131 0
    outer loop
      vertex -9.7082 7.05342 -2.5
      vertex -8.02957 8.91774 2.5
      vertex -8.02957 8.91774 -2.5
    endloop
  endfacet
  facet normal -0.743145 0.669131 0
    outer loop
      vertex -8.02957 8.91774 2.5
      vertex -9.7082 7.05342 -2.5
      vertex -9.7082 7.05342 2.5
    endloop
  endfacet
  facet normal -0.866025 0.5 0
    outer loop
      vertex -10.9625 4.88084 -2.5
      vertex -9.7082 7.05342 2.5
      vertex -9.7082 7.05342 -2.5
    endloop
  endfacet
  facet normal -0.866025 0.5 0
    outer loop
      vertex -9.7082 7.05342 2.5
      vertex -10.9625 4.88084 -2.5
      vertex -10.9625 4.88084 2.5
    endloop
  endfacet
  facet normal -0.406737 0.913545 0
    outer loop
      vertex -3.7082 11.4127 -2.5
      vertex -6 10.3923 2.5
      vertex -3.7082 11.4127 2.5
    endloop
  endfacet
  facet normal -0.406737 0.913545 0
    outer loop
      vertex -6 10.3923 2.5
      vertex -3.7082 11.4127 -2.5
      vertex -6 10.3923 -2.5
    endloop
  endfacet
  facet normal 0.866025 -0.5 0
    outer loop
      vertex 9.7082 -7.05342 2.5
      vertex 10.9625 -4.88084 -2.5
      vertex 10.9625 -4.88084 2.5
    endloop
  endfacet
  facet normal 0.866025 -0.5 0
    outer loop
      vertex 10.9625 -4.88084 -2.5
      vertex 9.7082 -7.05342 2.5
      vertex 9.7082 -7.05342 -2.5
    endloop
  endfacet
  facet normal 0.866025 0.5 0
    outer loop
      vertex 10.9625 4.88084 2.5
      vertex 9.7082 7.05342 -2.5
      vertex 9.7082 7.05342 2.5
    endloop
  endfacet
  facet normal 0.866025 0.5 0
    outer loop
      vertex 9.7082 7.05342 -2.5
      vertex 10.9625 4.88084 2.5
      vertex 10.9625 4.88084 -2.5
    endloop
  endfacet
  facet normal 0.951057 0.309017 0
    outer loop
      vertex 11.7378 2.49494 2.5
      vertex 10.9625 4.88084 -2.5
      vertex 10.9625 4.88084 2.5
    endloop
  endfacet
  facet normal 0.951057 0.309017 0
    outer loop
      vertex 10.9625 4.88084 -2.5
      vertex 11.7378 2.49494 2.5
      vertex 11.7378 2.49494 -2.5
    endloop
  endfacet
  facet normal 0.743145 0.669131 0
    outer loop
      vertex 9.7082 7.05342 2.5
      vertex 8.02957 8.91774 -2.5
      vertex 8.02957 8.91774 2.5
    endloop
  endfacet
  facet normal 0.743145 0.669131 0
    outer loop
      vertex 8.02957 8.91774 -2.5
      vertex 9.7082 7.05342 2.5
      vertex 9.7082 7.05342 -2.5
    endloop
  endfacet
  facet normal 0.207912 0.978148 -0
    outer loop
      vertex 3.7082 11.4127 -2.5
      vertex 1.25434 11.9343 2.5
      vertex 3.7082 11.4127 2.5
    endloop
  endfacet
  facet normal 0.207912 0.978148 0
    outer loop
      vertex 1.25434 11.9343 2.5
      vertex 3.7082 11.4127 -2.5
      vertex 1.25434 11.9343 -2.5
    endloop
  endfacet
  facet normal -0.951057 0.309017 0
    outer loop
      vertex -11.7378 2.49494 -2.5
      vertex -10.9625 4.88084 2.5
      vertex -10.9625 4.88084 -2.5
    endloop
  endfacet
  facet normal -0.951057 0.309017 0
    outer loop
      vertex -10.9625 4.88084 2.5
      vertex -11.7378 2.49494 -2.5
      vertex -11.7378 2.49494 2.5
    endloop
  endfacet
  facet normal 0 0 1
    outer loop
      vertex -2.99352 -7.3979 2.5
      vertex -6 -10.3923 2.5
      vertex -3.7082 -11.4127 2.5
    endloop
  endfacet
  facet normal -0 0 1
    outer loop
      vertex -7.36193 -2.98403 2.5
      vertex -2.99352 -7.3979 2.5
      vertex -1.4142 -1.4142 2.5
    endloop
  endfacet
  facet normal 0 0 1
    outer loop
      vertex -8.02957 -8.91774 2.5
      vertex -2.99352 -7.3979 2.5
      vertex -7.36193 -2.98403 2.5
    endloop
  endfacet
  facet normal 0 0 1
    outer loop
      vertex -10.9625 -4.88084 2.5
      vertex -7.36193 -2.98403 2.5
      vertex -7.667 -2.17962 2.5
    endloop
  endfacet
  facet normal 0 0 1
    outer loop
      vertex -2.99352 -7.3979 2.5
      vertex -8.02957 -8.91774 2.5
      vertex -6 -10.3923 2.5
    endloop
  endfacet
  facet normal 0 0 1
    outer loop
      vertex -7.36193 2.98403 2.5
      vertex -10.9625 4.88084 2.5
      vertex -7.667 2.17962 2.5
    endloop
  endfacet
  facet normal -0 0 1
    outer loop
      vertex -11.7378 2.49494 2.5
      vertex -7.667 2.17962 2.5
      vertex -10.9625 4.88084 2.5
    endloop
  endfacet
  facet normal 0 0 1
    outer loop
      vertex -7.36193 -2.98403 2.5
      vertex -9.7082 -7.05342 2.5
      vertex -8.02957 -8.91774 2.5
    endloop
  endfacet
  facet normal 0 0 1
    outer loop
      vertex -12 0 2.5
      vertex -7.667 2.17962 2.5
      vertex -11.7378 2.49494 2.5
    endloop
  endfacet
  facet normal 0 0 1
    outer loop
      vertex -7.36193 -2.98403 2.5
      vertex -10.9625 -4.88084 2.5
      vertex -9.7082 -7.05342 2.5
    endloop
  endfacet
  facet normal 0 0 1
    outer loop
      vertex -7.667 2.17962 2.5
      vertex -12 0 2.5
      vertex -7.667 -2.17962 2.5
    endloop
  endfacet
  facet normal 0 0 1
    outer loop
      vertex -7.667 -2.17962 2.5
      vertex -11.7378 -2.49494 2.5
      vertex -10.9625 -4.88084 2.5
    endloop
  endfacet
  facet normal 0 0 1
    outer loop
      vertex -7.667 -2.17962 2.5
      vertex -12 0 2.5
      vertex -11.7378 -2.49494 2.5
    endloop
  endfacet
  facet normal 0 0 1
    outer loop
      vertex -2 0 2.5
      vertex -7.667 2.17962 2.5
      vertex -7.667 -2.17962 2.5
    endloop
  endfacet
  facet normal 0 0 1
    outer loop
      vertex 3.7082 11.4127 2.5
      vertex 2.83684 7.48013 2.5
      vertex 2.99352 7.3979 2.5
    endloop
  endfacet
  facet normal 0 0 1
    outer loop
      vertex 3.7082 11.4127 2.5
      vertex 2.17087 7.64427 2.5
      vertex 2.83684 7.48013 2.5
    endloop
  endfacet
  facet normal 0 0 1
    outer loop
      vertex 1.25434 11.9343 2.5
      vertex 2.17087 7.64427 2.5
      vertex 3.7082 11.4127 2.5
    endloop
  endfacet
  facet normal 0 0 1
    outer loop
      vertex -2.17087 7.64427 2.5
      vertex 2.17087 7.64427 2.5
      vertex 1.25434 11.9343 2.5
    endloop
  endfacet
  facet normal 0 0 1
    outer loop
      vertex -2.17087 7.64427 2.5
      vertex 1.25434 11.9343 2.5
      vertex -1.25434 11.9343 2.5
    endloop
  endfacet
  facet normal 0 0 1
    outer loop
      vertex 2.17087 7.64427 2.5
      vertex -2.17087 7.64427 2.5
      vertex 0 2 2.5
    endloop
  endfacet
  facet normal -0 0 1
    outer loop
      vertex -3.7082 11.4127 2.5
      vertex -2.17087 7.64427 2.5
      vertex -1.25434 11.9343 2.5
    endloop
  endfacet
  facet normal 0 0 1
    outer loop
      vertex -2.17087 7.64427 2.5
      vertex -3.7082 11.4127 2.5
      vertex -2.83684 7.48013 2.5
    endloop
  endfacet
  facet normal 0 0 1
    outer loop
      vertex -2.83684 7.48013 2.5
      vertex -3.7082 11.4127 2.5
      vertex -2.99352 7.3979 2.5
    endloop
  endfacet
  facet normal 0 0 1
    outer loop
      vertex 7.667 2.17962 2.5
      vertex 2 0 2.5
      vertex 7.667 -2.17962 2.5
    endloop
  endfacet
  facet normal -0 0 1
    outer loop
      vertex 7.667 2.17962 2.5
      vertex 12 0 2.5
      vertex 11.7378 2.49494 2.5
    endloop
  endfacet
  facet normal 0 0 1
    outer loop
      vertex 7.667 2.17962 2.5
      vertex 11.7378 2.49494 2.5
      vertex 10.9625 4.88084 2.5
    endloop
  endfacet
  facet normal 0 0 1
    outer loop
      vertex 7.667 -2.17962 2.5
      vertex 12 0 2.5
      vertex 7.667 2.17962 2.5
    endloop
  endfacet
  facet normal 0 0 1
    outer loop
      vertex 7.36193 2.98403 2.5
      vertex 10.9625 4.88084 2.5
      vertex 9.7082 7.05342 2.5
    endloop
  endfacet
  facet normal 0 0 1
    outer loop
      vertex 12 0 2.5
      vertex 7.667 -2.17962 2.5
      vertex 11.7378 -2.49494 2.5
    endloop
  endfacet
  facet normal 0 0 1
    outer loop
      vertex 7.36193 2.98403 2.5
      vertex 9.7082 7.05342 2.5
      vertex 8.02957 8.91774 2.5
    endloop
  endfacet
  facet normal 0 0 1
    outer loop
      vertex 11.7378 -2.49494 2.5
      vertex 7.667 -2.17962 2.5
      vertex 10.9625 -4.88084 2.5
    endloop
  endfacet
  facet normal -0 0 1
    outer loop
      vertex 7.36193 -2.98403 2.5
      vertex 10.9625 -4.88084 2.5
      vertex 7.667 -2.17962 2.5
    endloop
  endfacet
  facet normal 0 0 1
    outer loop
      vertex 10.9625 4.88084 2.5
      vertex 7.36193 2.98403 2.5
      vertex 7.667 2.17962 2.5
    endloop
  endfacet
  facet normal 0 0 1
    outer loop
      vertex 2.99352 7.3979 2.5
      vertex 8.02957 8.91774 2.5
      vertex 6 10.3923 2.5
    endloop
  endfacet
  facet normal 0 0 1
    outer loop
      vertex 2.99352 7.3979 2.5
      vertex 6 10.3923 2.5
      vertex 3.7082 11.4127 2.5
    endloop
  endfacet
  facet normal 0 0 1
    outer loop
      vertex 8.02957 8.91774 2.5
      vertex 2.99352 7.3979 2.5
      vertex 7.36193 2.98403 2.5
    endloop
  endfacet
  facet normal 0 0 1
    outer loop
      vertex 7.36193 2.98403 2.5
      vertex 2.99352 7.3979 2.5
      vertex 1.4142 1.4142 2.5
    endloop
  endfacet
  facet normal 0 0 1
    outer loop
      vertex 10.9625 -4.88084 2.5
      vertex 7.36193 -2.98403 2.5
      vertex 9.7082 -7.05342 2.5
    endloop
  endfacet
  facet normal 0 0 1
    outer loop
      vertex 9.7082 -7.05342 2.5
      vertex 7.36193 -2.98403 2.5
      vertex 8.02957 -8.91774 2.5
    endloop
  endfacet
  facet normal -0 0 1
    outer loop
      vertex 2.99352 -7.3979 2.5
      vertex 8.02957 -8.91774 2.5
      vertex 7.36193 -2.98403 2.5
    endloop
  endfacet
  facet normal 0 0 1
    outer loop
      vertex 8.02957 -8.91774 2.5
      vertex 2.99352 -7.3979 2.5
      vertex 6 -10.3923 2.5
    endloop
  endfacet
  facet normal 0 0 1
    outer loop
      vertex 6 -10.3923 2.5
      vertex 2.99352 -7.3979 2.5
      vertex 3.7082 -11.4127 2.5
    endloop
  endfacet
  facet normal 0 -0 1
    outer loop
      vertex 2.99352 -7.3979 2.5
      vertex 7.36193 -2.98403 2.5
      vertex 1.4142 -1.4142 2.5
    endloop
  endfacet
  facet normal -0 0 1
    outer loop
      vertex 2.83684 -7.48013 2.5
      vertex 3.7082 -11.4127 2.5
      vertex 2.99352 -7.3979 2.5
    endloop
  endfacet
  facet normal -0 0 1
    outer loop
      vertex 2.17087 -7.64427 2.5
      vertex 3.7082 -11.4127 2.5
      vertex 2.83684 -7.48013 2.5
    endloop
  endfacet
  facet normal 0 0 1
    outer loop
      vertex 2.17087 -7.64427 2.5
      vertex 1.25434 -11.9343 2.5
      vertex 3.7082 -11.4127 2.5
    endloop
  endfacet
  facet normal 0 0 1
    outer loop
      vertex -2.17087 -7.64427 2.5
      vertex 2.17087 -7.64427 2.5
      vertex 0 -2 2.5
    endloop
  endfacet
  facet normal 0 0 1
    outer loop
      vertex 2.17087 -7.64427 2.5
      vertex -2.17087 -7.64427 2.5
      vertex 1.25434 -11.9343 2.5
    endloop
  endfacet
  facet normal 0 0 1
    outer loop
      vertex 1.25434 -11.9343 2.5
      vertex -2.17087 -7.64427 2.5
      vertex -1.25434 -11.9343 2.5
    endloop
  endfacet
  facet normal 0 0 1
    outer loop
      vertex -3.7082 -11.4127 2.5
      vertex -2.17087 -7.64427 2.5
      vertex -2.83684 -7.48013 2.5
    endloop
  endfacet
  facet normal 0 0 1
    outer loop
      vertex -3.7082 -11.4127 2.5
      vertex -2.83684 -7.48013 2.5
      vertex -2.99352 -7.3979 2.5
    endloop
  endfacet
  facet normal 0 0 1
    outer loop
      vertex -2.17087 -7.64427 2.5
      vertex -3.7082 -11.4127 2.5
      vertex -1.25434 -11.9343 2.5
    endloop
  endfacet
  facet normal -0 0 1
    outer loop
      vertex -6 10.3923 2.5
      vertex -2.99352 7.3979 2.5
      vertex -3.7082 11.4127 2.5
    endloop
  endfacet
  facet normal -0 0 1
    outer loop
      vertex -8.02957 8.91774 2.5
      vertex -2.99352 7.3979 2.5
      vertex -6 10.3923 2.5
    endloop
  endfacet
  facet normal 0 0 1
    outer loop
      vertex -2.99352 7.3979 2.5
      vertex -7.36193 2.98403 2.5
      vertex -1.4142 1.4142 2.5
    endloop
  endfacet
  facet normal 0 0 1
    outer loop
      vertex -2.99352 7.3979 2.5
      vertex -8.02957 8.91774 2.5
      vertex -7.36193 2.98403 2.5
    endloop
  endfacet
  facet normal -0 0 1
    outer loop
      vertex -10.9625 4.88084 2.5
      vertex -7.36193 2.98403 2.5
      vertex -9.7082 7.05342 2.5
    endloop
  endfacet
  facet normal -0 0 1
    outer loop
      vertex -9.7082 7.05342 2.5
      vertex -7.36193 2.98403 2.5
      vertex -8.02957 8.91774 2.5
    endloop
  endfacet
  facet normal -0.587785 0.809017 0
    outer loop
      vertex -6 10.3923 -2.5
      vertex -8.02957 8.91774 2.5
      vertex -6 10.3923 2.5
    endloop
  endfacet
  facet normal -0.587785 0.809017 0
    outer loop
      vertex -8.02957 8.91774 2.5
      vertex -6 10.3923 -2.5
      vertex -8.02957 8.91774 -2.5
    endloop
  endfacet
  facet normal -0.207912 0.978148 0
    outer loop
      vertex -1.25434 11.9343 -2.5
      vertex -3.7082 11.4127 2.5
      vertex -1.25434 11.9343 2.5
    endloop
  endfacet
  facet normal -0.207912 0.978148 0
    outer loop
      vertex -3.7082 11.4127 2.5
      vertex -1.25434 11.9343 -2.5
      vertex -3.7082 11.4127 -2.5
    endloop
  endfacet
  facet normal 0 0 -1
    outer loop
      vertex -2.99352 7.3979 -2.5
      vertex -6 10.3923 -2.5
      vertex -3.7082 11.4127 -2.5
    endloop
  endfacet
  facet normal 0 0 -1
    outer loop
      vertex -7.36193 2.98403 -2.5
      vertex -2.99352 7.3979 -2.5
      vertex -1.4142 1.4142 -2.5
    endloop
  endfacet
  facet normal 0 0 -1
    outer loop
      vertex -8.02957 8.91774 -2.5
      vertex -2.99352 7.3979 -2.5
      vertex -7.36193 2.98403 -2.5
    endloop
  endfacet
  facet normal 0 0 -1
    outer loop
      vertex -10.9625 4.88084 -2.5
      vertex -7.36193 2.98403 -2.5
      vertex -7.667 2.17962 -2.5
    endloop
  endfacet
  facet normal 0 0 -1
    outer loop
      vertex -2.99352 7.3979 -2.5
      vertex -8.02957 8.91774 -2.5
      vertex -6 10.3923 -2.5
    endloop
  endfacet
  facet normal -0 0 -1
    outer loop
      vertex -7.36193 -2.98403 -2.5
      vertex -10.9625 -4.88084 -2.5
      vertex -7.667 -2.17962 -2.5
    endloop
  endfacet
  facet normal 0 0 -1
    outer loop
      vertex -11.7378 -2.49494 -2.5
      vertex -7.667 -2.17962 -2.5
      vertex -10.9625 -4.88084 -2.5
    endloop
  endfacet
  facet normal 0 0 -1
    outer loop
      vertex -7.36193 2.98403 -2.5
      vertex -9.7082 7.05342 -2.5
      vertex -8.02957 8.91774 -2.5
    endloop
  endfacet
  facet normal 0 0 -1
    outer loop
      vertex -12 0 -2.5
      vertex -7.667 -2.17962 -2.5
      vertex -11.7378 -2.49494 -2.5
    endloop
  endfacet
  facet normal 0 0 -1
    outer loop
      vertex -7.36193 2.98403 -2.5
      vertex -10.9625 4.88084 -2.5
      vertex -9.7082 7.05342 -2.5
    endloop
  endfacet
  facet normal 0 0 -1
    outer loop
      vertex -7.667 -2.17962 -2.5
      vertex -12 0 -2.5
      vertex -7.667 2.17962 -2.5
    endloop
  endfacet
  facet normal 0 0 -1
    outer loop
      vertex -7.667 2.17962 -2.5
      vertex -11.7378 2.49494 -2.5
      vertex -10.9625 4.88084 -2.5
    endloop
  endfacet
  facet normal -0 0 -1
    outer loop
      vertex -7.667 2.17962 -2.5
      vertex -12 0 -2.5
      vertex -11.7378 2.49494 -2.5
    endloop
  endfacet
  facet normal 0 0 -1
    outer loop
      vertex 3.7082 -11.4127 -2.5
      vertex 2.83684 -7.48013 -2.5
      vertex 2.99352 -7.3979 -2.5
    endloop
  endfacet
  facet normal 0 0 -1
    outer loop
      vertex 3.7082 -11.4127 -2.5
      vertex 2.17087 -7.64427 -2.5
      vertex 2.83684 -7.48013 -2.5
    endloop
  endfacet
  facet normal 0 0 -1
    outer loop
      vertex 1.25434 -11.9343 -2.5
      vertex 2.17087 -7.64427 -2.5
      vertex 3.7082 -11.4127 -2.5
    endloop
  endfacet
  facet normal 0 0 -1
    outer loop
      vertex -2.17087 -7.64427 -2.5
      vertex 2.17087 -7.64427 -2.5
      vertex 1.25434 -11.9343 -2.5
    endloop
  endfacet
  facet normal 0 0 -1
    outer loop
      vertex -2.17087 -7.64427 -2.5
      vertex 1.25434 -11.9343 -2.5
      vertex -1.25434 -11.9343 -2.5
    endloop
  endfacet
  facet normal 0 0 -1
    outer loop
      vertex 2.17087 -7.64427 -2.5
      vertex -2.17087 -7.64427 -2.5
      vertex 0 -2 -2.5
    endloop
  endfacet
  facet normal 0 0 -1
    outer loop
      vertex -3.7082 -11.4127 -2.5
      vertex -2.17087 -7.64427 -2.5
      vertex -1.25434 -11.9343 -2.5
    endloop
  endfacet
  facet normal -0 0 -1
    outer loop
      vertex -2.17087 -7.64427 -2.5
      vertex -3.7082 -11.4127 -2.5
      vertex -2.83684 -7.48013 -2.5
    endloop
  endfacet
  facet normal -0 0 -1
    outer loop
      vertex -2.83684 -7.48013 -2.5
      vertex -3.7082 -11.4127 -2.5
      vertex -2.99352 -7.3979 -2.5
    endloop
  endfacet
  facet normal 0 0 -1
    outer loop
      vertex 7.667 -2.17962 -2.5
      vertex 2 0 -2.5
      vertex 7.667 2.17962 -2.5
    endloop
  endfacet
  facet normal 0 0 -1
    outer loop
      vertex 7.667 -2.17962 -2.5
      vertex 12 0 -2.5
      vertex 11.7378 -2.49494 -2.5
    endloop
  endfacet
  facet normal 0 0 -1
    outer loop
      vertex 7.667 -2.17962 -2.5
      vertex 11.7378 -2.49494 -2.5
      vertex 10.9625 -4.88084 -2.5
    endloop
  endfacet
  facet normal 0 0 -1
    outer loop
      vertex 7.667 2.17962 -2.5
      vertex 12 0 -2.5
      vertex 7.667 -2.17962 -2.5
    endloop
  endfacet
  facet normal 0 0 -1
    outer loop
      vertex 7.36193 -2.98403 -2.5
      vertex 10.9625 -4.88084 -2.5
      vertex 9.7082 -7.05342 -2.5
    endloop
  endfacet
  facet normal 0 0 -1
    outer loop
      vertex 12 0 -2.5
      vertex 7.667 2.17962 -2.5
      vertex 11.7378 2.49494 -2.5
    endloop
  endfacet
  facet normal 0 0 -1
    outer loop
      vertex 7.36193 -2.98403 -2.5
      vertex 9.7082 -7.05342 -2.5
      vertex 8.02957 -8.91774 -2.5
    endloop
  endfacet
  facet normal -0 0 -1
    outer loop
      vertex 11.7378 2.49494 -2.5
      vertex 7.667 2.17962 -2.5
      vertex 10.9625 4.88084 -2.5
    endloop
  endfacet
  facet normal 0 0 -1
    outer loop
      vertex 7.36193 2.98403 -2.5
      vertex 10.9625 4.88084 -2.5
      vertex 7.667 2.17962 -2.5
    endloop
  endfacet
  facet normal 0 0 -1
    outer loop
      vertex 10.9625 -4.88084 -2.5
      vertex 7.36193 -2.98403 -2.5
      vertex 7.667 -2.17962 -2.5
    endloop
  endfacet
  facet normal 0 0 -1
    outer loop
      vertex 2.99352 -7.3979 -2.5
      vertex 8.02957 -8.91774 -2.5
      vertex 6 -10.3923 -2.5
    endloop
  endfacet
  facet normal 0 0 -1
    outer loop
      vertex 2.99352 -7.3979 -2.5
      vertex 6 -10.3923 -2.5
      vertex 3.7082 -11.4127 -2.5
    endloop
  endfacet
  facet normal 0 0 -1
    outer loop
      vertex 8.02957 -8.91774 -2.5
      vertex 2.99352 -7.3979 -2.5
      vertex 7.36193 -2.98403 -2.5
    endloop
  endfacet
  facet normal -0 0 -1
    outer loop
      vertex 7.36193 -2.98403 -2.5
      vertex 2.99352 -7.3979 -2.5
      vertex 1.4142 -1.4142 -2.5
    endloop
  endfacet
  facet normal -0 0 -1
    outer loop
      vertex 10.9625 4.88084 -2.5
      vertex 7.36193 2.98403 -2.5
      vertex 9.7082 7.05342 -2.5
    endloop
  endfacet
  facet normal -0 0 -1
    outer loop
      vertex 9.7082 7.05342 -2.5
      vertex 7.36193 2.98403 -2.5
      vertex 8.02957 8.91774 -2.5
    endloop
  endfacet
  facet normal 0 0 -1
    outer loop
      vertex 2.99352 7.3979 -2.5
      vertex 8.02957 8.91774 -2.5
      vertex 7.36193 2.98403 -2.5
    endloop
  endfacet
  facet normal -0 0 -1
    outer loop
      vertex 8.02957 8.91774 -2.5
      vertex 2.99352 7.3979 -2.5
      vertex 6 10.3923 -2.5
    endloop
  endfacet
  facet normal -0 0 -1
    outer loop
      vertex 6 10.3923 -2.5
      vertex 2.99352 7.3979 -2.5
      vertex 3.7082 11.4127 -2.5
    endloop
  endfacet
  facet normal 0 -0 -1
    outer loop
      vertex 2.99352 7.3979 -2.5
      vertex 7.36193 2.98403 -2.5
      vertex 1.4142 1.4142 -2.5
    endloop
  endfacet
  facet normal 0 0 -1
    outer loop
      vertex 2.83684 7.48013 -2.5
      vertex 3.7082 11.4127 -2.5
      vertex 2.99352 7.3979 -2.5
    endloop
  endfacet
  facet normal 0 0 -1
    outer loop
      vertex 2.17087 7.64427 -2.5
      vertex 3.7082 11.4127 -2.5
      vertex 2.83684 7.48013 -2.5
    endloop
  endfacet
  facet normal 0 0 -1
    outer loop
      vertex 2.17087 7.64427 -2.5
      vertex 1.25434 11.9343 -2.5
      vertex 3.7082 11.4127 -2.5
    endloop
  endfacet
  facet normal 0 0 -1
    outer loop
      vertex -2.17087 7.64427 -2.5
      vertex 2.17087 7.64427 -2.5
      vertex 0 2 -2.5
    endloop
  endfacet
  facet normal 0 0 -1
    outer loop
      vertex 2.17087 7.64427 -2.5
      vertex -2.17087 7.64427 -2.5
      vertex 1.25434 11.9343 -2.5
    endloop
  endfacet
  facet normal -0 0 -1
    outer loop
      vertex 1.25434 11.9343 -2.5
      vertex -2.17087 7.64427 -2.5
      vertex -1.25434 11.9343 -2.5
    endloop
  endfacet
  facet normal 0 0 -1
    outer loop
      vertex -3.7082 11.4127 -2.5
      vertex -2.17087 7.64427 -2.5
      vertex -2.83684 7.48013 -2.5
    endloop
  endfacet
  facet normal 0 0 -1
    outer loop
      vertex -3.7082 11.4127 -2.5
      vertex -2.83684 7.48013 -2.5
      vertex -2.99352 7.3979 -2.5
    endloop
  endfacet
  facet normal 0 0 -1
    outer loop
      vertex -2.17087 7.64427 -2.5
      vertex -3.7082 11.4127 -2.5
      vertex -1.25434 11.9343 -2.5
    endloop
  endfacet
  facet normal 0 0 -1
    outer loop
      vertex -6 -10.3923 -2.5
      vertex -2.99352 -7.3979 -2.5
      vertex -3.7082 -11.4127 -2.5
    endloop
  endfacet
  facet normal 0 0 -1
    outer loop
      vertex -8.02957 -8.91774 -2.5
      vertex -2.99352 -7.3979 -2.5
      vertex -6 -10.3923 -2.5
    endloop
  endfacet
  facet normal 0 0 -1
    outer loop
      vertex -2.99352 -7.3979 -2.5
      vertex -7.36193 -2.98403 -2.5
      vertex -1.4142 -1.4142 -2.5
    endloop
  endfacet
  facet normal -0 0 -1
    outer loop
      vertex -2.99352 -7.3979 -2.5
      vertex -8.02957 -8.91774 -2.5
      vertex -7.36193 -2.98403 -2.5
    endloop
  endfacet
  facet normal 0 0 -1
    outer loop
      vertex -10.9625 -4.88084 -2.5
      vertex -7.36193 -2.98403 -2.5
      vertex -9.7082 -7.05342 -2.5
    endloop
  endfacet
  facet normal 0 0 -1
    outer loop
      vertex -9.7082 -7.05342 -2.5
      vertex -7.36193 -2.98403 -2.5
      vertex -8.02957 -8.91774 -2.5
    endloop
  endfacet
  facet normal -0 0 -1
    outer loop
      vertex -2 0 -2.5
      vertex -7.667 -2.17962 -2.5
      vertex -7.667 2.17962 -2.5
    endloop
  endfacet
  facet normal 0.207912 -0.978148 0
    outer loop
      vertex 1.25434 -11.9343 -2.5
      vertex 3.7082 -11.4127 2.5
      vertex 1.25434 -11.9343 2.5
    endloop
  endfacet
  facet normal 0.207912 -0.978148 0
    outer loop
      vertex 3.7082 -11.4127 2.5
      vertex 1.25434 -11.9343 -2.5
      vertex 3.7082 -11.4127 -2.5
    endloop
  endfacet
  facet normal 0.951057 -0.309017 0
    outer loop
      vertex 10.9625 -4.88084 2.5
      vertex 11.7378 -2.49494 -2.5
      vertex 11.7378 -2.49494 2.5
    endloop
  endfacet
  facet normal 0.951057 -0.309017 0
    outer loop
      vertex 11.7378 -2.49494 -2.5
      vertex 10.9625 -4.88084 2.5
      vertex 10.9625 -4.88084 -2.5
    endloop
  endfacet
  facet normal 0.994522 -0.104529 0
    outer loop
      vertex 11.7378 -2.49494 2.5
      vertex 12 0 -2.5
      vertex 12 0 2.5
    endloop
  endfacet
  facet normal 0.994522 -0.104529 0
    outer loop
      vertex 12 0 -2.5
      vertex 11.7378 -2.49494 2.5
      vertex 11.7378 -2.49494 -2.5
    endloop
  endfacet
  facet normal -0.866025 -0.5 0
    outer loop
      vertex -9.7082 -7.05342 -2.5
      vertex -10.9625 -4.88084 2.5
      vertex -10.9625 -4.88084 -2.5
    endloop
  endfacet
  facet normal -0.866025 -0.5 0
    outer loop
      vertex -10.9625 -4.88084 2.5
      vertex -9.7082 -7.05342 -2.5
      vertex -9.7082 -7.05342 2.5
    endloop
  endfacet
  facet normal 0.587785 -0.809017 0
    outer loop
      vertex 6 -10.3923 -2.5
      vertex 8.02957 -8.91774 2.5
      vertex 6 -10.3923 2.5
    endloop
  endfacet
  facet normal 0.587785 -0.809017 0
    outer loop
      vertex 8.02957 -8.91774 2.5
      vertex 6 -10.3923 -2.5
      vertex 8.02957 -8.91774 -2.5
    endloop
  endfacet
  facet normal 0.406737 -0.913545 0
    outer loop
      vertex 3.7082 -11.4127 -2.5
      vertex 6 -10.3923 2.5
      vertex 3.7082 -11.4127 2.5
    endloop
  endfacet
  facet normal 0.406737 -0.913545 0
    outer loop
      vertex 6 -10.3923 2.5
      vertex 3.7082 -11.4127 -2.5
      vertex 6 -10.3923 -2.5
    endloop
  endfacet
  facet normal -0.207912 -0.978148 0
    outer loop
      vertex -3.7082 -11.4127 -2.5
      vertex -1.25434 -11.9343 2.5
      vertex -3.7082 -11.4127 2.5
    endloop
  endfacet
  facet normal -0.207912 -0.978148 -0
    outer loop
      vertex -1.25434 -11.9343 2.5
      vertex -3.7082 -11.4127 -2.5
      vertex -1.25434 -11.9343 -2.5
    endloop
  endfacet
  facet normal -0.743145 -0.669131 0
    outer loop
      vertex -8.02957 -8.91774 -2.5
      vertex -9.7082 -7.05342 2.5
      vertex -9.7082 -7.05342 -2.5
    endloop
  endfacet
  facet normal -0.743145 -0.669131 0
    outer loop
      vertex -9.7082 -7.05342 2.5
      vertex -8.02957 -8.91774 -2.5
      vertex -8.02957 -8.91774 2.5
    endloop
  endfacet
  facet normal -0.951057 -0.309017 0
    outer loop
      vertex -10.9625 -4.88084 -2.5
      vertex -11.7378 -2.49494 2.5
      vertex -11.7378 -2.49494 -2.5
    endloop
  endfacet
  facet normal -0.951057 -0.309017 0
    outer loop
      vertex -11.7378 -2.49494 2.5
      vertex -10.9625 -4.88084 -2.5
      vertex -10.9625 -4.88084 2.5
    endloop
  endfacet
  facet normal -0.994522 -0.104529 0
    outer loop
      vertex -11.7378 -2.49494 -2.5
      vertex -12 0 2.5
      vertex -12 0 -2.5
    endloop
  endfacet
  facet normal -0.994522 -0.104529 0
    outer loop
      vertex -12 0 2.5
      vertex -11.7378 -2.49494 -2.5
      vertex -11.7378 -2.49494 2.5
    endloop
  endfacet
  facet normal 0.743145 -0.669131 0
    outer loop
      vertex 8.02957 -8.91774 2.5
      vertex 9.7082 -7.05342 -2.5
      vertex 9.7082 -7.05342 2.5
    endloop
  endfacet
  facet normal 0.743145 -0.669131 0
    outer loop
      vertex 9.7082 -7.05342 -2.5
      vertex 8.02957 -8.91774 2.5
      vertex 8.02957 -8.91774 -2.5
    endloop
  endfacet
  facet normal -0.406737 -0.913545 0
    outer loop
      vertex -6 -10.3923 -2.5
      vertex -3.7082 -11.4127 2.5
      vertex -6 -10.3923 2.5
    endloop
  endfacet
  facet normal -0.406737 -0.913545 -0
    outer loop
      vertex -3.7082 -11.4127 2.5
      vertex -6 -10.3923 -2.5
      vertex -3.7082 -11.4127 -2.5
    endloop
  endfacet
  facet normal -0.587785 -0.809017 0
    outer loop
      vertex -8.02957 -8.91774 -2.5
      vertex -6 -10.3923 2.5
      vertex -8.02957 -8.91774 2.5
    endloop
  endfacet
  facet normal -0.587785 -0.809017 -0
    outer loop
      vertex -6 -10.3923 2.5
      vertex -8.02957 -8.91774 -2.5
      vertex -6 -10.3923 -2.5
    endloop
  endfacet
  facet normal 0.464723 -0.885456 0
    outer loop
      vertex -2.99352 7.3979 -2.5
      vertex -2.83684 7.48013 2.5
      vertex -2.99352 7.3979 2.5
    endloop
  endfacet
  facet normal 0.464723 -0.885456 0
    outer loop
      vertex -2.83684 7.48013 2.5
      vertex -2.99352 7.3979 -2.5
      vertex -2.83684 7.48013 -2.5
    endloop
  endfacet
  facet normal -0.935016 -0.354605 0
    outer loop
      vertex 7.667 2.17962 -2.5
      vertex 7.36193 2.98403 2.5
      vertex 7.36193 2.98403 -2.5
    endloop
  endfacet
  facet normal -0.935016 -0.354605 0
    outer loop
      vertex 7.36193 2.98403 2.5
      vertex 7.667 2.17962 -2.5
      vertex 7.667 2.17962 2.5
    endloop
  endfacet
  facet normal -0.239316 -0.970942 0
    outer loop
      vertex 2.17087 7.64427 -2.5
      vertex 2.83684 7.48013 2.5
      vertex 2.17087 7.64427 2.5
    endloop
  endfacet
  facet normal -0.239316 -0.970942 -0
    outer loop
      vertex 2.83684 7.48013 2.5
      vertex 2.17087 7.64427 -2.5
      vertex 2.83684 7.48013 -2.5
    endloop
  endfacet
  facet normal -0.464723 -0.885456 0
    outer loop
      vertex 2.83684 7.48013 -2.5
      vertex 2.99352 7.3979 2.5
      vertex 2.83684 7.48013 2.5
    endloop
  endfacet
  facet normal -0.464723 -0.885456 -0
    outer loop
      vertex 2.99352 7.3979 2.5
      vertex 2.83684 7.48013 -2.5
      vertex 2.99352 7.3979 -2.5
    endloop
  endfacet
  facet normal 0.935016 -0.354605 0
    outer loop
      vertex -7.667 2.17962 2.5
      vertex -7.36193 2.98403 -2.5
      vertex -7.36193 2.98403 2.5
    endloop
  endfacet
  facet normal 0.935016 -0.354605 0
    outer loop
      vertex -7.36193 2.98403 -2.5
      vertex -7.667 2.17962 2.5
      vertex -7.667 2.17962 -2.5
    endloop
  endfacet
  facet normal 0.239316 -0.970942 0
    outer loop
      vertex -2.83684 7.48013 -2.5
      vertex -2.17087 7.64427 2.5
      vertex -2.83684 7.48013 2.5
    endloop
  endfacet
  facet normal 0.239316 -0.970942 0
    outer loop
      vertex -2.17087 7.64427 2.5
      vertex -2.83684 7.48013 -2.5
      vertex -2.17087 7.64427 -2.5
    endloop
  endfacet
  facet normal 0.935016 0.354605 0
    outer loop
      vertex -7.36193 -2.98403 2.5
      vertex -7.667 -2.17962 -2.5
      vertex -7.667 -2.17962 2.5
    endloop
  endfacet
  facet normal 0.935016 0.354605 0
    outer loop
      vertex -7.667 -2.17962 -2.5
      vertex -7.36193 -2.98403 2.5
      vertex -7.36193 -2.98403 -2.5
    endloop
  endfacet
  facet normal -0.239316 0.970942 0
    outer loop
      vertex 2.83684 -7.48013 -2.5
      vertex 2.17087 -7.64427 2.5
      vertex 2.83684 -7.48013 2.5
    endloop
  endfacet
  facet normal -0.239316 0.970942 0
    outer loop
      vertex 2.17087 -7.64427 2.5
      vertex 2.83684 -7.48013 -2.5
      vertex 2.17087 -7.64427 -2.5
    endloop
  endfacet
  facet normal -0.935016 0.354605 0
    outer loop
      vertex 7.36193 -2.98403 -2.5
      vertex 7.667 -2.17962 2.5
      vertex 7.667 -2.17962 -2.5
    endloop
  endfacet
  facet normal -0.935016 0.354605 0
    outer loop
      vertex 7.667 -2.17962 2.5
      vertex 7.36193 -2.98403 -2.5
      vertex 7.36193 -2.98403 2.5
    endloop
  endfacet
  facet normal -0.464723 0.885456 0
    outer loop
      vertex 2.99352 -7.3979 -2.5
      vertex 2.83684 -7.48013 2.5
      vertex 2.99352 -7.3979 2.5
    endloop
  endfacet
  facet normal -0.464723 0.885456 0
    outer loop
      vertex 2.83684 -7.48013 2.5
      vertex 2.99352 -7.3979 -2.5
      vertex 2.83684 -7.48013 -2.5
    endloop
  endfacet
  facet normal 0.464723 0.885456 -0
    outer loop
      vertex -2.83684 -7.48013 -2.5
      vertex -2.99352 -7.3979 2.5
      vertex -2.83684 -7.48013 2.5
    endloop
  endfacet
  facet normal 0.464723 0.885456 0
    outer loop
      vertex -2.99352 -7.3979 2.5
      vertex -2.83684 -7.48013 -2.5
      vertex -2.99352 -7.3979 -2.5
    endloop
  endfacet
  facet normal 0.239316 0.970942 -0
    outer loop
      vertex -2.17087 -7.64427 -2.5
      vertex -2.83684 -7.48013 2.5
      vertex -2.17087 -7.64427 2.5
    endloop
  endfacet
  facet normal 0.239316 0.970942 0
    outer loop
      vertex -2.83684 -7.48013 2.5
      vertex -2.17087 -7.64427 -2.5
      vertex -2.83684 -7.48013 -2.5
    endloop
  endfacet
  facet normal 0.255198 0.966889 -0
    outer loop
      vertex 7.36193 -2.98403 -2.5
      vertex 1.4142 -1.4142 2.5
      vertex 7.36193 -2.98403 2.5
    endloop
  endfacet
  facet normal 0.255198 0.966889 0
    outer loop
      vertex 1.4142 -1.4142 2.5
      vertex 7.36193 -2.98403 -2.5
      vertex 1.4142 -1.4142 -2.5
    endloop
  endfacet
  facet normal -0.358979 -0.933346 0
    outer loop
      vertex 2 0 -2.5
      vertex 7.667 -2.17962 2.5
      vertex 2 0 2.5
    endloop
  endfacet
  facet normal -0.358979 -0.933346 -0
    outer loop
      vertex 7.667 -2.17962 2.5
      vertex 2 0 -2.5
      vertex 7.667 -2.17962 -2.5
    endloop
  endfacet
  facet normal -0.358979 0.933346 0
    outer loop
      vertex 7.667 2.17962 -2.5
      vertex 2 0 2.5
      vertex 7.667 2.17962 2.5
    endloop
  endfacet
  facet normal -0.358979 0.933346 0
    outer loop
      vertex 2 0 2.5
      vertex 7.667 2.17962 -2.5
      vertex 2 0 -2.5
    endloop
  endfacet
  facet normal 0.255198 -0.966889 0
    outer loop
      vertex 1.4142 1.4142 -2.5
      vertex 7.36193 2.98403 2.5
      vertex 1.4142 1.4142 2.5
    endloop
  endfacet
  facet normal 0.255198 -0.966889 0
    outer loop
      vertex 7.36193 2.98403 2.5
      vertex 1.4142 1.4142 -2.5
      vertex 7.36193 2.98403 -2.5
    endloop
  endfacet
  facet normal -0.966889 0.255198 0
    outer loop
      vertex 1.4142 1.4142 -2.5
      vertex 2.99352 7.3979 2.5
      vertex 2.99352 7.3979 -2.5
    endloop
  endfacet
  facet normal -0.966889 0.255198 0
    outer loop
      vertex 2.99352 7.3979 2.5
      vertex 1.4142 1.4142 -2.5
      vertex 1.4142 1.4142 2.5
    endloop
  endfacet
  facet normal 0.933346 -0.358979 0
    outer loop
      vertex 0 2 2.5
      vertex 2.17087 7.64427 -2.5
      vertex 2.17087 7.64427 2.5
    endloop
  endfacet
  facet normal 0.933346 -0.358979 0
    outer loop
      vertex 2.17087 7.64427 -2.5
      vertex 0 2 2.5
      vertex 0 2 -2.5
    endloop
  endfacet
  facet normal -0.933346 -0.358979 0
    outer loop
      vertex 0 2 -2.5
      vertex -2.17087 7.64427 2.5
      vertex -2.17087 7.64427 -2.5
    endloop
  endfacet
  facet normal -0.933346 -0.358979 0
    outer loop
      vertex -2.17087 7.64427 2.5
      vertex 0 2 -2.5
      vertex 0 2 2.5
    endloop
  endfacet
  facet normal 0.966889 0.255198 0
    outer loop
      vertex -1.4142 1.4142 2.5
      vertex -2.99352 7.3979 -2.5
      vertex -2.99352 7.3979 2.5
    endloop
  endfacet
  facet normal 0.966889 0.255198 0
    outer loop
      vertex -2.99352 7.3979 -2.5
      vertex -1.4142 1.4142 2.5
      vertex -1.4142 1.4142 -2.5
    endloop
  endfacet
  facet normal -0.255198 -0.966889 0
    outer loop
      vertex -7.36193 2.98403 -2.5
      vertex -1.4142 1.4142 2.5
      vertex -7.36193 2.98403 2.5
    endloop
  endfacet
  facet normal -0.255198 -0.966889 -0
    outer loop
      vertex -1.4142 1.4142 2.5
      vertex -7.36193 2.98403 -2.5
      vertex -1.4142 1.4142 -2.5
    endloop
  endfacet
  facet normal 0.358979 0.933346 -0
    outer loop
      vertex -2 0 -2.5
      vertex -7.667 2.17962 2.5
      vertex -2 0 2.5
    endloop
  endfacet
  facet normal 0.358979 0.933346 0
    outer loop
      vertex -7.667 2.17962 2.5
      vertex -2 0 -2.5
      vertex -7.667 2.17962 -2.5
    endloop
  endfacet
  facet normal 0.358979 -0.933346 0
    outer loop
      vertex -7.667 -2.17962 -2.5
      vertex -2 0 2.5
      vertex -7.667 -2.17962 2.5
    endloop
  endfacet
  facet normal 0.358979 -0.933346 0
    outer loop
      vertex -2 0 2.5
      vertex -7.667 -2.17962 -2.5
      vertex -2 0 -2.5
    endloop
  endfacet
  facet normal -0.255198 0.966889 0
    outer loop
      vertex -1.4142 -1.4142 -2.5
      vertex -7.36193 -2.98403 2.5
      vertex -1.4142 -1.4142 2.5
    endloop
  endfacet
  facet normal -0.255198 0.966889 0
    outer loop
      vertex -7.36193 -2.98403 2.5
      vertex -1.4142 -1.4142 -2.5
      vertex -7.36193 -2.98403 -2.5
    endloop
  endfacet
  facet normal 0.966889 -0.255198 0
    outer loop
      vertex -2.99352 -7.3979 2.5
      vertex -1.4142 -1.4142 -2.5
      vertex -1.4142 -1.4142 2.5
    endloop
  endfacet
  facet normal 0.966889 -0.255198 0
    outer loop
      vertex -1.4142 -1.4142 -2.5
      vertex -2.99352 -7.3979 2.5
      vertex -2.99352 -7.3979 -2.5
    endloop
  endfacet
  facet normal -0.933346 0.358979 0
    outer loop
      vertex -2.17087 -7.64427 -2.5
      vertex 0 -2 2.5
      vertex 0 -2 -2.5
    endloop
  endfacet
  facet normal -0.933346 0.358979 0
    outer loop
      vertex 0 -2 2.5
      vertex -2.17087 -7.64427 -2.5
      vertex -2.17087 -7.64427 2.5
    endloop
  endfacet
  facet normal 0.933346 0.358979 0
    outer loop
      vertex 2.17087 -7.64427 2.5
      vertex 0 -2 -2.5
      vertex 0 -2 2.5
    endloop
  endfacet
  facet normal 0.933346 0.358979 0
    outer loop
      vertex 0 -2 -2.5
      vertex 2.17087 -7.64427 2.5
      vertex 2.17087 -7.64427 -2.5
    endloop
  endfacet
  facet normal -0.966889 -0.255198 0
    outer loop
      vertex 2.99352 -7.3979 -2.5
      vertex 1.4142 -1.4142 2.5
      vertex 1.4142 -1.4142 -2.5
    endloop
  endfacet
  facet normal -0.966889 -0.255198 0
    outer loop
      vertex 1.4142 -1.4142 2.5
      vertex 2.99352 -7.3979 -2.5
      vertex 2.99352 -7.3979 2.5
    endloop
  endfacet
endsolid OpenSCAD_Model
