solid OpenSCAD_Model
  facet normal 0.987688 0.156434 0
    outer loop
      vertex 5.89655 1.9159 35
      vertex 5.94658 1.6 -16.6
      vertex 5.89655 1.9159 -30
    endloop
  endfacet
  facet normal 0.987688 0.156435 -3.60825e-010
    outer loop
      vertex 6.2 0 35
      vertex 5.94658 1.6 -16.6
      vertex 5.89655 1.9159 35
    endloop
  endfacet
  facet normal 0.987688 0.156435 0
    outer loop
      vertex 5.94658 1.6 -16.6
      vertex 6.2 0 35
      vertex 6.2 0 -16.6
    endloop
  endfacet
  facet normal 0.987688 0.156434 -0
    outer loop
      vertex 5.94658 1.6 -18.6
      vertex 5.89655 1.9159 -30
      vertex 5.94658 1.6 -16.6
    endloop
  endfacet
  facet normal 0.987688 0.156435 -0
    outer loop
      vertex 6.2 0 -30
      vertex 5.94658 1.6 -18.6
      vertex 6.2 0 -18.6
    endloop
  endfacet
  facet normal 0.987688 0.156435 1.63321e-009
    outer loop
      vertex 5.94658 1.6 -18.6
      vertex 6.2 0 -30
      vertex 5.89655 1.9159 -30
    endloop
  endfacet
  facet normal -0.987688 0.156434 0
    outer loop
      vertex -5.94658 1.6 -16.6
      vertex -5.89655 1.9159 -30
      vertex -5.94658 1.6 -18.6
    endloop
  endfacet
  facet normal -0.987688 0.156435 1.63321e-009
    outer loop
      vertex -6.2 0 -30
      vertex -5.94658 1.6 -18.6
      vertex -5.89655 1.9159 -30
    endloop
  endfacet
  facet normal -0.987688 0.156435 0
    outer loop
      vertex -5.94658 1.6 -18.6
      vertex -6.2 0 -30
      vertex -6.2 0 -18.6
    endloop
  endfacet
  facet normal -0.987688 0.156434 0
    outer loop
      vertex -5.89655 1.9159 -30
      vertex -5.94658 1.6 -16.6
      vertex -5.89655 1.9159 35
    endloop
  endfacet
  facet normal -0.987688 0.156435 -4.32066e-010
    outer loop
      vertex -6.2 0 -16.6
      vertex -5.89655 1.9159 35
      vertex -5.94658 1.6 -16.6
    endloop
  endfacet
  facet normal -0.987688 0.156435 0
    outer loop
      vertex -5.89655 1.9159 35
      vertex -6.2 0 -16.6
      vertex -6.2 0 35
    endloop
  endfacet
  facet normal 0.156435 0.987688 -0
    outer loop
      vertex 1.9159 5.89655 -30
      vertex 0 6.2 35
      vertex 1.9159 5.89655 35
    endloop
  endfacet
  facet normal 0.156435 0.987688 0
    outer loop
      vertex 0 6.2 35
      vertex 1.9159 5.89655 -30
      vertex 0 6.2 -30
    endloop
  endfacet
  facet normal -0.156435 -0.987688 0
    outer loop
      vertex -1.9159 -5.89655 -30
      vertex 0 -6.2 35
      vertex -1.9159 -5.89655 35
    endloop
  endfacet
  facet normal -0.156435 -0.987688 -0
    outer loop
      vertex 0 -6.2 35
      vertex -1.9159 -5.89655 -30
      vertex 0 -6.2 -30
    endloop
  endfacet
  facet normal 0.707107 0.707107 0
    outer loop
      vertex 5.0159 3.64427 35
      vertex 3.64427 5.0159 -30
      vertex 3.64427 5.0159 35
    endloop
  endfacet
  facet normal 0.707107 0.707107 0
    outer loop
      vertex 3.64427 5.0159 -30
      vertex 5.0159 3.64427 35
      vertex 5.0159 3.64427 -30
    endloop
  endfacet
  facet normal 0.891006 0.453991 0
    outer loop
      vertex 5.89655 1.9159 35
      vertex 5.0159 3.64427 -30
      vertex 5.0159 3.64427 35
    endloop
  endfacet
  facet normal 0.891006 0.453991 0
    outer loop
      vertex 5.0159 3.64427 -30
      vertex 5.89655 1.9159 35
      vertex 5.89655 1.9159 -30
    endloop
  endfacet
  facet normal 0.453991 0.891006 -0
    outer loop
      vertex 3.64427 5.0159 -30
      vertex 1.9159 5.89655 35
      vertex 3.64427 5.0159 35
    endloop
  endfacet
  facet normal 0.453991 0.891006 0
    outer loop
      vertex 1.9159 5.89655 35
      vertex 3.64427 5.0159 -30
      vertex 1.9159 5.89655 -30
    endloop
  endfacet
  facet normal -0.453991 0.891006 0
    outer loop
      vertex -1.9159 5.89655 -30
      vertex -3.64427 5.0159 35
      vertex -1.9159 5.89655 35
    endloop
  endfacet
  facet normal -0.453991 0.891006 0
    outer loop
      vertex -3.64427 5.0159 35
      vertex -1.9159 5.89655 -30
      vertex -3.64427 5.0159 -30
    endloop
  endfacet
  facet normal 0 0 1
    outer loop
      vertex 5.89655 1.9159 35
      vertex 5.89655 -1.9159 35
      vertex 6.2 0 35
    endloop
  endfacet
  facet normal 0 0 1
    outer loop
      vertex 5.0159 3.64427 35
      vertex 5.89655 -1.9159 35
      vertex 5.89655 1.9159 35
    endloop
  endfacet
  facet normal 0 0 1
    outer loop
      vertex 5.0159 3.64427 35
      vertex 5.0159 -3.64427 35
      vertex 5.89655 -1.9159 35
    endloop
  endfacet
  facet normal 0 0 1
    outer loop
      vertex 3.64427 5.0159 35
      vertex 5.0159 -3.64427 35
      vertex 5.0159 3.64427 35
    endloop
  endfacet
  facet normal 0 0 1
    outer loop
      vertex 3.64427 5.0159 35
      vertex 3.64427 -5.0159 35
      vertex 5.0159 -3.64427 35
    endloop
  endfacet
  facet normal 0 0 1
    outer loop
      vertex 1.9159 5.89655 35
      vertex 3.64427 -5.0159 35
      vertex 3.64427 5.0159 35
    endloop
  endfacet
  facet normal 0 0 1
    outer loop
      vertex 1.9159 5.89655 35
      vertex 1.9159 -5.89655 35
      vertex 3.64427 -5.0159 35
    endloop
  endfacet
  facet normal 0 0 1
    outer loop
      vertex 0 6.2 35
      vertex 1.9159 -5.89655 35
      vertex 1.9159 5.89655 35
    endloop
  endfacet
  facet normal 0 0 1
    outer loop
      vertex 0 6.2 35
      vertex 0 -6.2 35
      vertex 1.9159 -5.89655 35
    endloop
  endfacet
  facet normal -0 0 1
    outer loop
      vertex -1.9159 5.89655 35
      vertex 0 -6.2 35
      vertex 0 6.2 35
    endloop
  endfacet
  facet normal 0 0 1
    outer loop
      vertex -1.9159 5.89655 35
      vertex -1.9159 -5.89655 35
      vertex 0 -6.2 35
    endloop
  endfacet
  facet normal -0 0 1
    outer loop
      vertex -3.64427 5.0159 35
      vertex -1.9159 -5.89655 35
      vertex -1.9159 5.89655 35
    endloop
  endfacet
  facet normal 0 0 1
    outer loop
      vertex -3.64427 5.0159 35
      vertex -3.64427 -5.0159 35
      vertex -1.9159 -5.89655 35
    endloop
  endfacet
  facet normal -0 0 1
    outer loop
      vertex -5.0159 3.64427 35
      vertex -3.64427 -5.0159 35
      vertex -3.64427 5.0159 35
    endloop
  endfacet
  facet normal 0 0 1
    outer loop
      vertex -5.0159 3.64427 35
      vertex -5.0159 -3.64427 35
      vertex -3.64427 -5.0159 35
    endloop
  endfacet
  facet normal -0 0 1
    outer loop
      vertex -5.89655 1.9159 35
      vertex -5.0159 -3.64427 35
      vertex -5.0159 3.64427 35
    endloop
  endfacet
  facet normal 0 0 1
    outer loop
      vertex -5.89655 1.9159 35
      vertex -5.89655 -1.9159 35
      vertex -5.0159 -3.64427 35
    endloop
  endfacet
  facet normal 0 -0 1
    outer loop
      vertex -5.89655 -1.9159 35
      vertex -5.89655 1.9159 35
      vertex -6.2 0 35
    endloop
  endfacet
  facet normal -0.156435 0.987688 0
    outer loop
      vertex 0 6.2 -30
      vertex -1.9159 5.89655 35
      vertex 0 6.2 35
    endloop
  endfacet
  facet normal -0.156435 0.987688 0
    outer loop
      vertex -1.9159 5.89655 35
      vertex 0 6.2 -30
      vertex -1.9159 5.89655 -30
    endloop
  endfacet
  facet normal 0.891006 -0.453991 0
    outer loop
      vertex 5.0159 -3.64427 35
      vertex 5.89655 -1.9159 -30
      vertex 5.89655 -1.9159 35
    endloop
  endfacet
  facet normal 0.891006 -0.453991 0
    outer loop
      vertex 5.89655 -1.9159 -30
      vertex 5.0159 -3.64427 35
      vertex 5.0159 -3.64427 -30
    endloop
  endfacet
  facet normal -0.987688 -0.156435 0
    outer loop
      vertex -6.2 0 -30
      vertex -5.94658 -1.6 -18.6
      vertex -6.2 0 -18.6
    endloop
  endfacet
  facet normal -0.987688 -0.156434 0
    outer loop
      vertex -5.94658 -1.6 -18.6
      vertex -5.89655 -1.9159 -30
      vertex -5.94658 -1.6 -16.6
    endloop
  endfacet
  facet normal -0.987688 -0.156435 1.63321e-009
    outer loop
      vertex -5.89655 -1.9159 -30
      vertex -5.94658 -1.6 -18.6
      vertex -6.2 0 -30
    endloop
  endfacet
  facet normal -0.987688 -0.156435 0
    outer loop
      vertex -5.94658 -1.6 -16.6
      vertex -6.2 0 35
      vertex -6.2 0 -16.6
    endloop
  endfacet
  facet normal -0.987688 -0.156435 -3.60825e-010
    outer loop
      vertex -5.94658 -1.6 -16.6
      vertex -5.89655 -1.9159 35
      vertex -6.2 0 35
    endloop
  endfacet
  facet normal -0.987688 -0.156434 -0
    outer loop
      vertex -5.89655 -1.9159 35
      vertex -5.94658 -1.6 -16.6
      vertex -5.89655 -1.9159 -30
    endloop
  endfacet
  facet normal -0.707107 0.707107 0
    outer loop
      vertex -5.0159 3.64427 -30
      vertex -3.64427 5.0159 35
      vertex -3.64427 5.0159 -30
    endloop
  endfacet
  facet normal -0.707107 0.707107 0
    outer loop
      vertex -3.64427 5.0159 35
      vertex -5.0159 3.64427 -30
      vertex -5.0159 3.64427 35
    endloop
  endfacet
  facet normal -0.891006 0.453991 0
    outer loop
      vertex -5.89655 1.9159 -30
      vertex -5.0159 3.64427 35
      vertex -5.0159 3.64427 -30
    endloop
  endfacet
  facet normal -0.891006 0.453991 0
    outer loop
      vertex -5.0159 3.64427 35
      vertex -5.89655 1.9159 -30
      vertex -5.89655 1.9159 35
    endloop
  endfacet
  facet normal 0.987688 -0.156435 0
    outer loop
      vertex 6.2 0 35
      vertex 5.94658 -1.6 -16.6
      vertex 6.2 0 -16.6
    endloop
  endfacet
  facet normal 0.987688 -0.156434 0
    outer loop
      vertex 5.89655 -1.9159 -30
      vertex 5.94658 -1.6 -16.6
      vertex 5.89655 -1.9159 35
    endloop
  endfacet
  facet normal 0.987688 -0.156435 -3.60825e-010
    outer loop
      vertex 5.89655 -1.9159 35
      vertex 5.94658 -1.6 -16.6
      vertex 6.2 0 35
    endloop
  endfacet
  facet normal 0.987688 -0.156435 0
    outer loop
      vertex 5.94658 -1.6 -18.6
      vertex 6.2 0 -30
      vertex 6.2 0 -18.6
    endloop
  endfacet
  facet normal 0.987688 -0.156435 1.63321e-009
    outer loop
      vertex 5.94658 -1.6 -18.6
      vertex 5.89655 -1.9159 -30
      vertex 6.2 0 -30
    endloop
  endfacet
  facet normal 0.987688 -0.156434 0
    outer loop
      vertex 5.94658 -1.6 -16.6
      vertex 5.89655 -1.9159 -30
      vertex 5.94658 -1.6 -18.6
    endloop
  endfacet
  facet normal 0.156435 -0.987688 0
    outer loop
      vertex 0 -6.2 -30
      vertex 1.9159 -5.89655 35
      vertex 0 -6.2 35
    endloop
  endfacet
  facet normal 0.156435 -0.987688 0
    outer loop
      vertex 1.9159 -5.89655 35
      vertex 0 -6.2 -30
      vertex 1.9159 -5.89655 -30
    endloop
  endfacet
  facet normal -0.707107 -0.707107 0
    outer loop
      vertex -3.64427 -5.0159 -30
      vertex -5.0159 -3.64427 35
      vertex -5.0159 -3.64427 -30
    endloop
  endfacet
  facet normal -0.707107 -0.707107 0
    outer loop
      vertex -5.0159 -3.64427 35
      vertex -3.64427 -5.0159 -30
      vertex -3.64427 -5.0159 35
    endloop
  endfacet
  facet normal -0.891006 -0.453991 0
    outer loop
      vertex -5.0159 -3.64427 -30
      vertex -5.89655 -1.9159 35
      vertex -5.89655 -1.9159 -30
    endloop
  endfacet
  facet normal -0.891006 -0.453991 0
    outer loop
      vertex -5.89655 -1.9159 35
      vertex -5.0159 -3.64427 -30
      vertex -5.0159 -3.64427 35
    endloop
  endfacet
  facet normal 0.453991 -0.891006 0
    outer loop
      vertex 1.9159 -5.89655 -30
      vertex 3.64427 -5.0159 35
      vertex 1.9159 -5.89655 35
    endloop
  endfacet
  facet normal 0.453991 -0.891006 0
    outer loop
      vertex 3.64427 -5.0159 35
      vertex 1.9159 -5.89655 -30
      vertex 3.64427 -5.0159 -30
    endloop
  endfacet
  facet normal 0.707107 -0.707107 0
    outer loop
      vertex 3.64427 -5.0159 35
      vertex 5.0159 -3.64427 -30
      vertex 5.0159 -3.64427 35
    endloop
  endfacet
  facet normal 0.707107 -0.707107 0
    outer loop
      vertex 5.0159 -3.64427 -30
      vertex 3.64427 -5.0159 35
      vertex 3.64427 -5.0159 -30
    endloop
  endfacet
  facet normal -0.453991 -0.891006 0
    outer loop
      vertex -3.64427 -5.0159 -30
      vertex -1.9159 -5.89655 35
      vertex -3.64427 -5.0159 35
    endloop
  endfacet
  facet normal -0.453991 -0.891006 -0
    outer loop
      vertex -1.9159 -5.89655 35
      vertex -3.64427 -5.0159 -30
      vertex -1.9159 -5.89655 -30
    endloop
  endfacet
  facet normal 0 0 -1
    outer loop
      vertex 5.89655 -1.9159 -30
      vertex 5.89655 1.9159 -30
      vertex 6.2 0 -30
    endloop
  endfacet
  facet normal 0 0 -1
    outer loop
      vertex 5.0159 -3.64427 -30
      vertex 5.89655 1.9159 -30
      vertex 5.89655 -1.9159 -30
    endloop
  endfacet
  facet normal 0 0 -1
    outer loop
      vertex 5.0159 -3.64427 -30
      vertex 5.0159 3.64427 -30
      vertex 5.89655 1.9159 -30
    endloop
  endfacet
  facet normal 0 0 -1
    outer loop
      vertex 3.64427 -5.0159 -30
      vertex 5.0159 3.64427 -30
      vertex 5.0159 -3.64427 -30
    endloop
  endfacet
  facet normal 0 0 -1
    outer loop
      vertex 3.64427 -5.0159 -30
      vertex 3.64427 5.0159 -30
      vertex 5.0159 3.64427 -30
    endloop
  endfacet
  facet normal 0 0 -1
    outer loop
      vertex 1.9159 -5.89655 -30
      vertex 3.64427 5.0159 -30
      vertex 3.64427 -5.0159 -30
    endloop
  endfacet
  facet normal 0 0 -1
    outer loop
      vertex 1.9159 -5.89655 -30
      vertex 1.9159 5.89655 -30
      vertex 3.64427 5.0159 -30
    endloop
  endfacet
  facet normal 0 0 -1
    outer loop
      vertex 0 -6.2 -30
      vertex 1.9159 5.89655 -30
      vertex 1.9159 -5.89655 -30
    endloop
  endfacet
  facet normal 0 0 -1
    outer loop
      vertex 0 -6.2 -30
      vertex 0 6.2 -30
      vertex 1.9159 5.89655 -30
    endloop
  endfacet
  facet normal 0 0 -1
    outer loop
      vertex -1.9159 -5.89655 -30
      vertex 0 6.2 -30
      vertex 0 -6.2 -30
    endloop
  endfacet
  facet normal 0 0 -1
    outer loop
      vertex -1.9159 -5.89655 -30
      vertex -1.9159 5.89655 -30
      vertex 0 6.2 -30
    endloop
  endfacet
  facet normal 0 0 -1
    outer loop
      vertex -3.64427 -5.0159 -30
      vertex -1.9159 5.89655 -30
      vertex -1.9159 -5.89655 -30
    endloop
  endfacet
  facet normal 0 0 -1
    outer loop
      vertex -3.64427 -5.0159 -30
      vertex -3.64427 5.0159 -30
      vertex -1.9159 5.89655 -30
    endloop
  endfacet
  facet normal 0 0 -1
    outer loop
      vertex -5.0159 -3.64427 -30
      vertex -3.64427 5.0159 -30
      vertex -3.64427 -5.0159 -30
    endloop
  endfacet
  facet normal 0 0 -1
    outer loop
      vertex -5.0159 -3.64427 -30
      vertex -5.0159 3.64427 -30
      vertex -3.64427 5.0159 -30
    endloop
  endfacet
  facet normal 0 0 -1
    outer loop
      vertex -5.89655 -1.9159 -30
      vertex -5.0159 3.64427 -30
      vertex -5.0159 -3.64427 -30
    endloop
  endfacet
  facet normal 0 0 -1
    outer loop
      vertex -5.89655 -1.9159 -30
      vertex -5.89655 1.9159 -30
      vertex -5.0159 3.64427 -30
    endloop
  endfacet
  facet normal 0 -0 -1
    outer loop
      vertex -5.89655 1.9159 -30
      vertex -5.89655 -1.9159 -30
      vertex -6.2 0 -30
    endloop
  endfacet
  facet normal -1 0 0
    outer loop
      vertex -10.5 -1.6 -18.6
      vertex -10.5 1.6 -16.6
      vertex -10.5 1.6 -18.6
    endloop
  endfacet
  facet normal -1 -0 0
    outer loop
      vertex -10.5 1.6 -16.6
      vertex -10.5 -1.6 -18.6
      vertex -10.5 -1.6 -16.6
    endloop
  endfacet
  facet normal 0 0 1
    outer loop
      vertex -5.94658 1.6 -16.6
      vertex -10.5 1.6 -16.6
      vertex -6.2 0 -16.6
    endloop
  endfacet
  facet normal 0 0 1
    outer loop
      vertex -10.5 -1.6 -16.6
      vertex -6.2 0 -16.6
      vertex -10.5 1.6 -16.6
    endloop
  endfacet
  facet normal 0 0 1
    outer loop
      vertex -6.2 0 -16.6
      vertex -10.5 -1.6 -16.6
      vertex -5.94658 -1.6 -16.6
    endloop
  endfacet
  facet normal 0 0 1
    outer loop
      vertex 10.5 1.6 -16.6
      vertex 6.2 0 -16.6
      vertex 10.5 -1.6 -16.6
    endloop
  endfacet
  facet normal 0 -0 1
    outer loop
      vertex 6.2 0 -16.6
      vertex 10.5 1.6 -16.6
      vertex 5.94658 1.6 -16.6
    endloop
  endfacet
  facet normal 0 0 1
    outer loop
      vertex 10.5 -1.6 -16.6
      vertex 6.2 0 -16.6
      vertex 5.94658 -1.6 -16.6
    endloop
  endfacet
  facet normal 1 -0 0
    outer loop
      vertex 10.5 -1.6 -16.6
      vertex 10.5 1.6 -18.6
      vertex 10.5 1.6 -16.6
    endloop
  endfacet
  facet normal 1 0 0
    outer loop
      vertex 10.5 1.6 -18.6
      vertex 10.5 -1.6 -16.6
      vertex 10.5 -1.6 -18.6
    endloop
  endfacet
  facet normal 0 0 -1
    outer loop
      vertex -5.94658 -1.6 -18.6
      vertex -10.5 -1.6 -18.6
      vertex -6.2 0 -18.6
    endloop
  endfacet
  facet normal 0 0 -1
    outer loop
      vertex -10.5 1.6 -18.6
      vertex -6.2 0 -18.6
      vertex -10.5 -1.6 -18.6
    endloop
  endfacet
  facet normal 0 0 -1
    outer loop
      vertex -6.2 0 -18.6
      vertex -10.5 1.6 -18.6
      vertex -5.94658 1.6 -18.6
    endloop
  endfacet
  facet normal 0 0 -1
    outer loop
      vertex 10.5 -1.6 -18.6
      vertex 6.2 0 -18.6
      vertex 10.5 1.6 -18.6
    endloop
  endfacet
  facet normal 0 -0 -1
    outer loop
      vertex 6.2 0 -18.6
      vertex 10.5 -1.6 -18.6
      vertex 5.94658 -1.6 -18.6
    endloop
  endfacet
  facet normal -0 0 -1
    outer loop
      vertex 10.5 1.6 -18.6
      vertex 6.2 0 -18.6
      vertex 5.94658 1.6 -18.6
    endloop
  endfacet
  facet normal 0 -1 0
    outer loop
      vertex -10.5 -1.6 -18.6
      vertex -5.94658 -1.6 -16.6
      vertex -10.5 -1.6 -16.6
    endloop
  endfacet
  facet normal 0 -1 -0
    outer loop
      vertex -5.94658 -1.6 -16.6
      vertex -10.5 -1.6 -18.6
      vertex -5.94658 -1.6 -18.6
    endloop
  endfacet
  facet normal 0 -1 0
    outer loop
      vertex 5.94658 -1.6 -18.6
      vertex 10.5 -1.6 -16.6
      vertex 5.94658 -1.6 -16.6
    endloop
  endfacet
  facet normal 0 -1 -0
    outer loop
      vertex 10.5 -1.6 -16.6
      vertex 5.94658 -1.6 -18.6
      vertex 10.5 -1.6 -18.6
    endloop
  endfacet
  facet normal 0 1 -0
    outer loop
      vertex 10.5 1.6 -18.6
      vertex 5.94658 1.6 -16.6
      vertex 10.5 1.6 -16.6
    endloop
  endfacet
  facet normal 0 1 0
    outer loop
      vertex 5.94658 1.6 -16.6
      vertex 10.5 1.6 -18.6
      vertex 5.94658 1.6 -18.6
    endloop
  endfacet
  facet normal 0 1 -0
    outer loop
      vertex -5.94658 1.6 -18.6
      vertex -10.5 1.6 -16.6
      vertex -5.94658 1.6 -16.6
    endloop
  endfacet
  facet normal 0 1 0
    outer loop
      vertex -10.5 1.6 -16.6
      vertex -5.94658 1.6 -18.6
      vertex -10.5 1.6 -18.6
    endloop
  endfacet
endsolid OpenSCAD_Model
