solid OpenSCAD_Model
  facet normal -1 0 0
    outer loop
      vertex -10 23 -3
      vertex -10 13 3
      vertex -10 23 62
    endloop
  endfacet
  facet normal -1 0 0
    outer loop
      vertex -10 -23 -3
      vertex -10 13 3
      vertex -10 23 -3
    endloop
  endfacet
  facet normal -1 -0 0
    outer loop
      vertex -10 13 3
      vertex -10 -23 -3
      vertex -10 -23 3
    endloop
  endfacet
  facet normal -1 0 0
    outer loop
      vertex -10 13 57
      vertex -10 23 62
      vertex -10 13 3
    endloop
  endfacet
  facet normal -1 0 0
    outer loop
      vertex -10 -1.29807 62
      vertex -10 13 57
      vertex -10 -1.29807 57
    endloop
  endfacet
  facet normal -1 0 0
    outer loop
      vertex -10 13 57
      vertex -10 -1.29807 62
      vertex -10 23 62
    endloop
  endfacet
  facet normal 0 0 1
    outer loop
      vertex 10 13 3
      vertex 6 5.5 3
      vertex 10 -23 3
    endloop
  endfacet
  facet normal 0 0 1
    outer loop
      vertex 10 13 3
      vertex -6 5.5 3
      vertex 6 5.5 3
    endloop
  endfacet
  facet normal 0 0 1
    outer loop
      vertex -10 -23 3
      vertex -6 5.5 3
      vertex -10 13 3
    endloop
  endfacet
  facet normal -0 0 1
    outer loop
      vertex -10 13 3
      vertex -6 5.5 3
      vertex 10 13 3
    endloop
  endfacet
  facet normal -0 0 1
    outer loop
      vertex 6 -19.5 3
      vertex 10 -23 3
      vertex 6 5.5 3
    endloop
  endfacet
  facet normal -0 0 1
    outer loop
      vertex -6 -19.5 3
      vertex 10 -23 3
      vertex 6 -19.5 3
    endloop
  endfacet
  facet normal 0 0 1
    outer loop
      vertex -6 -19.5 3
      vertex -10 -23 3
      vertex 10 -23 3
    endloop
  endfacet
  facet normal 0 0 1
    outer loop
      vertex -6 5.5 3
      vertex -10 -23 3
      vertex -6 -19.5 3
    endloop
  endfacet
  facet normal 1 0 0
    outer loop
      vertex 10 13 3
      vertex 10 23 62
      vertex 10 13 57
    endloop
  endfacet
  facet normal 1 -0 0
    outer loop
      vertex 10 -1.29807 62
      vertex 10 13 57
      vertex 10 23 62
    endloop
  endfacet
  facet normal 1 0 0
    outer loop
      vertex 10 13 57
      vertex 10 -1.29807 62
      vertex 10 -1.29807 57
    endloop
  endfacet
  facet normal 1 0 0
    outer loop
      vertex 10 23 62
      vertex 10 13 3
      vertex 10 23 -3
    endloop
  endfacet
  facet normal 1 0 0
    outer loop
      vertex 10 -23 -3
      vertex 10 13 3
      vertex 10 -23 3
    endloop
  endfacet
  facet normal 1 0 0
    outer loop
      vertex 10 13 3
      vertex 10 -23 -3
      vertex 10 23 -3
    endloop
  endfacet
  facet normal 0 0 -1
    outer loop
      vertex -6 -23 -3
      vertex -10 -23 -3
      vertex -6 5.5 -3
    endloop
  endfacet
  facet normal 0 0 -1
    outer loop
      vertex 6 5.5 -3
      vertex 10 -23 -3
      vertex 6 -23 -3
    endloop
  endfacet
  facet normal 0 0 -1
    outer loop
      vertex 10 -23 -3
      vertex 6 5.5 -3
      vertex 10 23 -3
    endloop
  endfacet
  facet normal 0 0 -1
    outer loop
      vertex -6 5.5 -3
      vertex 10 23 -3
      vertex 6 5.5 -3
    endloop
  endfacet
  facet normal 0 0 -1
    outer loop
      vertex -6 5.5 -3
      vertex -10 23 -3
      vertex 10 23 -3
    endloop
  endfacet
  facet normal 0 0 -1
    outer loop
      vertex -10 23 -3
      vertex -6 5.5 -3
      vertex -10 -23 -3
    endloop
  endfacet
  facet normal 0 -1 0
    outer loop
      vertex -10 -23 3
      vertex -6 -23 0
      vertex 10 -23 3
    endloop
  endfacet
  facet normal 0 -1 0
    outer loop
      vertex -10 -23 -3
      vertex -6 -23 0
      vertex -10 -23 3
    endloop
  endfacet
  facet normal 0 -1 -0
    outer loop
      vertex -6 -23 0
      vertex -10 -23 -3
      vertex -6 -23 -3
    endloop
  endfacet
  facet normal 0 -1 0
    outer loop
      vertex 6 -23 0
      vertex 10 -23 3
      vertex -6 -23 0
    endloop
  endfacet
  facet normal 0 -1 0
    outer loop
      vertex 10 -23 -3
      vertex 6 -23 0
      vertex 6 -23 -3
    endloop
  endfacet
  facet normal 0 -1 0
    outer loop
      vertex 6 -23 0
      vertex 10 -23 -3
      vertex 10 -23 3
    endloop
  endfacet
  facet normal 0 1 -0
    outer loop
      vertex 10 23 -3
      vertex -10 23 62
      vertex 10 23 62
    endloop
  endfacet
  facet normal 0 1 0
    outer loop
      vertex -10 23 62
      vertex 10 23 -3
      vertex -10 23 -3
    endloop
  endfacet
  facet normal 1 0 0
    outer loop
      vertex -6 -19.5 0
      vertex -6 5.5 3
      vertex -6 -19.5 3
    endloop
  endfacet
  facet normal 1 0 0
    outer loop
      vertex -6 5.5 3
      vertex -6 -19.5 0
      vertex -6 5.5 -3
    endloop
  endfacet
  facet normal 1 0 0
    outer loop
      vertex -6 -23 -3
      vertex -6 -19.5 0
      vertex -6 -23 0
    endloop
  endfacet
  facet normal 1 0 0
    outer loop
      vertex -6 -19.5 0
      vertex -6 -23 -3
      vertex -6 5.5 -3
    endloop
  endfacet
  facet normal -1 0 0
    outer loop
      vertex 6 5.5 -3
      vertex 6 -19.5 0
      vertex 6 5.5 3
    endloop
  endfacet
  facet normal -1 0 0
    outer loop
      vertex 6 -23 -3
      vertex 6 -19.5 0
      vertex 6 5.5 -3
    endloop
  endfacet
  facet normal -1 -0 0
    outer loop
      vertex 6 -19.5 0
      vertex 6 -23 -3
      vertex 6 -23 0
    endloop
  endfacet
  facet normal -1 -0 0
    outer loop
      vertex 6 5.5 3
      vertex 6 -19.5 0
      vertex 6 -19.5 3
    endloop
  endfacet
  facet normal 0 1 -0
    outer loop
      vertex 6 -19.5 0
      vertex -6 -19.5 3
      vertex 6 -19.5 3
    endloop
  endfacet
  facet normal 0 1 0
    outer loop
      vertex -6 -19.5 3
      vertex 6 -19.5 0
      vertex -6 -19.5 0
    endloop
  endfacet
  facet normal 0 -1 0
    outer loop
      vertex -6 5.5 -3
      vertex 6 5.5 3
      vertex -6 5.5 3
    endloop
  endfacet
  facet normal 0 -1 -0
    outer loop
      vertex 6 5.5 3
      vertex -6 5.5 -3
      vertex 6 5.5 -3
    endloop
  endfacet
  facet normal 0 0 -1
    outer loop
      vertex -6 -23 0
      vertex 6 -19.5 0
      vertex 6 -23 0
    endloop
  endfacet
  facet normal -0 0 -1
    outer loop
      vertex 6 -19.5 0
      vertex -6 -23 0
      vertex -6 -19.5 0
    endloop
  endfacet
  facet normal 0 0 1
    outer loop
      vertex -10 -1.29807 62
      vertex 10 -1.29807 62
      vertex 10 23 62
    endloop
  endfacet
  facet normal 0 0 1
    outer loop
      vertex 10 -1.29807 62
      vertex -10 -1.29807 62
      vertex 9.36783 -21.404 62
    endloop
  endfacet
  facet normal 0 0 1
    outer loop
      vertex 9.36783 -21.404 62
      vertex -10 -1.29807 62
      vertex 7 -23.1244 62
    endloop
  endfacet
  facet normal 0 0 1
    outer loop
      vertex 7 -23.1244 62
      vertex -10 -1.29807 62
      vertex 4.32624 -24.3148 62
    endloop
  endfacet
  facet normal 0 0 1
    outer loop
      vertex 4.32624 -24.3148 62
      vertex -10 -1.29807 62
      vertex 1.4634 -24.9233 62
    endloop
  endfacet
  facet normal 0 0 1
    outer loop
      vertex 1.4634 -24.9233 62
      vertex -10 -1.29807 62
      vertex -1.4634 -24.9233 62
    endloop
  endfacet
  facet normal 0 0 1
    outer loop
      vertex -1.4634 -24.9233 62
      vertex -10 -1.29807 62
      vertex -4.32624 -24.3148 62
    endloop
  endfacet
  facet normal 0 0 1
    outer loop
      vertex -4.32624 -24.3148 62
      vertex -10 -1.29807 62
      vertex -7 -23.1244 62
    endloop
  endfacet
  facet normal 0 0 1
    outer loop
      vertex -10 -1.29807 62
      vertex 10 23 62
      vertex -10 23 62
    endloop
  endfacet
  facet normal 0 0 1
    outer loop
      vertex -7 -23.1244 62
      vertex -10 -1.29807 62
      vertex -9.36783 -21.404 62
    endloop
  endfacet
  facet normal 0 0 1
    outer loop
      vertex -12.7896 -5.30569 62
      vertex -10 -1.29807 62
      vertex -11.3262 -2.77101 62
    endloop
  endfacet
  facet normal 0 0 1
    outer loop
      vertex -10 -1.29807 62
      vertex -11.3262 -19.229 62
      vertex -9.36783 -21.404 62
    endloop
  endfacet
  facet normal 0 0 1
    outer loop
      vertex -12.7896 -16.6943 62
      vertex -10 -1.29807 62
      vertex -12.7896 -5.30569 62
    endloop
  endfacet
  facet normal 0 0 1
    outer loop
      vertex -10 -1.29807 62
      vertex -12.7896 -16.6943 62
      vertex -11.3262 -19.229 62
    endloop
  endfacet
  facet normal -0 0 1
    outer loop
      vertex -13.6941 -8.08924 62
      vertex -12.7896 -16.6943 62
      vertex -12.7896 -5.30569 62
    endloop
  endfacet
  facet normal 0 0 1
    outer loop
      vertex -13.6941 -8.08924 62
      vertex -13.6941 -13.9108 62
      vertex -12.7896 -16.6943 62
    endloop
  endfacet
  facet normal 0 -0 1
    outer loop
      vertex -13.6941 -13.9108 62
      vertex -13.6941 -8.08924 62
      vertex -14 -11 62
    endloop
  endfacet
  facet normal 0 0 1
    outer loop
      vertex 13.6941 -8.08924 62
      vertex 13.6941 -13.9108 62
      vertex 14 -11 62
    endloop
  endfacet
  facet normal 0 0 1
    outer loop
      vertex 12.7896 -5.30569 62
      vertex 13.6941 -13.9108 62
      vertex 13.6941 -8.08924 62
    endloop
  endfacet
  facet normal 0 0 1
    outer loop
      vertex 12.7896 -5.30569 62
      vertex 12.7896 -16.6943 62
      vertex 13.6941 -13.9108 62
    endloop
  endfacet
  facet normal 0 0 1
    outer loop
      vertex 10 -1.29807 62
      vertex 12.7896 -5.30569 62
      vertex 11.3262 -2.77101 62
    endloop
  endfacet
  facet normal 0 0 1
    outer loop
      vertex 12.7896 -5.30569 62
      vertex 10 -1.29807 62
      vertex 12.7896 -16.6943 62
    endloop
  endfacet
  facet normal 0 0 1
    outer loop
      vertex 12.7896 -16.6943 62
      vertex 10 -1.29807 62
      vertex 11.3262 -19.229 62
    endloop
  endfacet
  facet normal 0 0 1
    outer loop
      vertex 11.3262 -19.229 62
      vertex 10 -1.29807 62
      vertex 9.36783 -21.404 62
    endloop
  endfacet
  facet normal 0 0 -1
    outer loop
      vertex -12.7896 -5.30569 57
      vertex -9.59223 -6.72927 57
      vertex -10.2705 -8.81693 57
    endloop
  endfacet
  facet normal 0 0 -1
    outer loop
      vertex -13.6941 -8.08924 57
      vertex -10.2705 -8.81693 57
      vertex -10.5 -11 57
    endloop
  endfacet
  facet normal 0 0 -1
    outer loop
      vertex -13.6941 -13.9108 57
      vertex -10.2705 -13.1831 57
      vertex -12.7896 -16.6943 57
    endloop
  endfacet
  facet normal -0 0 -1
    outer loop
      vertex -10.2705 -13.1831 57
      vertex -13.6941 -13.9108 57
      vertex -10.5 -11 57
    endloop
  endfacet
  facet normal 0 0 -1
    outer loop
      vertex -9.59223 -6.72927 57
      vertex -12.7896 -5.30569 57
      vertex -11.3262 -2.77101 57
    endloop
  endfacet
  facet normal 0 0 -1
    outer loop
      vertex -9.59223 -6.72927 57
      vertex -11.3262 -2.77101 57
      vertex -10 -1.29807 57
    endloop
  endfacet
  facet normal 0 0 -1
    outer loop
      vertex -14 -11 57
      vertex -10.5 -11 57
      vertex -13.6941 -13.9108 57
    endloop
  endfacet
  facet normal 0 0 -1
    outer loop
      vertex -10.2705 -8.81693 57
      vertex -13.6941 -8.08924 57
      vertex -12.7896 -5.30569 57
    endloop
  endfacet
  facet normal 0 0 -1
    outer loop
      vertex -10.5 -11 57
      vertex -14 -11 57
      vertex -13.6941 -8.08924 57
    endloop
  endfacet
  facet normal 0 0 -1
    outer loop
      vertex 10.5 -11 57
      vertex 14 -11 57
      vertex 13.6941 -13.9108 57
    endloop
  endfacet
  facet normal 0 0 -1
    outer loop
      vertex 10.2705 -13.1831 57
      vertex 13.6941 -13.9108 57
      vertex 12.7896 -16.6943 57
    endloop
  endfacet
  facet normal 0 0 -1
    outer loop
      vertex 14 -11 57
      vertex 10.5 -11 57
      vertex 13.6941 -8.08924 57
    endloop
  endfacet
  facet normal 0 0 -1
    outer loop
      vertex 9.59223 -15.2707 57
      vertex 12.7896 -16.6943 57
      vertex 11.3262 -19.229 57
    endloop
  endfacet
  facet normal 0 0 -1
    outer loop
      vertex 10.2705 -8.81693 57
      vertex 13.6941 -8.08924 57
      vertex 10.5 -11 57
    endloop
  endfacet
  facet normal -0 0 -1
    outer loop
      vertex 13.6941 -8.08924 57
      vertex 10.2705 -8.81693 57
      vertex 12.7896 -5.30569 57
    endloop
  endfacet
  facet normal 0 0 -1
    outer loop
      vertex 13.6941 -13.9108 57
      vertex 10.2705 -13.1831 57
      vertex 10.5 -11 57
    endloop
  endfacet
  facet normal 0 0 -1
    outer loop
      vertex 12.7896 -16.6943 57
      vertex 9.59223 -15.2707 57
      vertex 10.2705 -13.1831 57
    endloop
  endfacet
  facet normal 0 0 -1
    outer loop
      vertex 8.49468 -17.1717 57
      vertex 11.3262 -19.229 57
      vertex 9.36783 -21.404 57
    endloop
  endfacet
  facet normal 0 0 -1
    outer loop
      vertex 11.3262 -19.229 57
      vertex 8.49468 -17.1717 57
      vertex 9.59223 -15.2707 57
    endloop
  endfacet
  facet normal 0 0 -1
    outer loop
      vertex 9.36783 -21.404 57
      vertex 7.02587 -18.803 57
      vertex 8.49468 -17.1717 57
    endloop
  endfacet
  facet normal 0 0 -1
    outer loop
      vertex 7 -23.1244 57
      vertex 7.02587 -18.803 57
      vertex 9.36783 -21.404 57
    endloop
  endfacet
  facet normal 0 0 -1
    outer loop
      vertex 7 -23.1244 57
      vertex 5.25 -20.0933 57
      vertex 7.02587 -18.803 57
    endloop
  endfacet
  facet normal 0 0 -1
    outer loop
      vertex 4.32624 -24.3148 57
      vertex 5.25 -20.0933 57
      vertex 7 -23.1244 57
    endloop
  endfacet
  facet normal 0 0 -1
    outer loop
      vertex 4.32624 -24.3148 57
      vertex 3.24468 -20.9861 57
      vertex 5.25 -20.0933 57
    endloop
  endfacet
  facet normal 0 0 -1
    outer loop
      vertex 1.4634 -24.9233 57
      vertex 3.24468 -20.9861 57
      vertex 4.32624 -24.3148 57
    endloop
  endfacet
  facet normal 0 0 -1
    outer loop
      vertex 1.4634 -24.9233 57
      vertex 1.09755 -21.4425 57
      vertex 3.24468 -20.9861 57
    endloop
  endfacet
  facet normal 0 0 -1
    outer loop
      vertex 1.4634 -24.9233 57
      vertex -1.09755 -21.4425 57
      vertex 1.09755 -21.4425 57
    endloop
  endfacet
  facet normal 0 0 -1
    outer loop
      vertex -1.4634 -24.9233 57
      vertex -1.09755 -21.4425 57
      vertex 1.4634 -24.9233 57
    endloop
  endfacet
  facet normal 0 0 -1
    outer loop
      vertex -1.4634 -24.9233 57
      vertex -3.24468 -20.9861 57
      vertex -1.09755 -21.4425 57
    endloop
  endfacet
  facet normal 0 0 -1
    outer loop
      vertex -4.32624 -24.3148 57
      vertex -3.24468 -20.9861 57
      vertex -1.4634 -24.9233 57
    endloop
  endfacet
  facet normal 0 0 -1
    outer loop
      vertex -4.32624 -24.3148 57
      vertex -5.25 -20.0933 57
      vertex -3.24468 -20.9861 57
    endloop
  endfacet
  facet normal 0 0 -1
    outer loop
      vertex -7 -23.1244 57
      vertex -5.25 -20.0933 57
      vertex -4.32624 -24.3148 57
    endloop
  endfacet
  facet normal 0 0 -1
    outer loop
      vertex -7 -23.1244 57
      vertex -7.02587 -18.803 57
      vertex -5.25 -20.0933 57
    endloop
  endfacet
  facet normal 0 0 -1
    outer loop
      vertex -9.36783 -21.404 57
      vertex -7.02587 -18.803 57
      vertex -7 -23.1244 57
    endloop
  endfacet
  facet normal -0 0 -1
    outer loop
      vertex -7.02587 -18.803 57
      vertex -9.36783 -21.404 57
      vertex -8.49468 -17.1717 57
    endloop
  endfacet
  facet normal 0 0 -1
    outer loop
      vertex -11.3262 -19.229 57
      vertex -8.49468 -17.1717 57
      vertex -9.36783 -21.404 57
    endloop
  endfacet
  facet normal -0 0 -1
    outer loop
      vertex -8.49468 -17.1717 57
      vertex -11.3262 -19.229 57
      vertex -9.59223 -15.2707 57
    endloop
  endfacet
  facet normal -0 0 -1
    outer loop
      vertex -9.59223 -15.2707 57
      vertex -12.7896 -16.6943 57
      vertex -10.2705 -13.1831 57
    endloop
  endfacet
  facet normal 0 0 -1
    outer loop
      vertex -12.7896 -16.6943 57
      vertex -9.59223 -15.2707 57
      vertex -11.3262 -19.229 57
    endloop
  endfacet
  facet normal 0 0 -1
    outer loop
      vertex 9.59223 -6.72927 57
      vertex 12.7896 -5.30569 57
      vertex 10.2705 -8.81693 57
    endloop
  endfacet
  facet normal -0 0 -1
    outer loop
      vertex 12.7896 -5.30569 57
      vertex 9.59223 -6.72927 57
      vertex 11.3262 -2.77101 57
    endloop
  endfacet
  facet normal 0 0 -1
    outer loop
      vertex 8.49468 -4.82826 57
      vertex 11.3262 -2.77101 57
      vertex 9.59223 -6.72927 57
    endloop
  endfacet
  facet normal -0 0 -1
    outer loop
      vertex 11.3262 -2.77101 57
      vertex 8.49468 -4.82826 57
      vertex 10 -1.29807 57
    endloop
  endfacet
  facet normal 0 0 -1
    outer loop
      vertex 7.02587 -3.19698 57
      vertex 10 -1.29807 57
      vertex 8.49468 -4.82826 57
    endloop
  endfacet
  facet normal 0 0 -1
    outer loop
      vertex 5.25 -1.90673 57
      vertex 10 -1.29807 57
      vertex 7.02587 -3.19698 57
    endloop
  endfacet
  facet normal 0 0 -1
    outer loop
      vertex 3.24468 -1.01391 57
      vertex 10 -1.29807 57
      vertex 5.25 -1.90673 57
    endloop
  endfacet
  facet normal 0 0 -1
    outer loop
      vertex 10 -1.29807 57
      vertex 3.24468 -1.01391 57
      vertex 10 13 57
    endloop
  endfacet
  facet normal 0 0 -1
    outer loop
      vertex 1.09755 -0.557521 57
      vertex 10 13 57
      vertex 3.24468 -1.01391 57
    endloop
  endfacet
  facet normal 0 0 -1
    outer loop
      vertex -1.09755 -0.557521 57
      vertex 10 13 57
      vertex 1.09755 -0.557521 57
    endloop
  endfacet
  facet normal 0 0 -1
    outer loop
      vertex -10 13 57
      vertex -1.09755 -0.557521 57
      vertex -3.24468 -1.01391 57
    endloop
  endfacet
  facet normal 0 0 -1
    outer loop
      vertex -10 -1.29807 57
      vertex -3.24468 -1.01391 57
      vertex -5.25 -1.90673 57
    endloop
  endfacet
  facet normal 0 0 -1
    outer loop
      vertex -10 -1.29807 57
      vertex -5.25 -1.90673 57
      vertex -7.02587 -3.19698 57
    endloop
  endfacet
  facet normal 0 0 -1
    outer loop
      vertex -10 -1.29807 57
      vertex -8.49468 -4.82826 57
      vertex -9.59223 -6.72927 57
    endloop
  endfacet
  facet normal 0 0 -1
    outer loop
      vertex -10 -1.29807 57
      vertex -7.02587 -3.19698 57
      vertex -8.49468 -4.82826 57
    endloop
  endfacet
  facet normal -0 0 -1
    outer loop
      vertex -3.24468 -1.01391 57
      vertex -10 -1.29807 57
      vertex -10 13 57
    endloop
  endfacet
  facet normal 0 0 -1
    outer loop
      vertex -1.09755 -0.557521 57
      vertex -10 13 57
      vertex 10 13 57
    endloop
  endfacet
  facet normal 0.994522 0.104529 0
    outer loop
      vertex 14 -11 62
      vertex 13.6941 -8.08924 57
      vertex 13.6941 -8.08924 62
    endloop
  endfacet
  facet normal 0.994522 0.104529 0
    outer loop
      vertex 13.6941 -8.08924 57
      vertex 14 -11 62
      vertex 14 -11 57
    endloop
  endfacet
  facet normal -0.994522 0.104529 0
    outer loop
      vertex -14 -11 57
      vertex -13.6941 -8.08924 62
      vertex -13.6941 -8.08924 57
    endloop
  endfacet
  facet normal -0.994522 0.104529 0
    outer loop
      vertex -13.6941 -8.08924 62
      vertex -14 -11 57
      vertex -14 -11 62
    endloop
  endfacet
  facet normal 0 -1 0
    outer loop
      vertex -1.4634 -24.9233 57
      vertex 1.4634 -24.9233 62
      vertex -1.4634 -24.9233 62
    endloop
  endfacet
  facet normal 0 -1 -0
    outer loop
      vertex 1.4634 -24.9233 62
      vertex -1.4634 -24.9233 57
      vertex 1.4634 -24.9233 57
    endloop
  endfacet
  facet normal -0.743145 0.669131 0
    outer loop
      vertex -11.3262 -2.77101 57
      vertex -10 -1.29807 62
      vertex -10 -1.29807 57
    endloop
  endfacet
  facet normal -0.743145 0.669131 0
    outer loop
      vertex -10 -1.29807 62
      vertex -11.3262 -2.77101 57
      vertex -11.3262 -2.77101 62
    endloop
  endfacet
  facet normal 0.951057 -0.309017 0
    outer loop
      vertex 12.7896 -16.6943 62
      vertex 13.6941 -13.9108 57
      vertex 13.6941 -13.9108 62
    endloop
  endfacet
  facet normal 0.951057 -0.309017 0
    outer loop
      vertex 13.6941 -13.9108 57
      vertex 12.7896 -16.6943 62
      vertex 12.7896 -16.6943 57
    endloop
  endfacet
  facet normal 0.866026 0.5 0
    outer loop
      vertex 12.7896 -5.30569 62
      vertex 11.3262 -2.77101 57
      vertex 11.3262 -2.77101 62
    endloop
  endfacet
  facet normal 0.866026 0.5 0
    outer loop
      vertex 11.3262 -2.77101 57
      vertex 12.7896 -5.30569 62
      vertex 12.7896 -5.30569 57
    endloop
  endfacet
  facet normal 0.951056 0.309017 0
    outer loop
      vertex 13.6941 -8.08924 62
      vertex 12.7896 -5.30569 57
      vertex 12.7896 -5.30569 62
    endloop
  endfacet
  facet normal 0.951056 0.309017 0
    outer loop
      vertex 12.7896 -5.30569 57
      vertex 13.6941 -8.08924 62
      vertex 13.6941 -8.08924 57
    endloop
  endfacet
  facet normal 0.743145 0.669131 0
    outer loop
      vertex 11.3262 -2.77101 62
      vertex 10 -1.29807 57
      vertex 10 -1.29807 62
    endloop
  endfacet
  facet normal 0.743145 0.669131 0
    outer loop
      vertex 10 -1.29807 57
      vertex 11.3262 -2.77101 62
      vertex 11.3262 -2.77101 57
    endloop
  endfacet
  facet normal -0.866026 0.5 0
    outer loop
      vertex -12.7896 -5.30569 57
      vertex -11.3262 -2.77101 62
      vertex -11.3262 -2.77101 57
    endloop
  endfacet
  facet normal -0.866026 0.5 0
    outer loop
      vertex -11.3262 -2.77101 62
      vertex -12.7896 -5.30569 57
      vertex -12.7896 -5.30569 62
    endloop
  endfacet
  facet normal -0.951056 0.309017 0
    outer loop
      vertex -13.6941 -8.08924 57
      vertex -12.7896 -5.30569 62
      vertex -12.7896 -5.30569 57
    endloop
  endfacet
  facet normal -0.951056 0.309017 0
    outer loop
      vertex -12.7896 -5.30569 62
      vertex -13.6941 -8.08924 57
      vertex -13.6941 -8.08924 62
    endloop
  endfacet
  facet normal 0.994522 -0.104529 0
    outer loop
      vertex 13.6941 -13.9108 62
      vertex 14 -11 57
      vertex 14 -11 62
    endloop
  endfacet
  facet normal 0.994522 -0.104529 0
    outer loop
      vertex 14 -11 57
      vertex 13.6941 -13.9108 62
      vertex 13.6941 -13.9108 57
    endloop
  endfacet
  facet normal -0.994522 -0.104529 0
    outer loop
      vertex -13.6941 -13.9108 57
      vertex -14 -11 62
      vertex -14 -11 57
    endloop
  endfacet
  facet normal -0.994522 -0.104529 0
    outer loop
      vertex -14 -11 62
      vertex -13.6941 -13.9108 57
      vertex -13.6941 -13.9108 62
    endloop
  endfacet
  facet normal 0.866025 -0.5 0
    outer loop
      vertex 11.3262 -19.229 62
      vertex 12.7896 -16.6943 57
      vertex 12.7896 -16.6943 62
    endloop
  endfacet
  facet normal 0.866025 -0.5 0
    outer loop
      vertex 12.7896 -16.6943 57
      vertex 11.3262 -19.229 62
      vertex 11.3262 -19.229 57
    endloop
  endfacet
  facet normal 0.587786 -0.809017 0
    outer loop
      vertex 7 -23.1244 57
      vertex 9.36783 -21.404 62
      vertex 7 -23.1244 62
    endloop
  endfacet
  facet normal 0.587786 -0.809017 0
    outer loop
      vertex 9.36783 -21.404 62
      vertex 7 -23.1244 57
      vertex 9.36783 -21.404 57
    endloop
  endfacet
  facet normal -0.207912 -0.978148 0
    outer loop
      vertex -4.32624 -24.3148 57
      vertex -1.4634 -24.9233 62
      vertex -4.32624 -24.3148 62
    endloop
  endfacet
  facet normal -0.207912 -0.978148 -0
    outer loop
      vertex -1.4634 -24.9233 62
      vertex -4.32624 -24.3148 57
      vertex -1.4634 -24.9233 57
    endloop
  endfacet
  facet normal -0.743145 -0.669131 0
    outer loop
      vertex -9.36783 -21.404 57
      vertex -11.3262 -19.229 62
      vertex -11.3262 -19.229 57
    endloop
  endfacet
  facet normal -0.743145 -0.669131 0
    outer loop
      vertex -11.3262 -19.229 62
      vertex -9.36783 -21.404 57
      vertex -9.36783 -21.404 62
    endloop
  endfacet
  facet normal -0.866025 -0.5 0
    outer loop
      vertex -11.3262 -19.229 57
      vertex -12.7896 -16.6943 62
      vertex -12.7896 -16.6943 57
    endloop
  endfacet
  facet normal -0.866025 -0.5 0
    outer loop
      vertex -12.7896 -16.6943 62
      vertex -11.3262 -19.229 57
      vertex -11.3262 -19.229 62
    endloop
  endfacet
  facet normal -0.951057 -0.309017 0
    outer loop
      vertex -12.7896 -16.6943 57
      vertex -13.6941 -13.9108 62
      vertex -13.6941 -13.9108 57
    endloop
  endfacet
  facet normal -0.951057 -0.309017 0
    outer loop
      vertex -13.6941 -13.9108 62
      vertex -12.7896 -16.6943 57
      vertex -12.7896 -16.6943 62
    endloop
  endfacet
  facet normal 0.406737 -0.913545 0
    outer loop
      vertex 4.32624 -24.3148 57
      vertex 7 -23.1244 62
      vertex 4.32624 -24.3148 62
    endloop
  endfacet
  facet normal 0.406737 -0.913545 0
    outer loop
      vertex 7 -23.1244 62
      vertex 4.32624 -24.3148 57
      vertex 7 -23.1244 57
    endloop
  endfacet
  facet normal 0.207912 -0.978148 0
    outer loop
      vertex 1.4634 -24.9233 57
      vertex 4.32624 -24.3148 62
      vertex 1.4634 -24.9233 62
    endloop
  endfacet
  facet normal 0.207912 -0.978148 0
    outer loop
      vertex 4.32624 -24.3148 62
      vertex 1.4634 -24.9233 57
      vertex 4.32624 -24.3148 57
    endloop
  endfacet
  facet normal 0.743145 -0.669131 0
    outer loop
      vertex 9.36783 -21.404 62
      vertex 11.3262 -19.229 57
      vertex 11.3262 -19.229 62
    endloop
  endfacet
  facet normal 0.743145 -0.669131 0
    outer loop
      vertex 11.3262 -19.229 57
      vertex 9.36783 -21.404 62
      vertex 9.36783 -21.404 57
    endloop
  endfacet
  facet normal -0.406737 -0.913545 0
    outer loop
      vertex -7 -23.1244 57
      vertex -4.32624 -24.3148 62
      vertex -7 -23.1244 62
    endloop
  endfacet
  facet normal -0.406737 -0.913545 -0
    outer loop
      vertex -4.32624 -24.3148 62
      vertex -7 -23.1244 57
      vertex -4.32624 -24.3148 57
    endloop
  endfacet
  facet normal -0.587786 -0.809017 0
    outer loop
      vertex -9.36783 -21.404 57
      vertex -7 -23.1244 62
      vertex -9.36783 -21.404 62
    endloop
  endfacet
  facet normal -0.587786 -0.809017 -0
    outer loop
      vertex -7 -23.1244 62
      vertex -9.36783 -21.404 57
      vertex -7 -23.1244 57
    endloop
  endfacet
  facet normal -0.994522 -0.104529 0
    outer loop
      vertex 10.5 -11 57
      vertex 10.2705 -8.81693 60
      vertex 10.2705 -8.81693 57
    endloop
  endfacet
  facet normal -0.994522 -0.104529 0
    outer loop
      vertex 10.2705 -8.81693 60
      vertex 10.5 -11 57
      vertex 10.5 -11 60
    endloop
  endfacet
  facet normal 0.994522 -0.104529 0
    outer loop
      vertex -10.5 -11 60
      vertex -10.2705 -8.81693 57
      vertex -10.2705 -8.81693 60
    endloop
  endfacet
  facet normal 0.994522 -0.104529 0
    outer loop
      vertex -10.2705 -8.81693 57
      vertex -10.5 -11 60
      vertex -10.5 -11 57
    endloop
  endfacet
  facet normal 0 -1 0
    outer loop
      vertex -1.09755 -0.557521 57
      vertex 1.09755 -0.557521 60
      vertex -1.09755 -0.557521 60
    endloop
  endfacet
  facet normal 0 -1 -0
    outer loop
      vertex 1.09755 -0.557521 60
      vertex -1.09755 -0.557521 57
      vertex 1.09755 -0.557521 57
    endloop
  endfacet
  facet normal 0 1 -0
    outer loop
      vertex 1.09755 -21.4425 57
      vertex -1.09755 -21.4425 60
      vertex 1.09755 -21.4425 60
    endloop
  endfacet
  facet normal 0 1 0
    outer loop
      vertex -1.09755 -21.4425 60
      vertex 1.09755 -21.4425 57
      vertex -1.09755 -21.4425 57
    endloop
  endfacet
  facet normal -0.743145 -0.66913 0
    outer loop
      vertex 8.49468 -4.82826 57
      vertex 7.02587 -3.19698 60
      vertex 7.02587 -3.19698 57
    endloop
  endfacet
  facet normal -0.743145 -0.66913 0
    outer loop
      vertex 7.02587 -3.19698 60
      vertex 8.49468 -4.82826 57
      vertex 8.49468 -4.82826 60
    endloop
  endfacet
  facet normal -0.951056 -0.309017 0
    outer loop
      vertex 10.2705 -8.81693 57
      vertex 9.59223 -6.72927 60
      vertex 9.59223 -6.72927 57
    endloop
  endfacet
  facet normal -0.951056 -0.309017 0
    outer loop
      vertex 9.59223 -6.72927 60
      vertex 10.2705 -8.81693 57
      vertex 10.2705 -8.81693 60
    endloop
  endfacet
  facet normal 0.587785 -0.809017 0
    outer loop
      vertex -7.02587 -3.19698 57
      vertex -5.25 -1.90673 60
      vertex -7.02587 -3.19698 60
    endloop
  endfacet
  facet normal 0.587785 -0.809017 0
    outer loop
      vertex -5.25 -1.90673 60
      vertex -7.02587 -3.19698 57
      vertex -5.25 -1.90673 57
    endloop
  endfacet
  facet normal 0.406736 -0.913546 0
    outer loop
      vertex -5.25 -1.90673 57
      vertex -3.24468 -1.01391 60
      vertex -5.25 -1.90673 60
    endloop
  endfacet
  facet normal 0.406736 -0.913546 0
    outer loop
      vertex -3.24468 -1.01391 60
      vertex -5.25 -1.90673 57
      vertex -3.24468 -1.01391 57
    endloop
  endfacet
  facet normal -0.866025 0.5 0
    outer loop
      vertex 8.49468 -17.1717 57
      vertex 9.59223 -15.2707 60
      vertex 9.59223 -15.2707 57
    endloop
  endfacet
  facet normal -0.866025 0.5 0
    outer loop
      vertex 9.59223 -15.2707 60
      vertex 8.49468 -17.1717 57
      vertex 8.49468 -17.1717 60
    endloop
  endfacet
  facet normal -0.866025 -0.5 0
    outer loop
      vertex 9.59223 -6.72927 57
      vertex 8.49468 -4.82826 60
      vertex 8.49468 -4.82826 57
    endloop
  endfacet
  facet normal -0.866025 -0.5 0
    outer loop
      vertex 8.49468 -4.82826 60
      vertex 9.59223 -6.72927 57
      vertex 9.59223 -6.72927 60
    endloop
  endfacet
  facet normal -0.406736 -0.913546 0
    outer loop
      vertex 3.24468 -1.01391 57
      vertex 5.25 -1.90673 60
      vertex 3.24468 -1.01391 60
    endloop
  endfacet
  facet normal -0.406736 -0.913546 -0
    outer loop
      vertex 5.25 -1.90673 60
      vertex 3.24468 -1.01391 57
      vertex 5.25 -1.90673 57
    endloop
  endfacet
  facet normal -0.207912 -0.978148 0
    outer loop
      vertex 1.09755 -0.557521 57
      vertex 3.24468 -1.01391 60
      vertex 1.09755 -0.557521 60
    endloop
  endfacet
  facet normal -0.207912 -0.978148 -0
    outer loop
      vertex 3.24468 -1.01391 60
      vertex 1.09755 -0.557521 57
      vertex 3.24468 -1.01391 57
    endloop
  endfacet
  facet normal -0.587785 -0.809017 0
    outer loop
      vertex 5.25 -1.90673 57
      vertex 7.02587 -3.19698 60
      vertex 5.25 -1.90673 60
    endloop
  endfacet
  facet normal -0.587785 -0.809017 -0
    outer loop
      vertex 7.02587 -3.19698 60
      vertex 5.25 -1.90673 57
      vertex 7.02587 -3.19698 57
    endloop
  endfacet
  facet normal 0.866025 -0.5 0
    outer loop
      vertex -9.59223 -6.72927 60
      vertex -8.49468 -4.82826 57
      vertex -8.49468 -4.82826 60
    endloop
  endfacet
  facet normal 0.866025 -0.5 0
    outer loop
      vertex -8.49468 -4.82826 57
      vertex -9.59223 -6.72927 60
      vertex -9.59223 -6.72927 57
    endloop
  endfacet
  facet normal 0.743145 -0.66913 0
    outer loop
      vertex -8.49468 -4.82826 60
      vertex -7.02587 -3.19698 57
      vertex -7.02587 -3.19698 60
    endloop
  endfacet
  facet normal 0.743145 -0.66913 0
    outer loop
      vertex -7.02587 -3.19698 57
      vertex -8.49468 -4.82826 60
      vertex -8.49468 -4.82826 57
    endloop
  endfacet
  facet normal 0.951056 -0.309017 0
    outer loop
      vertex -10.2705 -8.81693 60
      vertex -9.59223 -6.72927 57
      vertex -9.59223 -6.72927 60
    endloop
  endfacet
  facet normal 0.951056 -0.309017 0
    outer loop
      vertex -9.59223 -6.72927 57
      vertex -10.2705 -8.81693 60
      vertex -10.2705 -8.81693 57
    endloop
  endfacet
  facet normal 0 0 -1
    outer loop
      vertex 10.2705 -13.1831 60
      vertex 10.2705 -8.81693 60
      vertex 10.5 -11 60
    endloop
  endfacet
  facet normal 0 0 -1
    outer loop
      vertex 9.59223 -15.2707 60
      vertex 10.2705 -8.81693 60
      vertex 10.2705 -13.1831 60
    endloop
  endfacet
  facet normal 0 0 -1
    outer loop
      vertex 9.59223 -15.2707 60
      vertex 9.59223 -6.72927 60
      vertex 10.2705 -8.81693 60
    endloop
  endfacet
  facet normal 0 0 -1
    outer loop
      vertex 8.49468 -17.1717 60
      vertex 9.59223 -6.72927 60
      vertex 9.59223 -15.2707 60
    endloop
  endfacet
  facet normal 0 0 -1
    outer loop
      vertex 8.49468 -17.1717 60
      vertex 8.49468 -4.82826 60
      vertex 9.59223 -6.72927 60
    endloop
  endfacet
  facet normal 0 0 -1
    outer loop
      vertex 7.02587 -18.803 60
      vertex 8.49468 -4.82826 60
      vertex 8.49468 -17.1717 60
    endloop
  endfacet
  facet normal 0 0 -1
    outer loop
      vertex 7.02587 -18.803 60
      vertex 7.02587 -3.19698 60
      vertex 8.49468 -4.82826 60
    endloop
  endfacet
  facet normal 0 0 -1
    outer loop
      vertex 5.25 -20.0933 60
      vertex 7.02587 -3.19698 60
      vertex 7.02587 -18.803 60
    endloop
  endfacet
  facet normal 0 0 -1
    outer loop
      vertex 5.25 -20.0933 60
      vertex 5.25 -1.90673 60
      vertex 7.02587 -3.19698 60
    endloop
  endfacet
  facet normal 0 0 -1
    outer loop
      vertex 3.24468 -20.9861 60
      vertex 5.25 -1.90673 60
      vertex 5.25 -20.0933 60
    endloop
  endfacet
  facet normal 0 0 -1
    outer loop
      vertex 3.24468 -20.9861 60
      vertex 3.24468 -1.01391 60
      vertex 5.25 -1.90673 60
    endloop
  endfacet
  facet normal 0 0 -1
    outer loop
      vertex 1.09755 -21.4425 60
      vertex 3.24468 -1.01391 60
      vertex 3.24468 -20.9861 60
    endloop
  endfacet
  facet normal 0 0 -1
    outer loop
      vertex 1.09755 -21.4425 60
      vertex 1.09755 -0.557521 60
      vertex 3.24468 -1.01391 60
    endloop
  endfacet
  facet normal 0 0 -1
    outer loop
      vertex -1.09755 -21.4425 60
      vertex 1.09755 -0.557521 60
      vertex 1.09755 -21.4425 60
    endloop
  endfacet
  facet normal 0 0 -1
    outer loop
      vertex -1.09755 -21.4425 60
      vertex -1.09755 -0.557521 60
      vertex 1.09755 -0.557521 60
    endloop
  endfacet
  facet normal 0 0 -1
    outer loop
      vertex -3.24468 -20.9861 60
      vertex -1.09755 -0.557521 60
      vertex -1.09755 -21.4425 60
    endloop
  endfacet
  facet normal 0 0 -1
    outer loop
      vertex -3.24468 -20.9861 60
      vertex -3.24468 -1.01391 60
      vertex -1.09755 -0.557521 60
    endloop
  endfacet
  facet normal 0 0 -1
    outer loop
      vertex -3.24468 -20.9861 60
      vertex -5.25 -1.90673 60
      vertex -3.24468 -1.01391 60
    endloop
  endfacet
  facet normal 0 0 -1
    outer loop
      vertex -5.25 -20.0933 60
      vertex -5.25 -1.90673 60
      vertex -3.24468 -20.9861 60
    endloop
  endfacet
  facet normal 0 0 -1
    outer loop
      vertex -7.02587 -18.803 60
      vertex -5.25 -1.90673 60
      vertex -5.25 -20.0933 60
    endloop
  endfacet
  facet normal 0 0 -1
    outer loop
      vertex -7.02587 -18.803 60
      vertex -7.02587 -3.19698 60
      vertex -5.25 -1.90673 60
    endloop
  endfacet
  facet normal 0 0 -1
    outer loop
      vertex -8.49468 -17.1717 60
      vertex -7.02587 -3.19698 60
      vertex -7.02587 -18.803 60
    endloop
  endfacet
  facet normal 0 0 -1
    outer loop
      vertex -8.49468 -17.1717 60
      vertex -8.49468 -4.82826 60
      vertex -7.02587 -3.19698 60
    endloop
  endfacet
  facet normal 0 0 -1
    outer loop
      vertex -9.59223 -15.2707 60
      vertex -8.49468 -4.82826 60
      vertex -8.49468 -17.1717 60
    endloop
  endfacet
  facet normal 0 0 -1
    outer loop
      vertex -9.59223 -15.2707 60
      vertex -9.59223 -6.72927 60
      vertex -8.49468 -4.82826 60
    endloop
  endfacet
  facet normal 0 0 -1
    outer loop
      vertex -10.2705 -13.1831 60
      vertex -9.59223 -6.72927 60
      vertex -9.59223 -15.2707 60
    endloop
  endfacet
  facet normal 0 0 -1
    outer loop
      vertex -10.2705 -13.1831 60
      vertex -10.2705 -8.81693 60
      vertex -9.59223 -6.72927 60
    endloop
  endfacet
  facet normal 0 -0 -1
    outer loop
      vertex -10.2705 -8.81693 60
      vertex -10.2705 -13.1831 60
      vertex -10.5 -11 60
    endloop
  endfacet
  facet normal 0.207912 -0.978148 0
    outer loop
      vertex -3.24468 -1.01391 57
      vertex -1.09755 -0.557521 60
      vertex -3.24468 -1.01391 60
    endloop
  endfacet
  facet normal 0.207912 -0.978148 0
    outer loop
      vertex -1.09755 -0.557521 60
      vertex -3.24468 -1.01391 57
      vertex -1.09755 -0.557521 57
    endloop
  endfacet
  facet normal -0.587785 0.809017 0
    outer loop
      vertex 7.02587 -18.803 57
      vertex 5.25 -20.0933 60
      vertex 7.02587 -18.803 60
    endloop
  endfacet
  facet normal -0.587785 0.809017 0
    outer loop
      vertex 5.25 -20.0933 60
      vertex 7.02587 -18.803 57
      vertex 5.25 -20.0933 57
    endloop
  endfacet
  facet normal -0.743145 0.66913 0
    outer loop
      vertex 7.02587 -18.803 57
      vertex 8.49468 -17.1717 60
      vertex 8.49468 -17.1717 57
    endloop
  endfacet
  facet normal -0.743145 0.66913 0
    outer loop
      vertex 8.49468 -17.1717 60
      vertex 7.02587 -18.803 57
      vertex 7.02587 -18.803 60
    endloop
  endfacet
  facet normal -0.951056 0.309017 0
    outer loop
      vertex 9.59223 -15.2707 57
      vertex 10.2705 -13.1831 60
      vertex 10.2705 -13.1831 57
    endloop
  endfacet
  facet normal -0.951056 0.309017 0
    outer loop
      vertex 10.2705 -13.1831 60
      vertex 9.59223 -15.2707 57
      vertex 9.59223 -15.2707 60
    endloop
  endfacet
  facet normal -0.994522 0.104529 0
    outer loop
      vertex 10.2705 -13.1831 57
      vertex 10.5 -11 60
      vertex 10.5 -11 57
    endloop
  endfacet
  facet normal -0.994522 0.104529 0
    outer loop
      vertex 10.5 -11 60
      vertex 10.2705 -13.1831 57
      vertex 10.2705 -13.1831 60
    endloop
  endfacet
  facet normal 0.587785 0.809017 -0
    outer loop
      vertex -5.25 -20.0933 57
      vertex -7.02587 -18.803 60
      vertex -5.25 -20.0933 60
    endloop
  endfacet
  facet normal 0.587785 0.809017 0
    outer loop
      vertex -7.02587 -18.803 60
      vertex -5.25 -20.0933 57
      vertex -7.02587 -18.803 57
    endloop
  endfacet
  facet normal 0.866025 0.5 0
    outer loop
      vertex -8.49468 -17.1717 60
      vertex -9.59223 -15.2707 57
      vertex -9.59223 -15.2707 60
    endloop
  endfacet
  facet normal 0.866025 0.5 0
    outer loop
      vertex -9.59223 -15.2707 57
      vertex -8.49468 -17.1717 60
      vertex -8.49468 -17.1717 57
    endloop
  endfacet
  facet normal 0.743145 0.66913 0
    outer loop
      vertex -7.02587 -18.803 60
      vertex -8.49468 -17.1717 57
      vertex -8.49468 -17.1717 60
    endloop
  endfacet
  facet normal 0.743145 0.66913 0
    outer loop
      vertex -8.49468 -17.1717 57
      vertex -7.02587 -18.803 60
      vertex -7.02587 -18.803 57
    endloop
  endfacet
  facet normal 0.994522 0.104529 0
    outer loop
      vertex -10.2705 -13.1831 60
      vertex -10.5 -11 57
      vertex -10.5 -11 60
    endloop
  endfacet
  facet normal 0.994522 0.104529 0
    outer loop
      vertex -10.5 -11 57
      vertex -10.2705 -13.1831 60
      vertex -10.2705 -13.1831 57
    endloop
  endfacet
  facet normal -0.207912 0.978148 0
    outer loop
      vertex 3.24468 -20.9861 57
      vertex 1.09755 -21.4425 60
      vertex 3.24468 -20.9861 60
    endloop
  endfacet
  facet normal -0.207912 0.978148 0
    outer loop
      vertex 1.09755 -21.4425 60
      vertex 3.24468 -20.9861 57
      vertex 1.09755 -21.4425 57
    endloop
  endfacet
  facet normal 0.951056 0.309017 0
    outer loop
      vertex -9.59223 -15.2707 60
      vertex -10.2705 -13.1831 57
      vertex -10.2705 -13.1831 60
    endloop
  endfacet
  facet normal 0.951056 0.309017 0
    outer loop
      vertex -10.2705 -13.1831 57
      vertex -9.59223 -15.2707 60
      vertex -9.59223 -15.2707 57
    endloop
  endfacet
  facet normal -0.406736 0.913546 0
    outer loop
      vertex 5.25 -20.0933 57
      vertex 3.24468 -20.9861 60
      vertex 5.25 -20.0933 60
    endloop
  endfacet
  facet normal -0.406736 0.913546 0
    outer loop
      vertex 3.24468 -20.9861 60
      vertex 5.25 -20.0933 57
      vertex 3.24468 -20.9861 57
    endloop
  endfacet
  facet normal 0.406736 0.913546 -0
    outer loop
      vertex -3.24468 -20.9861 57
      vertex -5.25 -20.0933 60
      vertex -3.24468 -20.9861 60
    endloop
  endfacet
  facet normal 0.406736 0.913546 0
    outer loop
      vertex -5.25 -20.0933 60
      vertex -3.24468 -20.9861 57
      vertex -5.25 -20.0933 57
    endloop
  endfacet
  facet normal 0.207912 0.978148 -0
    outer loop
      vertex -1.09755 -21.4425 57
      vertex -3.24468 -20.9861 60
      vertex -1.09755 -21.4425 60
    endloop
  endfacet
  facet normal 0.207912 0.978148 0
    outer loop
      vertex -3.24468 -20.9861 60
      vertex -1.09755 -21.4425 57
      vertex -3.24468 -20.9861 57
    endloop
  endfacet
  facet normal 0 -1 0
    outer loop
      vertex -10 13 3
      vertex 10 13 57
      vertex -10 13 57
    endloop
  endfacet
  facet normal 0 -1 -0
    outer loop
      vertex 10 13 57
      vertex -10 13 3
      vertex 10 13 3
    endloop
  endfacet
endsolid OpenSCAD_Model
