solid OpenSCAD_Model
  facet normal 0 0 1
    outer loop
      vertex -3.225 -5.58586 5
      vertex -7.98019 -6 5
      vertex -2.1698 -6 5
    endloop
  endfacet
  facet normal 0 0 1
    outer loop
      vertex -4.72818 -4.38711 5
      vertex -7.98019 -6 5
      vertex -3.225 -5.58586 5
    endloop
  endfacet
  facet normal 0 0 1
    outer loop
      vertex -8.09017 -5.87785 5
      vertex -4.72818 -4.38711 5
      vertex -5.81125 -2.79855 5
    endloop
  endfacet
  facet normal 0 0 1
    outer loop
      vertex -9.13545 -4.06737 5
      vertex -5.81125 -2.79855 5
      vertex -6.05757 -2 5
    endloop
  endfacet
  facet normal 0 0 1
    outer loop
      vertex -4.72818 -4.38711 5
      vertex -8.09017 -5.87785 5
      vertex -7.98019 -6 5
    endloop
  endfacet
  facet normal 0 0 1
    outer loop
      vertex -5.81125 -2.79855 5
      vertex -9.13545 -4.06737 5
      vertex -8.09017 -5.87785 5
    endloop
  endfacet
  facet normal 0 0 1
    outer loop
      vertex -6.05757 -2 5
      vertex -9.78148 -2.07912 5
      vertex -9.13545 -4.06737 5
    endloop
  endfacet
  facet normal 0 -0 1
    outer loop
      vertex -9.78148 -2.07912 5
      vertex -6.05757 -2 5
      vertex -9.78979 -2 5
    endloop
  endfacet
  facet normal 0 0 1
    outer loop
      vertex 6.11585 2 5
      vertex 9.78148 2.07912 5
      vertex 9.13545 4.06737 5
    endloop
  endfacet
  facet normal 0 0 1
    outer loop
      vertex 5.32924 3.63341 5
      vertex 9.13545 4.06737 5
      vertex 8.09017 5.87785 5
    endloop
  endfacet
  facet normal 0 0 1
    outer loop
      vertex 5.32924 3.63341 5
      vertex 8.09017 5.87785 5
      vertex 7.98019 6 5
    endloop
  endfacet
  facet normal 0 0 1
    outer loop
      vertex 9.78148 2.07912 5
      vertex 6.11585 2 5
      vertex 9.78979 2 5
    endloop
  endfacet
  facet normal 0 0 1
    outer loop
      vertex 9.13545 4.06737 5
      vertex 5.32924 3.63341 5
      vertex 6.11585 2 5
    endloop
  endfacet
  facet normal 0 0 1
    outer loop
      vertex 7.98019 6 5
      vertex 4.02151 5.04281 5
      vertex 5.32924 3.63341 5
    endloop
  endfacet
  facet normal 0 -0 1
    outer loop
      vertex 4.02151 5.04281 5
      vertex 7.98019 6 5
      vertex 2.36361 6 5
    endloop
  endfacet
  facet normal 0.994522 0.104523 -0
    outer loop
      vertex 9.78979 2 2
      vertex 9.78148 2.07912 5
      vertex 9.78979 2 5
    endloop
  endfacet
  facet normal 0.994522 0.104523 0
    outer loop
      vertex 9.78148 2.07912 5
      vertex 9.78979 2 2
      vertex 9.78148 2.07912 -2
    endloop
  endfacet
  facet normal 0.994522 0.104529 -0
    outer loop
      vertex 10 0 -2
      vertex 9.78979 2 2
      vertex 10 0 2
    endloop
  endfacet
  facet normal 0.994522 0.104529 1.15056e-007
    outer loop
      vertex 9.78979 2 2
      vertex 10 0 -2
      vertex 9.78148 2.07912 -2
    endloop
  endfacet
  facet normal -0.994522 0.104531 0
    outer loop
      vertex -9.8003 1.9 2
      vertex -9.78148 2.07912 3.96044
      vertex -9.78148 2.07912 -2
    endloop
  endfacet
  facet normal -0.994522 0.104531 0
    outer loop
      vertex -9.8003 1.9 4
      vertex -9.78148 2.07912 3.96044
      vertex -9.8003 1.9 2
    endloop
  endfacet
  facet normal -0.994522 0.104529 -1.05985e-007
    outer loop
      vertex -10 0 -2
      vertex -9.8003 1.9 2
      vertex -9.78148 2.07912 -2
    endloop
  endfacet
  facet normal -0.994522 0.104529 0
    outer loop
      vertex -9.8003 1.9 2
      vertex -10 0 -2
      vertex -10 0 2
    endloop
  endfacet
  facet normal -0.994521 0.104538 2.93172e-005
    outer loop
      vertex -9.78148 2.07912 3.96044
      vertex -9.8003 1.9 4
      vertex -9.78979 2 4
    endloop
  endfacet
  facet normal 0 1 -0
    outer loop
      vertex 1.04528 9.94522 -2
      vertex -1.04528 9.94522 2
      vertex 1.04528 9.94522 2
    endloop
  endfacet
  facet normal 0 1 0
    outer loop
      vertex -1.04528 9.94522 2
      vertex 1.04528 9.94522 -2
      vertex -1.04528 9.94522 -2
    endloop
  endfacet
  facet normal 0 -1 0
    outer loop
      vertex -1.04528 -9.94522 -2
      vertex 1.04528 -9.94522 2
      vertex -1.04528 -9.94522 2
    endloop
  endfacet
  facet normal 0 -1 -0
    outer loop
      vertex 1.04528 -9.94522 2
      vertex -1.04528 -9.94522 -2
      vertex 1.04528 -9.94522 -2
    endloop
  endfacet
  facet normal 0.587785 0.809017 -0
    outer loop
      vertex 6.69131 7.43145 -2
      vertex 5 8.66025 2
      vertex 6.69131 7.43145 2
    endloop
  endfacet
  facet normal 0.587785 0.809017 0
    outer loop
      vertex 5 8.66025 2
      vertex 6.69131 7.43145 -2
      vertex 5 8.66025 -2
    endloop
  endfacet
  facet normal 0.406737 0.913545 -0
    outer loop
      vertex 5 8.66025 -2
      vertex 3.09017 9.51056 2
      vertex 5 8.66025 2
    endloop
  endfacet
  facet normal 0.406737 0.913545 0
    outer loop
      vertex 3.09017 9.51056 2
      vertex 5 8.66025 -2
      vertex 3.09017 9.51056 -2
    endloop
  endfacet
  facet normal -0.743145 0.669131 0
    outer loop
      vertex -8.09017 5.87785 -2
      vertex -6.69131 7.43145 2
      vertex -6.69131 7.43145 -2
    endloop
  endfacet
  facet normal -0.743145 0.669131 0
    outer loop
      vertex -6.69131 7.43145 2
      vertex -8.09017 5.87785 -2
      vertex -8.09017 5.87785 2
    endloop
  endfacet
  facet normal -0.866026 0.5 0
    outer loop
      vertex -9.13545 4.06737 -2
      vertex -8.09017 5.87785 2
      vertex -8.09017 5.87785 -2
    endloop
  endfacet
  facet normal -0.866026 0.5 0
    outer loop
      vertex -8.09017 5.87785 2
      vertex -9.13545 4.06737 -2
      vertex -9.13545 4.06737 2
    endloop
  endfacet
  facet normal -0.406737 0.913545 0
    outer loop
      vertex -3.09017 9.51056 -2
      vertex -5 8.66025 2
      vertex -3.09017 9.51056 2
    endloop
  endfacet
  facet normal -0.406737 0.913545 0
    outer loop
      vertex -5 8.66025 2
      vertex -3.09017 9.51056 -2
      vertex -5 8.66025 -2
    endloop
  endfacet
  facet normal 0.951057 -0.309017 0
    outer loop
      vertex 9.15734 -4 2
      vertex 9.78148 -2.07912 3.96044
      vertex 9.15734 -4 3
    endloop
  endfacet
  facet normal 0.951057 -0.309017 0
    outer loop
      vertex 9.78148 -2.07912 3.96044
      vertex 9.15734 -4 2
      vertex 9.78148 -2.07912 -2
    endloop
  endfacet
  facet normal 0.951055 -0.309021 0
    outer loop
      vertex 9.13545 -4.06737 -2
      vertex 9.15734 -4 2
      vertex 9.13545 -4.06737 2
    endloop
  endfacet
  facet normal 0.951057 -0.309017 -7.56637e-008
    outer loop
      vertex 9.15734 -4 2
      vertex 9.13545 -4.06737 -2
      vertex 9.78148 -2.07912 -2
    endloop
  endfacet
  facet normal 0.866026 0.5 0
    outer loop
      vertex 9.13545 4.06737 5
      vertex 8.09017 5.87785 -2
      vertex 8.09017 5.87785 5
    endloop
  endfacet
  facet normal 0.866026 0.5 0
    outer loop
      vertex 8.09017 5.87785 -2
      vertex 9.13545 4.06737 5
      vertex 9.13545 4.06737 -2
    endloop
  endfacet
  facet normal 0.951057 0.309017 0
    outer loop
      vertex 9.78148 2.07912 5
      vertex 9.13545 4.06737 -2
      vertex 9.13545 4.06737 5
    endloop
  endfacet
  facet normal 0.951057 0.309017 0
    outer loop
      vertex 9.13545 4.06737 -2
      vertex 9.78148 2.07912 5
      vertex 9.78148 2.07912 -2
    endloop
  endfacet
  facet normal 0.743145 0.66913 0
    outer loop
      vertex 7.98019 6 5
      vertex 8.09017 5.87785 5
      vertex 7.98019 6 2
    endloop
  endfacet
  facet normal 0.743145 0.669131 0
    outer loop
      vertex 7.98019 6 2
      vertex 6.69131 7.43145 -2
      vertex 6.69131 7.43145 2
    endloop
  endfacet
  facet normal 0.743145 0.669131 -4.1781e-008
    outer loop
      vertex 7.98019 6 2
      vertex 8.09017 5.87785 -2
      vertex 6.69131 7.43145 -2
    endloop
  endfacet
  facet normal 0.743145 0.66913 -0
    outer loop
      vertex 8.09017 5.87785 -2
      vertex 7.98019 6 2
      vertex 8.09017 5.87785 5
    endloop
  endfacet
  facet normal 0.207911 0.978148 -0
    outer loop
      vertex 3.09017 9.51056 -2
      vertex 1.04528 9.94522 2
      vertex 3.09017 9.51056 2
    endloop
  endfacet
  facet normal 0.207911 0.978148 0
    outer loop
      vertex 1.04528 9.94522 2
      vertex 3.09017 9.51056 -2
      vertex 1.04528 9.94522 -2
    endloop
  endfacet
  facet normal -0.951055 0.309021 0
    outer loop
      vertex -9.13545 4.06737 -2
      vertex -9.15734 4 2
      vertex -9.13545 4.06737 2
    endloop
  endfacet
  facet normal -0.951057 0.309017 -7.56637e-008
    outer loop
      vertex -9.78148 2.07912 -2
      vertex -9.15734 4 2
      vertex -9.13545 4.06737 -2
    endloop
  endfacet
  facet normal -0.951057 0.309017 0
    outer loop
      vertex -9.78148 2.07912 3.96044
      vertex -9.15734 4 2
      vertex -9.78148 2.07912 -2
    endloop
  endfacet
  facet normal -0.951057 0.309017 0
    outer loop
      vertex -9.15734 4 2
      vertex -9.78148 2.07912 3.96044
      vertex -9.15734 4 3
    endloop
  endfacet
  facet normal -0.587785 0.809017 0
    outer loop
      vertex -5 8.66025 -2
      vertex -6.69131 7.43145 2
      vertex -5 8.66025 2
    endloop
  endfacet
  facet normal -0.587785 0.809017 0
    outer loop
      vertex -6.69131 7.43145 2
      vertex -5 8.66025 -2
      vertex -6.69131 7.43145 -2
    endloop
  endfacet
  facet normal -0.207911 0.978148 0
    outer loop
      vertex -1.04528 9.94522 -2
      vertex -3.09017 9.51056 2
      vertex -1.04528 9.94522 2
    endloop
  endfacet
  facet normal -0.207911 0.978148 0
    outer loop
      vertex -3.09017 9.51056 2
      vertex -1.04528 9.94522 -2
      vertex -3.09017 9.51056 -2
    endloop
  endfacet
  facet normal 0.994521 -0.104538 2.93172e-005
    outer loop
      vertex 9.78148 -2.07912 3.96044
      vertex 9.8003 -1.9 4
      vertex 9.78979 -2 4
    endloop
  endfacet
  facet normal 0.994522 -0.104529 0
    outer loop
      vertex 9.8003 -1.9 2
      vertex 10 0 -2
      vertex 10 0 2
    endloop
  endfacet
  facet normal 0.994522 -0.104531 0
    outer loop
      vertex 9.8003 -1.9 4
      vertex 9.78148 -2.07912 3.96044
      vertex 9.8003 -1.9 2
    endloop
  endfacet
  facet normal 0.994522 -0.104529 -1.05985e-007
    outer loop
      vertex 9.8003 -1.9 2
      vertex 9.78148 -2.07912 -2
      vertex 10 0 -2
    endloop
  endfacet
  facet normal 0.994522 -0.104531 0
    outer loop
      vertex 9.78148 -2.07912 -2
      vertex 9.8003 -1.9 2
      vertex 9.78148 -2.07912 3.96044
    endloop
  endfacet
  facet normal 0.207911 -0.978148 0
    outer loop
      vertex 1.04528 -9.94522 -2
      vertex 3.09017 -9.51056 2
      vertex 1.04528 -9.94522 2
    endloop
  endfacet
  facet normal 0.207911 -0.978148 0
    outer loop
      vertex 3.09017 -9.51056 2
      vertex 1.04528 -9.94522 -2
      vertex 3.09017 -9.51056 -2
    endloop
  endfacet
  facet normal 0.866026 -0.5 0
    outer loop
      vertex 8.09017 -5.87785 2
      vertex 9.13545 -4.06737 -2
      vertex 9.13545 -4.06737 2
    endloop
  endfacet
  facet normal 0.866026 -0.5 0
    outer loop
      vertex 9.13545 -4.06737 -2
      vertex 8.09017 -5.87785 2
      vertex 8.09017 -5.87785 -2
    endloop
  endfacet
  facet normal -0.866026 -0.5 0
    outer loop
      vertex -8.09017 -5.87785 -2
      vertex -9.13545 -4.06737 5
      vertex -9.13545 -4.06737 -2
    endloop
  endfacet
  facet normal -0.866026 -0.5 0
    outer loop
      vertex -9.13545 -4.06737 5
      vertex -8.09017 -5.87785 -2
      vertex -8.09017 -5.87785 5
    endloop
  endfacet
  facet normal 0.587785 -0.809017 0
    outer loop
      vertex 5 -8.66025 -2
      vertex 6.69131 -7.43145 2
      vertex 5 -8.66025 2
    endloop
  endfacet
  facet normal 0.587785 -0.809017 0
    outer loop
      vertex 6.69131 -7.43145 2
      vertex 5 -8.66025 -2
      vertex 6.69131 -7.43145 -2
    endloop
  endfacet
  facet normal 0.406737 -0.913545 0
    outer loop
      vertex 3.09017 -9.51056 -2
      vertex 5 -8.66025 2
      vertex 3.09017 -9.51056 2
    endloop
  endfacet
  facet normal 0.406737 -0.913545 0
    outer loop
      vertex 5 -8.66025 2
      vertex 3.09017 -9.51056 -2
      vertex 5 -8.66025 -2
    endloop
  endfacet
  facet normal -0.207911 -0.978148 0
    outer loop
      vertex -3.09017 -9.51056 -2
      vertex -1.04528 -9.94522 2
      vertex -3.09017 -9.51056 2
    endloop
  endfacet
  facet normal -0.207911 -0.978148 -0
    outer loop
      vertex -1.04528 -9.94522 2
      vertex -3.09017 -9.51056 -2
      vertex -1.04528 -9.94522 -2
    endloop
  endfacet
  facet normal -0.743144 -0.669131 0
    outer loop
      vertex -8.09017 -5.87785 -2
      vertex -7.98019 -6 2
      vertex -8.09017 -5.87785 5
    endloop
  endfacet
  facet normal -0.743145 -0.669131 2.91625e-008
    outer loop
      vertex -6.69131 -7.43145 -2
      vertex -7.98019 -6 2
      vertex -8.09017 -5.87785 -2
    endloop
  endfacet
  facet normal -0.743145 -0.669131 0
    outer loop
      vertex -7.98019 -6 2
      vertex -6.69131 -7.43145 -2
      vertex -6.69131 -7.43145 2
    endloop
  endfacet
  facet normal -0.743144 -0.669131 0
    outer loop
      vertex -8.09017 -5.87785 5
      vertex -7.98019 -6 2
      vertex -7.98019 -6 5
    endloop
  endfacet
  facet normal -0.951057 -0.309017 0
    outer loop
      vertex -9.13545 -4.06737 -2
      vertex -9.78148 -2.07912 5
      vertex -9.78148 -2.07912 -2
    endloop
  endfacet
  facet normal -0.951057 -0.309017 0
    outer loop
      vertex -9.78148 -2.07912 5
      vertex -9.13545 -4.06737 -2
      vertex -9.13545 -4.06737 5
    endloop
  endfacet
  facet normal -0.994522 -0.104529 0
    outer loop
      vertex -10 0 -2
      vertex -9.78979 -2 2
      vertex -10 0 2
    endloop
  endfacet
  facet normal -0.994522 -0.104529 -9.7135e-008
    outer loop
      vertex -9.78148 -2.07912 -2
      vertex -9.78979 -2 2
      vertex -10 0 -2
    endloop
  endfacet
  facet normal -0.994521 -0.104534 -0
    outer loop
      vertex -9.78148 -2.07912 5
      vertex -9.78979 -2 2
      vertex -9.78148 -2.07912 -2
    endloop
  endfacet
  facet normal -0.994521 -0.104534 0
    outer loop
      vertex -9.78979 -2 2
      vertex -9.78148 -2.07912 5
      vertex -9.78979 -2 5
    endloop
  endfacet
  facet normal 0.743145 -0.669131 0
    outer loop
      vertex 6.69131 -7.43145 2
      vertex 8.09017 -5.87785 -2
      vertex 8.09017 -5.87785 2
    endloop
  endfacet
  facet normal 0.743145 -0.669131 0
    outer loop
      vertex 8.09017 -5.87785 -2
      vertex 6.69131 -7.43145 2
      vertex 6.69131 -7.43145 -2
    endloop
  endfacet
  facet normal -0.406737 -0.913545 0
    outer loop
      vertex -5 -8.66025 -2
      vertex -3.09017 -9.51056 2
      vertex -5 -8.66025 2
    endloop
  endfacet
  facet normal -0.406737 -0.913545 -0
    outer loop
      vertex -3.09017 -9.51056 2
      vertex -5 -8.66025 -2
      vertex -3.09017 -9.51056 -2
    endloop
  endfacet
  facet normal -0.587785 -0.809017 0
    outer loop
      vertex -6.69131 -7.43145 -2
      vertex -5 -8.66025 2
      vertex -6.69131 -7.43145 2
    endloop
  endfacet
  facet normal -0.587785 -0.809017 -0
    outer loop
      vertex -5 -8.66025 2
      vertex -6.69131 -7.43145 -2
      vertex -5 -8.66025 -2
    endloop
  endfacet
  facet normal 0 1 -0
    outer loop
      vertex 7.98019 6 2
      vertex 2.36361 6 5
      vertex 7.98019 6 5
    endloop
  endfacet
  facet normal 0 1 0
    outer loop
      vertex 2.36361 6 5
      vertex 7.98019 6 2
      vertex 2.36361 6 2
    endloop
  endfacet
  facet normal 0 -1 0
    outer loop
      vertex 6.11585 2 2
      vertex 9.78979 2 5
      vertex 6.11585 2 5
    endloop
  endfacet
  facet normal 0 -1 -0
    outer loop
      vertex 9.78979 2 5
      vertex 6.11585 2 2
      vertex 9.78979 2 2
    endloop
  endfacet
  facet normal 0 -0.447214 0.894427
    outer loop
      vertex 6.11585 -2 4
      vertex 9.78148 -2.07912 3.96044
      vertex 9.78979 -2 4
    endloop
  endfacet
  facet normal 0 -0.447214 0.894427
    outer loop
      vertex 9.78148 -2.07912 3.96044
      vertex 6.11585 -2 4
      vertex 9.15734 -4 3
    endloop
  endfacet
  facet normal 0 -0.447214 0.894427
    outer loop
      vertex 5.32924 -3.63341 3.18329
      vertex 9.15734 -4 3
      vertex 6.11585 -2 4
    endloop
  endfacet
  facet normal 0 -0.447214 0.894427
    outer loop
      vertex 9.15734 -4 3
      vertex 5.32924 -3.63341 3.18329
      vertex 4.9891 -4 3
    endloop
  endfacet
  facet normal 0 -1 0
    outer loop
      vertex 4.9891 -4 2
      vertex 9.15734 -4 3
      vertex 4.9891 -4 3
    endloop
  endfacet
  facet normal 0 -1 -0
    outer loop
      vertex 9.15734 -4 3
      vertex 4.9891 -4 2
      vertex 9.15734 -4 2
    endloop
  endfacet
  facet normal -0 0 1
    outer loop
      vertex 6.16362 -1.9 4
      vertex 9.78979 -2 4
      vertex 9.8003 -1.9 4
    endloop
  endfacet
  facet normal -0 0 1
    outer loop
      vertex 6.16344 -1.90117 4
      vertex 9.78979 -2 4
      vertex 6.16362 -1.9 4
    endloop
  endfacet
  facet normal 0 0 1
    outer loop
      vertex 9.78979 -2 4
      vertex 6.16344 -1.90117 4
      vertex 6.11585 -2 4
    endloop
  endfacet
  facet normal 0 1 -0
    outer loop
      vertex 9.8003 -1.9 2
      vertex 6.16362 -1.9 4
      vertex 9.8003 -1.9 4
    endloop
  endfacet
  facet normal 0 1 0
    outer loop
      vertex 6.16362 -1.9 4
      vertex 9.8003 -1.9 2
      vertex 6.16362 -1.9 2
    endloop
  endfacet
  facet normal 9.58217e-008 1 -0
    outer loop
      vertex -6.05757 -2 2
      vertex -9.78979 -2 5
      vertex -6.05757 -2 5
    endloop
  endfacet
  facet normal 9.58217e-008 1 0
    outer loop
      vertex -9.78979 -2 5
      vertex -6.05757 -2 2
      vertex -9.78979 -2 2
    endloop
  endfacet
  facet normal -1.64133e-007 -1 0
    outer loop
      vertex -7.98019 -6 2
      vertex -2.1698 -6 5
      vertex -7.98019 -6 5
    endloop
  endfacet
  facet normal -1.64133e-007 -1 -0
    outer loop
      vertex -2.1698 -6 5
      vertex -7.98019 -6 2
      vertex -2.1698 -6 2
    endloop
  endfacet
  facet normal 0 1 -0
    outer loop
      vertex -4.99211 4 2
      vertex -9.15734 4 3
      vertex -4.99211 4 3
    endloop
  endfacet
  facet normal 0 1 0
    outer loop
      vertex -9.15734 4 3
      vertex -4.99211 4 2
      vertex -9.15734 4 2
    endloop
  endfacet
  facet normal 0 -1 0
    outer loop
      vertex -9.8003 1.9 2
      vertex -6.08841 1.9 4
      vertex -9.8003 1.9 4
    endloop
  endfacet
  facet normal 0 -1 -0
    outer loop
      vertex -6.08841 1.9 4
      vertex -9.8003 1.9 2
      vertex -6.08841 1.9 2
    endloop
  endfacet
  facet normal -0 0 1
    outer loop
      vertex -9.78979 2 4
      vertex -6.08841 1.9 4
      vertex -6.05757 2 4
    endloop
  endfacet
  facet normal 0 0 1
    outer loop
      vertex -6.08841 1.9 4
      vertex -9.78979 2 4
      vertex -9.8003 1.9 4
    endloop
  endfacet
  facet normal -0 0.447214 0.894427
    outer loop
      vertex -9.15734 4 3
      vertex -5.81125 2.79855 3.60073
      vertex -4.99211 4 3
    endloop
  endfacet
  facet normal 0 0.447214 0.894427
    outer loop
      vertex -9.15734 4 3
      vertex -6.05757 2 4
      vertex -5.81125 2.79855 3.60073
    endloop
  endfacet
  facet normal 0 0.447214 0.894427
    outer loop
      vertex -9.78148 2.07912 3.96044
      vertex -6.05757 2 4
      vertex -9.15734 4 3
    endloop
  endfacet
  facet normal 0 0.447214 0.894427
    outer loop
      vertex -6.05757 2 4
      vertex -9.78148 2.07912 3.96044
      vertex -9.78979 2 4
    endloop
  endfacet
  facet normal 0 0 1
    outer loop
      vertex 9.78979 2 2
      vertex 6.16344 1.90117 2
      vertex 6.45 0 2
    endloop
  endfacet
  facet normal 0 -0 1
    outer loop
      vertex 6.16344 1.90117 2
      vertex 9.78979 2 2
      vertex 6.11585 2 2
    endloop
  endfacet
  facet normal 0 0 1
    outer loop
      vertex 6.45 0 2
      vertex 10 0 2
      vertex 9.78979 2 2
    endloop
  endfacet
  facet normal 0 0 1
    outer loop
      vertex 10 0 2
      vertex 6.45 0 2
      vertex 9.8003 -1.9 2
    endloop
  endfacet
  facet normal 0 0 1
    outer loop
      vertex 9.8003 -1.9 2
      vertex 6.45 0 2
      vertex 6.16362 -1.9 2
    endloop
  endfacet
  facet normal -0 0 1
    outer loop
      vertex -10 0 2
      vertex -6.37796 -0.961322 2
      vertex -6.37796 0.961322 2
    endloop
  endfacet
  facet normal -0 0 1
    outer loop
      vertex -9.8003 1.9 2
      vertex -6.37796 0.961322 2
      vertex -6.08841 1.9 2
    endloop
  endfacet
  facet normal 0 0 1
    outer loop
      vertex -6.37796 0.961322 2
      vertex -9.8003 1.9 2
      vertex -10 0 2
    endloop
  endfacet
  facet normal 0 0 1
    outer loop
      vertex -6.37796 -0.961322 2
      vertex -10 0 2
      vertex -9.78979 -2 2
    endloop
  endfacet
  facet normal 0 0 1
    outer loop
      vertex -6.05757 -2 2
      vertex -6.37796 -0.961322 2
      vertex -9.78979 -2 2
    endloop
  endfacet
  facet normal -0 0 1
    outer loop
      vertex 4.9891 -4 2
      vertex 9.13545 -4.06737 2
      vertex 9.15734 -4 2
    endloop
  endfacet
  facet normal 0 0 1
    outer loop
      vertex 9.13545 -4.06737 2
      vertex 4.9891 -4 2
      vertex 8.09017 -5.87785 2
    endloop
  endfacet
  facet normal 0 0 1
    outer loop
      vertex 8.09017 -5.87785 2
      vertex 4.9891 -4 2
      vertex 6.69131 -7.43145 2
    endloop
  endfacet
  facet normal -0 0 1
    outer loop
      vertex 4.02151 -5.04281 2
      vertex 6.69131 -7.43145 2
      vertex 4.9891 -4 2
    endloop
  endfacet
  facet normal 0 0 1
    outer loop
      vertex 6.69131 -7.43145 2
      vertex 4.02151 -5.04281 2
      vertex 5 -8.66025 2
    endloop
  endfacet
  facet normal -0 0 1
    outer loop
      vertex 2.35645 -6.00414 2
      vertex 5 -8.66025 2
      vertex 4.02151 -5.04281 2
    endloop
  endfacet
  facet normal 0 0 1
    outer loop
      vertex 5 -8.66025 2
      vertex 2.35645 -6.00414 2
      vertex 3.09017 -9.51056 2
    endloop
  endfacet
  facet normal -0 0 1
    outer loop
      vertex 0.482009 -6.43196 2
      vertex 3.09017 -9.51056 2
      vertex 2.35645 -6.00414 2
    endloop
  endfacet
  facet normal 0 0 1
    outer loop
      vertex 3.09017 -9.51056 2
      vertex 0.482009 -6.43196 2
      vertex 1.04528 -9.94522 2
    endloop
  endfacet
  facet normal 0 0 1
    outer loop
      vertex 0.482009 -6.43196 2
      vertex -1.04528 -9.94522 2
      vertex 1.04528 -9.94522 2
    endloop
  endfacet
  facet normal 0 0 1
    outer loop
      vertex -1.43526 -6.28828 2
      vertex -1.04528 -9.94522 2
      vertex 0.482009 -6.43196 2
    endloop
  endfacet
  facet normal 0 0 1
    outer loop
      vertex -3.09017 -9.51056 2
      vertex -1.43526 -6.28828 2
      vertex -2.1698 -6 2
    endloop
  endfacet
  facet normal 0 0 1
    outer loop
      vertex -1.43526 -6.28828 2
      vertex -3.09017 -9.51056 2
      vertex -1.04528 -9.94522 2
    endloop
  endfacet
  facet normal 0 0 1
    outer loop
      vertex -2.1698 -6 2
      vertex -5 -8.66025 2
      vertex -3.09017 -9.51056 2
    endloop
  endfacet
  facet normal 0 0 1
    outer loop
      vertex -2.1698 -6 2
      vertex -6.69131 -7.43145 2
      vertex -5 -8.66025 2
    endloop
  endfacet
  facet normal 0 -0 1
    outer loop
      vertex -6.69131 -7.43145 2
      vertex -2.1698 -6 2
      vertex -7.98019 -6 2
    endloop
  endfacet
  facet normal 0 0 1
    outer loop
      vertex 2.36361 6 2
      vertex 6.69131 7.43145 2
      vertex 5 8.66025 2
    endloop
  endfacet
  facet normal 0 0 1
    outer loop
      vertex 2.36361 6 2
      vertex 5 8.66025 2
      vertex 3.09017 9.51056 2
    endloop
  endfacet
  facet normal 0 0 1
    outer loop
      vertex 6.69131 7.43145 2
      vertex 2.36361 6 2
      vertex 7.98019 6 2
    endloop
  endfacet
  facet normal 0 0 1
    outer loop
      vertex 3.09017 9.51056 2
      vertex 2.35645 6.00414 2
      vertex 2.36361 6 2
    endloop
  endfacet
  facet normal 0 0 1
    outer loop
      vertex 0.482009 6.43196 2
      vertex 3.09017 9.51056 2
      vertex 1.04528 9.94522 2
    endloop
  endfacet
  facet normal 0 0 1
    outer loop
      vertex 3.09017 9.51056 2
      vertex 0.482009 6.43196 2
      vertex 2.35645 6.00414 2
    endloop
  endfacet
  facet normal -0 0 1
    outer loop
      vertex -1.04528 9.94522 2
      vertex 0.482009 6.43196 2
      vertex 1.04528 9.94522 2
    endloop
  endfacet
  facet normal 0 0 1
    outer loop
      vertex -1.04528 9.94522 2
      vertex -1.43526 6.28828 2
      vertex 0.482009 6.43196 2
    endloop
  endfacet
  facet normal -0 0 1
    outer loop
      vertex -3.09017 9.51056 2
      vertex -1.43526 6.28828 2
      vertex -1.04528 9.94522 2
    endloop
  endfacet
  facet normal 0 0 1
    outer loop
      vertex -3.09017 9.51056 2
      vertex -3.225 5.58586 2
      vertex -1.43526 6.28828 2
    endloop
  endfacet
  facet normal -0 0 1
    outer loop
      vertex -5 8.66025 2
      vertex -3.225 5.58586 2
      vertex -3.09017 9.51056 2
    endloop
  endfacet
  facet normal -0 0 1
    outer loop
      vertex -6.69131 7.43145 2
      vertex -3.225 5.58586 2
      vertex -5 8.66025 2
    endloop
  endfacet
  facet normal 0 0 1
    outer loop
      vertex -3.225 5.58586 2
      vertex -6.69131 7.43145 2
      vertex -4.72818 4.38711 2
    endloop
  endfacet
  facet normal -0 0 1
    outer loop
      vertex -8.09017 5.87785 2
      vertex -4.72818 4.38711 2
      vertex -6.69131 7.43145 2
    endloop
  endfacet
  facet normal 0 0 1
    outer loop
      vertex -4.72818 4.38711 2
      vertex -8.09017 5.87785 2
      vertex -4.99211 4 2
    endloop
  endfacet
  facet normal -0 0 1
    outer loop
      vertex -9.13545 4.06737 2
      vertex -4.99211 4 2
      vertex -8.09017 5.87785 2
    endloop
  endfacet
  facet normal 0 0 1
    outer loop
      vertex -4.99211 4 2
      vertex -9.13545 4.06737 2
      vertex -9.15734 4 2
    endloop
  endfacet
  facet normal 0 0 -1
    outer loop
      vertex 6.45 0 -2
      vertex 10 0 -2
      vertex 9.78148 -2.07912 -2
    endloop
  endfacet
  facet normal 0 0 -1
    outer loop
      vertex 6.16344 -1.90117 -2
      vertex 9.78148 -2.07912 -2
      vertex 9.13545 -4.06737 -2
    endloop
  endfacet
  facet normal 0 0 -1
    outer loop
      vertex 10 0 -2
      vertex 6.45 0 -2
      vertex 9.78148 2.07912 -2
    endloop
  endfacet
  facet normal 0 0 -1
    outer loop
      vertex 5.32924 -3.63341 -2
      vertex 9.13545 -4.06737 -2
      vertex 8.09017 -5.87785 -2
    endloop
  endfacet
  facet normal 0 0 -1
    outer loop
      vertex 6.16344 1.90117 -2
      vertex 9.78148 2.07912 -2
      vertex 6.45 0 -2
    endloop
  endfacet
  facet normal 0 0 -1
    outer loop
      vertex 5.32924 -3.63341 -2
      vertex 8.09017 -5.87785 -2
      vertex 6.69131 -7.43145 -2
    endloop
  endfacet
  facet normal -0 0 -1
    outer loop
      vertex 9.78148 2.07912 -2
      vertex 6.16344 1.90117 -2
      vertex 9.13545 4.06737 -2
    endloop
  endfacet
  facet normal 0 0 -1
    outer loop
      vertex 5.32924 3.63341 -2
      vertex 9.13545 4.06737 -2
      vertex 6.16344 1.90117 -2
    endloop
  endfacet
  facet normal 0 0 -1
    outer loop
      vertex 9.78148 -2.07912 -2
      vertex 6.16344 -1.90117 -2
      vertex 6.45 0 -2
    endloop
  endfacet
  facet normal 0 0 -1
    outer loop
      vertex 9.13545 -4.06737 -2
      vertex 5.32924 -3.63341 -2
      vertex 6.16344 -1.90117 -2
    endloop
  endfacet
  facet normal 0 0 -1
    outer loop
      vertex 4.02151 -5.04281 -2
      vertex 6.69131 -7.43145 -2
      vertex 5 -8.66025 -2
    endloop
  endfacet
  facet normal 0 0 -1
    outer loop
      vertex 6.69131 -7.43145 -2
      vertex 4.02151 -5.04281 -2
      vertex 5.32924 -3.63341 -2
    endloop
  endfacet
  facet normal 0 0 -1
    outer loop
      vertex 2.35645 -6.00414 -2
      vertex 5 -8.66025 -2
      vertex 3.09017 -9.51056 -2
    endloop
  endfacet
  facet normal 0 0 -1
    outer loop
      vertex 5 -8.66025 -2
      vertex 2.35645 -6.00414 -2
      vertex 4.02151 -5.04281 -2
    endloop
  endfacet
  facet normal 0 0 -1
    outer loop
      vertex 0.482009 -6.43196 -2
      vertex 3.09017 -9.51056 -2
      vertex 1.04528 -9.94522 -2
    endloop
  endfacet
  facet normal 0 0 -1
    outer loop
      vertex 3.09017 -9.51056 -2
      vertex 0.482009 -6.43196 -2
      vertex 2.35645 -6.00414 -2
    endloop
  endfacet
  facet normal 0 0 -1
    outer loop
      vertex -1.04528 -9.94522 -2
      vertex 0.482009 -6.43196 -2
      vertex 1.04528 -9.94522 -2
    endloop
  endfacet
  facet normal 0 0 -1
    outer loop
      vertex -1.04528 -9.94522 -2
      vertex -1.43526 -6.28828 -2
      vertex 0.482009 -6.43196 -2
    endloop
  endfacet
  facet normal 0 0 -1
    outer loop
      vertex -3.09017 -9.51056 -2
      vertex -1.43526 -6.28828 -2
      vertex -1.04528 -9.94522 -2
    endloop
  endfacet
  facet normal 0 0 -1
    outer loop
      vertex -3.09017 -9.51056 -2
      vertex -3.225 -5.58586 -2
      vertex -1.43526 -6.28828 -2
    endloop
  endfacet
  facet normal 0 0 -1
    outer loop
      vertex -5 -8.66025 -2
      vertex -3.225 -5.58586 -2
      vertex -3.09017 -9.51056 -2
    endloop
  endfacet
  facet normal 0 0 -1
    outer loop
      vertex -6.69131 -7.43145 -2
      vertex -3.225 -5.58586 -2
      vertex -5 -8.66025 -2
    endloop
  endfacet
  facet normal -0 0 -1
    outer loop
      vertex -3.225 -5.58586 -2
      vertex -6.69131 -7.43145 -2
      vertex -4.72818 -4.38711 -2
    endloop
  endfacet
  facet normal 0 0 -1
    outer loop
      vertex -8.09017 -5.87785 -2
      vertex -4.72818 -4.38711 -2
      vertex -6.69131 -7.43145 -2
    endloop
  endfacet
  facet normal 0 0 -1
    outer loop
      vertex -9.13545 -4.06737 -2
      vertex -5.81125 -2.79855 -2
      vertex -8.09017 -5.87785 -2
    endloop
  endfacet
  facet normal -0 0 -1
    outer loop
      vertex -4.72818 -4.38711 -2
      vertex -8.09017 -5.87785 -2
      vertex -5.81125 -2.79855 -2
    endloop
  endfacet
  facet normal -0 0 -1
    outer loop
      vertex 9.13545 4.06737 -2
      vertex 5.32924 3.63341 -2
      vertex 8.09017 5.87785 -2
    endloop
  endfacet
  facet normal -0 0 -1
    outer loop
      vertex 8.09017 5.87785 -2
      vertex 5.32924 3.63341 -2
      vertex 6.69131 7.43145 -2
    endloop
  endfacet
  facet normal 0 0 -1
    outer loop
      vertex 4.02151 5.04281 -2
      vertex 6.69131 7.43145 -2
      vertex 5.32924 3.63341 -2
    endloop
  endfacet
  facet normal -0 0 -1
    outer loop
      vertex 6.69131 7.43145 -2
      vertex 4.02151 5.04281 -2
      vertex 5 8.66025 -2
    endloop
  endfacet
  facet normal 0 0 -1
    outer loop
      vertex 2.35645 6.00414 -2
      vertex 5 8.66025 -2
      vertex 4.02151 5.04281 -2
    endloop
  endfacet
  facet normal -0 0 -1
    outer loop
      vertex 5 8.66025 -2
      vertex 2.35645 6.00414 -2
      vertex 3.09017 9.51056 -2
    endloop
  endfacet
  facet normal 0 0 -1
    outer loop
      vertex 0.482009 6.43196 -2
      vertex 3.09017 9.51056 -2
      vertex 2.35645 6.00414 -2
    endloop
  endfacet
  facet normal -0 0 -1
    outer loop
      vertex 3.09017 9.51056 -2
      vertex 0.482009 6.43196 -2
      vertex 1.04528 9.94522 -2
    endloop
  endfacet
  facet normal 0 0 -1
    outer loop
      vertex 0.482009 6.43196 -2
      vertex -1.04528 9.94522 -2
      vertex 1.04528 9.94522 -2
    endloop
  endfacet
  facet normal 0 0 -1
    outer loop
      vertex -1.43526 6.28828 -2
      vertex -1.04528 9.94522 -2
      vertex 0.482009 6.43196 -2
    endloop
  endfacet
  facet normal 0 0 -1
    outer loop
      vertex -1.43526 6.28828 -2
      vertex -3.09017 9.51056 -2
      vertex -1.04528 9.94522 -2
    endloop
  endfacet
  facet normal 0 0 -1
    outer loop
      vertex -3.225 5.58586 -2
      vertex -3.09017 9.51056 -2
      vertex -1.43526 6.28828 -2
    endloop
  endfacet
  facet normal 0 0 -1
    outer loop
      vertex -6.69131 7.43145 -2
      vertex -3.225 5.58586 -2
      vertex -4.72818 4.38711 -2
    endloop
  endfacet
  facet normal 0 0 -1
    outer loop
      vertex -3.225 5.58586 -2
      vertex -5 8.66025 -2
      vertex -3.09017 9.51056 -2
    endloop
  endfacet
  facet normal 0 0 -1
    outer loop
      vertex -8.09017 5.87785 -2
      vertex -4.72818 4.38711 -2
      vertex -5.81125 2.79855 -2
    endloop
  endfacet
  facet normal 0 0 -1
    outer loop
      vertex -9.78148 2.07912 -2
      vertex -5.81125 2.79855 -2
      vertex -6.37796 0.961322 -2
    endloop
  endfacet
  facet normal 0 0 -1
    outer loop
      vertex -3.225 5.58586 -2
      vertex -6.69131 7.43145 -2
      vertex -5 8.66025 -2
    endloop
  endfacet
  facet normal 0 0 -1
    outer loop
      vertex -9.78148 -2.07912 -2
      vertex -5.81125 -2.79855 -2
      vertex -9.13545 -4.06737 -2
    endloop
  endfacet
  facet normal 0 0 -1
    outer loop
      vertex -5.81125 -2.79855 -2
      vertex -9.78148 -2.07912 -2
      vertex -6.37796 -0.961322 -2
    endloop
  endfacet
  facet normal 0 0 -1
    outer loop
      vertex -4.72818 4.38711 -2
      vertex -8.09017 5.87785 -2
      vertex -6.69131 7.43145 -2
    endloop
  endfacet
  facet normal 0 0 -1
    outer loop
      vertex -10 0 -2
      vertex -6.37796 -0.961322 -2
      vertex -9.78148 -2.07912 -2
    endloop
  endfacet
  facet normal 0 0 -1
    outer loop
      vertex -5.81125 2.79855 -2
      vertex -9.13545 4.06737 -2
      vertex -8.09017 5.87785 -2
    endloop
  endfacet
  facet normal 0 0 -1
    outer loop
      vertex -6.37796 -0.961322 -2
      vertex -10 0 -2
      vertex -6.37796 0.961322 -2
    endloop
  endfacet
  facet normal -0 0 -1
    outer loop
      vertex -5.81125 2.79855 -2
      vertex -9.78148 2.07912 -2
      vertex -9.13545 4.06737 -2
    endloop
  endfacet
  facet normal -0 0 -1
    outer loop
      vertex -6.37796 0.961322 -2
      vertex -10 0 -2
      vertex -9.78148 2.07912 -2
    endloop
  endfacet
  facet normal 1 -0 0
    outer loop
      vertex -6.37796 -0.961322 2
      vertex -6.37796 0.961322 -2
      vertex -6.37796 0.961322 2
    endloop
  endfacet
  facet normal 1 0 0
    outer loop
      vertex -6.37796 0.961322 -2
      vertex -6.37796 -0.961322 2
      vertex -6.37796 -0.961322 -2
    endloop
  endfacet
  facet normal -0.222521 -0.974928 0
    outer loop
      vertex 0.482009 6.43196 -2
      vertex 2.35645 6.00414 2
      vertex 0.482009 6.43196 2
    endloop
  endfacet
  facet normal -0.222521 -0.974928 -0
    outer loop
      vertex 2.35645 6.00414 2
      vertex 0.482009 6.43196 -2
      vertex 2.35645 6.00414 -2
    endloop
  endfacet
  facet normal -0.222521 0.974928 0
    outer loop
      vertex 2.35645 -6.00414 -2
      vertex 0.482009 -6.43196 2
      vertex 2.35645 -6.00414 2
    endloop
  endfacet
  facet normal -0.222521 0.974928 0
    outer loop
      vertex 0.482009 -6.43196 2
      vertex 2.35645 -6.00414 -2
      vertex 0.482009 -6.43196 -2
    endloop
  endfacet
  facet normal 0.0747302 0.997204 -0
    outer loop
      vertex 0.482009 -6.43196 -2
      vertex -1.43526 -6.28828 2
      vertex 0.482009 -6.43196 2
    endloop
  endfacet
  facet normal 0.0747302 0.997204 0
    outer loop
      vertex -1.43526 -6.28828 2
      vertex 0.482009 -6.43196 -2
      vertex -1.43526 -6.28828 -2
    endloop
  endfacet
  facet normal -0.900969 -0.433884 0
    outer loop
      vertex 5.32924 3.63341 -2
      vertex 6.11585 2 2
      vertex 5.32924 3.63341 5
    endloop
  endfacet
  facet normal -0.900969 -0.433884 1.86581e-008
    outer loop
      vertex 6.16344 1.90117 -2
      vertex 6.11585 2 2
      vertex 5.32924 3.63341 -2
    endloop
  endfacet
  facet normal -0.900969 -0.433883 0
    outer loop
      vertex 6.11585 2 2
      vertex 6.16344 1.90117 -2
      vertex 6.16344 1.90117 2
    endloop
  endfacet
  facet normal -0.900969 -0.433884 0
    outer loop
      vertex 5.32924 3.63341 5
      vertex 6.11585 2 2
      vertex 6.11585 2 5
    endloop
  endfacet
  facet normal 0.0747302 -0.997204 0
    outer loop
      vertex -1.43526 6.28828 -2
      vertex 0.482009 6.43196 2
      vertex -1.43526 6.28828 2
    endloop
  endfacet
  facet normal 0.0747302 -0.997204 0
    outer loop
      vertex 0.482009 6.43196 2
      vertex -1.43526 6.28828 -2
      vertex 0.482009 6.43196 -2
    endloop
  endfacet
  facet normal 0.365341 -0.930874 0
    outer loop
      vertex -3.225 5.58586 -2
      vertex -1.43526 6.28828 2
      vertex -3.225 5.58586 2
    endloop
  endfacet
  facet normal 0.365341 -0.930874 0
    outer loop
      vertex -1.43526 6.28828 2
      vertex -3.225 5.58586 -2
      vertex -1.43526 6.28828 -2
    endloop
  endfacet
  facet normal 0.955573 -0.294755 -5.04881e-008
    outer loop
      vertex -6.08841 1.9 2
      vertex -5.81125 2.79855 3.60073
      vertex -6.05757 2 4
    endloop
  endfacet
  facet normal 0.955573 -0.294756 0
    outer loop
      vertex -6.08841 1.9 2
      vertex -6.05757 2 4
      vertex -6.08841 1.9 4
    endloop
  endfacet
  facet normal 0.955573 -0.294755 0
    outer loop
      vertex -5.81125 2.79855 3.60073
      vertex -6.08841 1.9 2
      vertex -5.81125 2.79855 -2
    endloop
  endfacet
  facet normal 0.955573 -0.294755 0
    outer loop
      vertex -6.37796 0.961322 -2
      vertex -6.08841 1.9 2
      vertex -6.37796 0.961322 2
    endloop
  endfacet
  facet normal 0.955573 -0.294755 3.50401e-009
    outer loop
      vertex -6.08841 1.9 2
      vertex -6.37796 0.961322 -2
      vertex -5.81125 2.79855 -2
    endloop
  endfacet
  facet normal -0.988831 0.149042 0
    outer loop
      vertex 6.45 0 -2
      vertex 6.16362 -1.9 2
      vertex 6.45 0 2
    endloop
  endfacet
  facet normal -0.988831 0.149042 -2.14915e-008
    outer loop
      vertex 6.16344 -1.90117 -2
      vertex 6.16362 -1.9 2
      vertex 6.45 0 -2
    endloop
  endfacet
  facet normal -0.988842 0.14897 0
    outer loop
      vertex 6.16344 -1.90117 4
      vertex 6.16362 -1.9 2
      vertex 6.16344 -1.90117 -2
    endloop
  endfacet
  facet normal -0.988842 0.14897 0
    outer loop
      vertex 6.16362 -1.9 2
      vertex 6.16344 -1.90117 4
      vertex 6.16362 -1.9 4
    endloop
  endfacet
  facet normal 0.955573 0.294755 0
    outer loop
      vertex -6.05757 -2 5
      vertex -5.81125 -2.79855 5
      vertex -6.05757 -2 2
    endloop
  endfacet
  facet normal 0.955573 0.294755 0
    outer loop
      vertex -6.05757 -2 2
      vertex -6.37796 -0.961322 -2
      vertex -6.37796 -0.961322 2
    endloop
  endfacet
  facet normal 0.955573 0.294755 -0
    outer loop
      vertex -5.81125 -2.79855 -2
      vertex -6.05757 -2 2
      vertex -5.81125 -2.79855 5
    endloop
  endfacet
  facet normal 0.955573 0.294755 5.01098e-008
    outer loop
      vertex -6.05757 -2 2
      vertex -5.81125 -2.79855 -2
      vertex -6.37796 -0.961322 -2
    endloop
  endfacet
  facet normal -0.733052 -0.680173 0
    outer loop
      vertex 5.32924 3.63341 -2
      vertex 4.02151 5.04281 5
      vertex 4.02151 5.04281 -2
    endloop
  endfacet
  facet normal -0.733052 -0.680173 0
    outer loop
      vertex 4.02151 5.04281 5
      vertex 5.32924 3.63341 -2
      vertex 5.32924 3.63341 5
    endloop
  endfacet
  facet normal -0.499996 -0.866028 -0
    outer loop
      vertex 2.35645 6.00414 2
      vertex 2.35645 6.00414 -2
      vertex 2.36361 6 2
    endloop
  endfacet
  facet normal -0.5 -0.866025 0
    outer loop
      vertex 2.36361 6 2
      vertex 4.02151 5.04281 5
      vertex 2.36361 6 5
    endloop
  endfacet
  facet normal -0.5 -0.866025 9.18804e-009
    outer loop
      vertex 4.02151 5.04281 -2
      vertex 2.36361 6 2
      vertex 2.35645 6.00414 -2
    endloop
  endfacet
  facet normal -0.5 -0.866025 0
    outer loop
      vertex 2.36361 6 2
      vertex 4.02151 5.04281 -2
      vertex 4.02151 5.04281 5
    endloop
  endfacet
  facet normal 0.62349 -0.781831 0
    outer loop
      vertex -4.72818 4.38711 -2
      vertex -3.225 5.58586 2
      vertex -4.72818 4.38711 2
    endloop
  endfacet
  facet normal 0.62349 -0.781831 0
    outer loop
      vertex -3.225 5.58586 2
      vertex -4.72818 4.38711 -2
      vertex -3.225 5.58586 -2
    endloop
  endfacet
  facet normal 0.826239 -0.56332 0
    outer loop
      vertex -4.99211 4 3
      vertex -5.81125 2.79855 3.60073
      vertex -4.99211 4 2
    endloop
  endfacet
  facet normal 0.826238 -0.56332 0
    outer loop
      vertex -4.99211 4 2
      vertex -4.72818 4.38711 -2
      vertex -4.72818 4.38711 2
    endloop
  endfacet
  facet normal 0.826239 -0.56332 0
    outer loop
      vertex -5.81125 2.79855 -2
      vertex -4.99211 4 2
      vertex -5.81125 2.79855 3.60073
    endloop
  endfacet
  facet normal 0.826239 -0.56332 3.3089e-008
    outer loop
      vertex -4.99211 4 2
      vertex -5.81125 2.79855 -2
      vertex -4.72818 4.38711 -2
    endloop
  endfacet
  facet normal -0.988831 -0.149042 0
    outer loop
      vertex 6.45 0 -2
      vertex 6.16344 1.90117 2
      vertex 6.16344 1.90117 -2
    endloop
  endfacet
  facet normal -0.988831 -0.149042 0
    outer loop
      vertex 6.16344 1.90117 2
      vertex 6.45 0 -2
      vertex 6.45 0 2
    endloop
  endfacet
  facet normal -0.5 0.866025 0
    outer loop
      vertex 4.02151 -5.04281 -2
      vertex 2.35645 -6.00414 2
      vertex 4.02151 -5.04281 2
    endloop
  endfacet
  facet normal -0.5 0.866025 0
    outer loop
      vertex 2.35645 -6.00414 2
      vertex 4.02151 -5.04281 -2
      vertex 2.35645 -6.00414 -2
    endloop
  endfacet
  facet normal 0.62349 0.781831 -0
    outer loop
      vertex -3.225 -5.58586 -2
      vertex -4.72818 -4.38711 5
      vertex -3.225 -5.58586 5
    endloop
  endfacet
  facet normal 0.62349 0.781831 0
    outer loop
      vertex -4.72818 -4.38711 5
      vertex -3.225 -5.58586 -2
      vertex -4.72818 -4.38711 -2
    endloop
  endfacet
  facet normal 0.826239 0.56332 0
    outer loop
      vertex -4.72818 -4.38711 5
      vertex -5.81125 -2.79855 -2
      vertex -5.81125 -2.79855 5
    endloop
  endfacet
  facet normal 0.826239 0.56332 0
    outer loop
      vertex -5.81125 -2.79855 -2
      vertex -4.72818 -4.38711 5
      vertex -4.72818 -4.38711 -2
    endloop
  endfacet
  facet normal -0.900969 0.433884 0
    outer loop
      vertex 5.32924 -3.63341 3.18329
      vertex 6.16344 -1.90117 4
      vertex 6.16344 -1.90117 -2
    endloop
  endfacet
  facet normal -0.900969 0.433884 0
    outer loop
      vertex 5.32924 -3.63341 3.18329
      vertex 6.16344 -1.90117 -2
      vertex 5.32924 -3.63341 -2
    endloop
  endfacet
  facet normal -0.900969 0.433883 1.60171e-006
    outer loop
      vertex 6.16344 -1.90117 4
      vertex 5.32924 -3.63341 3.18329
      vertex 6.11585 -2 4
    endloop
  endfacet
  facet normal 0.365341 0.930874 0
    outer loop
      vertex -1.43526 -6.28828 2
      vertex -1.43526 -6.28828 -2
      vertex -2.1698 -6 2
    endloop
  endfacet
  facet normal 0.365341 0.930874 -0
    outer loop
      vertex -2.1698 -6 2
      vertex -3.225 -5.58586 5
      vertex -2.1698 -6 5
    endloop
  endfacet
  facet normal 0.365341 0.930874 5.70912e-008
    outer loop
      vertex -3.225 -5.58586 -2
      vertex -2.1698 -6 2
      vertex -1.43526 -6.28828 -2
    endloop
  endfacet
  facet normal 0.365341 0.930874 0
    outer loop
      vertex -2.1698 -6 2
      vertex -3.225 -5.58586 -2
      vertex -3.225 -5.58586 5
    endloop
  endfacet
  facet normal -0.733052 0.680173 0
    outer loop
      vertex 5.32924 -3.63341 -2
      vertex 4.9891 -4 2
      vertex 5.32924 -3.63341 3.18329
    endloop
  endfacet
  facet normal -0.733052 0.680173 3.17626e-008
    outer loop
      vertex 4.02151 -5.04281 -2
      vertex 4.9891 -4 2
      vertex 5.32924 -3.63341 -2
    endloop
  endfacet
  facet normal -0.733052 0.680173 0
    outer loop
      vertex 4.9891 -4 2
      vertex 4.02151 -5.04281 -2
      vertex 4.02151 -5.04281 2
    endloop
  endfacet
  facet normal -0.733052 0.680173 0
    outer loop
      vertex 5.32924 -3.63341 3.18329
      vertex 4.9891 -4 2
      vertex 4.9891 -4 3
    endloop
  endfacet
endsolid OpenSCAD_Model
